<ttFont>
    <TTGlyph name="A" xMin="-38" yMin="-35" xMax="1697" yMax="1512">
      <contour>
        <pt x="1697" y="-11" on="1"/>
        <pt x="1696" y="-24" on="0"/>
        <pt x="1642" y="-24" on="1"/>
        <pt x="1550" y="-24" on="1"/>
        <pt x="1488" y="-25" on="1"/>
        <pt x="1427" y="-25" on="1"/>
        <pt x="1330" y="-26" on="1"/>
        <pt x="1185" y="-26" on="0"/>
        <pt x="1089" y="-19" on="1"/>
        <pt x="1086" y="-18" on="0"/>
        <pt x="1082" y="-7" on="1"/>
        <pt x="1077" y="14" on="1"/>
        <pt x="1068" y="117" on="0"/>
        <pt x="1030" y="213" on="1"/>
        <pt x="602" y="209" on="1"/>
        <pt x="598" y="192" on="0"/>
        <pt x="554" y="24" on="0"/>
        <pt x="543" y="-19" on="1"/>
        <pt x="533" y="-29" on="0"/>
        <pt x="448" y="-29" on="1"/>
        <pt x="423" y="-28" on="1"/>
        <pt x="365" y="-28" on="1"/>
        <pt x="105" y="-34" on="1"/>
        <pt x="75" y="-34" on="1"/>
        <pt x="47" y="-35" on="1"/>
        <pt x="-23" y="-35" on="1"/>
        <pt x="-30" y="-28" on="0"/>
        <pt x="-38" y="-17" on="1"/>
        <pt x="62" y="329" on="0"/>
        <pt x="233" y="841" on="1"/>
        <pt x="256" y="912" on="1"/>
        <pt x="255" y="912" on="1"/>
        <pt x="282" y="995" on="1"/>
        <pt x="295" y="1035" on="0"/>
        <pt x="418" y="1399" on="0"/>
        <pt x="449" y="1505" on="0"/>
        <pt x="452" y="1507" on="1"/>
        <pt x="618" y="1507" on="1"/>
        <pt x="973" y="1512" on="1"/>
        <pt x="1069" y="1507" on="1"/>
        <pt x="1148" y="1512" on="1"/>
        <pt x="1208" y="1512" on="0"/>
        <pt x="1208" y="1488" on="1"/>
        <pt x="1308" y="1209" on="0"/>
        <pt x="1642" y="161" on="0"/>
        <pt x="1663" y="96" on="1"/>
        <pt x="1677" y="46" on="1"/>
        <pt x="1684" y="19" on="0"/>
      </contour>
      <contour>
        <pt x="707" y="535" on="1"/>
        <pt x="748" y="534" on="1"/>
        <pt x="987" y="535" on="1"/>
        <pt x="972" y="654" on="0"/>
        <pt x="964" y="710" on="1"/>
        <pt x="926" y="881" on="1"/>
        <pt x="866" y="1146" on="0"/>
        <pt x="862" y="1156" on="0"/>
        <pt x="859" y="1165" on="0"/>
        <pt x="857" y="1168" on="0"/>
        <pt x="854" y="1176" on="0"/>
        <pt x="851" y="1179" on="0"/>
        <pt x="849" y="1182" on="1"/>
        <pt x="842" y="1194" on="0"/>
        <pt x="820" y="1203" on="1"/>
        <pt x="793" y="1197" on="0"/>
        <pt x="659" y="601" on="1"/>
        <pt x="648" y="535" on="1"/>
      </contour>
    </TTGlyph>
    <TTGlyph name="AE" xMin="-42" yMin="-49" xMax="2336" yMax="1516">
      <contour>
        <pt x="2326" y="-14" on="1"/>
        <pt x="1994" y="-11" on="1"/>
        <pt x="1856" y="-11" on="0"/>
        <pt x="1693" y="-16" on="1"/>
        <pt x="1676" y="-24" on="0"/>
        <pt x="1597" y="-24" on="1"/>
        <pt x="1546" y="-24" on="1"/>
        <pt x="1500" y="-26" on="0"/>
        <pt x="1462" y="-26" on="1"/>
        <pt x="1422" y="-25" on="1"/>
        <pt x="1273" y="-27" on="1"/>
        <pt x="1186" y="-26" on="0"/>
        <pt x="1085" y="-19" on="1"/>
        <pt x="1082" y="-18" on="0"/>
        <pt x="1078" y="-7" on="1"/>
        <pt x="1072" y="15" on="1"/>
        <pt x="1041" y="213" on="0"/>
        <pt x="967" y="213" on="1"/>
        <pt x="966" y="213" on="0"/>
        <pt x="966" y="213" on="1"/>
        <pt x="597" y="209" on="1"/>
        <pt x="588" y="172" on="0"/>
        <pt x="548" y="18" on="0"/>
        <pt x="539" y="-19" on="1"/>
        <pt x="528" y="-29" on="0"/>
        <pt x="443" y="-29" on="1"/>
        <pt x="420" y="-28" on="1"/>
        <pt x="361" y="-28" on="1"/>
        <pt x="101" y="-34" on="1"/>
        <pt x="70" y="-34" on="1"/>
        <pt x="43" y="-35" on="1"/>
        <pt x="-27" y="-35" on="1"/>
        <pt x="-34" y="-28" on="0"/>
        <pt x="-42" y="-17" on="1"/>
        <pt x="42" y="273" on="0"/>
        <pt x="385" y="1312" on="0"/>
        <pt x="445" y="1505" on="0"/>
        <pt x="447" y="1507" on="1"/>
        <pt x="614" y="1507" on="1"/>
        <pt x="969" y="1512" on="1"/>
        <pt x="1065" y="1507" on="1"/>
        <pt x="1144" y="1512" on="1"/>
        <pt x="1164" y="1512" on="0"/>
        <pt x="1177" y="1508" on="1"/>
        <pt x="1639" y="1516" on="0"/>
        <pt x="1870" y="1516" on="1"/>
        <pt x="1879" y="1511" on="0"/>
        <pt x="1884" y="1505" on="1"/>
        <pt x="1936" y="1327" on="1"/>
        <pt x="1981" y="1168" on="0"/>
        <pt x="1993" y="1121" on="1"/>
        <pt x="1987" y="1115" on="0"/>
        <pt x="1942" y="1115" on="1"/>
        <pt x="1935" y="1115" on="1"/>
        <pt x="1687" y="1115" on="0"/>
        <pt x="1421" y="1123" on="1"/>
        <pt x="1442" y="996" on="0"/>
        <pt x="1462" y="918" on="1"/>
        <pt x="1758" y="925" on="1"/>
        <pt x="1840" y="927" on="0"/>
        <pt x="1991" y="927" on="0"/>
        <pt x="2007" y="897" on="1"/>
        <pt x="2014" y="865" on="1"/>
        <pt x="2027" y="817" on="0"/>
        <pt x="2060" y="720" on="1"/>
        <pt x="2059" y="720" on="1"/>
        <pt x="2099" y="583" on="1"/>
        <pt x="1808" y="568" on="0"/>
        <pt x="1625" y="568" on="1"/>
        <pt x="1568" y="568" on="1"/>
        <pt x="1624" y="377" on="1"/>
        <pt x="2158" y="394" on="1"/>
        <pt x="2208" y="394" on="0"/>
        <pt x="2226" y="377" on="1"/>
        <pt x="2307" y="99" on="1"/>
        <pt x="2309" y="90" on="0"/>
        <pt x="2336" y="14" on="0"/>
        <pt x="2336" y="-12" on="0"/>
      </contour>
      <contour>
        <pt x="2099" y="583" on="1"/>
        <pt x="2106" y="584" on="1"/>
        <pt x="2110" y="581" on="1"/>
        <pt x="2102" y="581" on="0"/>
        <pt x="2102" y="577" on="1"/>
        <pt x="2102" y="574" on="1"/>
      </contour>
      <contour>
        <pt x="1278" y="-29" on="1"/>
        <pt x="1284" y="-34" on="1"/>
        <pt x="1270" y="-49" on="1"/>
        <pt x="1265" y="-45" on="1"/>
      </contour>
      <contour>
        <pt x="703" y="535" on="1"/>
        <pt x="744" y="534" on="1"/>
        <pt x="977" y="534" on="0"/>
        <pt x="982" y="595" on="1"/>
        <pt x="982" y="624" on="0"/>
        <pt x="962" y="699" on="0"/>
        <pt x="960" y="710" on="1"/>
        <pt x="922" y="881" on="1"/>
        <pt x="899" y="975" on="0"/>
        <pt x="862" y="1146" on="1"/>
        <pt x="858" y="1155" on="1"/>
        <pt x="858" y="1160" on="0"/>
        <pt x="853" y="1168" on="0"/>
        <pt x="850" y="1176" on="0"/>
        <pt x="847" y="1179" on="0"/>
        <pt x="845" y="1182" on="1"/>
        <pt x="838" y="1194" on="0"/>
        <pt x="816" y="1203" on="1"/>
        <pt x="774" y="1199" on="0"/>
        <pt x="697" y="922" on="0"/>
        <pt x="635" y="640" on="0"/>
        <pt x="625" y="601" on="1"/>
        <pt x="664" y="535" on="1"/>
      </contour>
    </TTGlyph>
    <TTGlyph name="Aacute" xMin="-38" yMin="-35" xMax="1697" yMax="2046">
      <contour>
        <pt x="1697" y="-11" on="1"/>
        <pt x="1696" y="-24" on="0"/>
        <pt x="1642" y="-24" on="1"/>
        <pt x="1550" y="-24" on="1"/>
        <pt x="1488" y="-25" on="1"/>
        <pt x="1427" y="-25" on="1"/>
        <pt x="1330" y="-26" on="1"/>
        <pt x="1185" y="-26" on="0"/>
        <pt x="1089" y="-19" on="1"/>
        <pt x="1086" y="-18" on="0"/>
        <pt x="1082" y="-7" on="1"/>
        <pt x="1077" y="14" on="1"/>
        <pt x="1068" y="117" on="0"/>
        <pt x="1030" y="213" on="1"/>
        <pt x="602" y="209" on="1"/>
        <pt x="598" y="192" on="0"/>
        <pt x="554" y="24" on="0"/>
        <pt x="543" y="-19" on="1"/>
        <pt x="533" y="-29" on="0"/>
        <pt x="448" y="-29" on="1"/>
        <pt x="423" y="-28" on="1"/>
        <pt x="365" y="-28" on="1"/>
        <pt x="105" y="-34" on="1"/>
        <pt x="75" y="-34" on="1"/>
        <pt x="47" y="-35" on="1"/>
        <pt x="-23" y="-35" on="1"/>
        <pt x="-30" y="-28" on="0"/>
        <pt x="-38" y="-17" on="1"/>
        <pt x="62" y="329" on="0"/>
        <pt x="233" y="841" on="1"/>
        <pt x="256" y="912" on="1"/>
        <pt x="255" y="912" on="1"/>
        <pt x="282" y="995" on="1"/>
        <pt x="295" y="1035" on="0"/>
        <pt x="418" y="1399" on="0"/>
        <pt x="449" y="1505" on="0"/>
        <pt x="452" y="1507" on="1"/>
        <pt x="618" y="1507" on="1"/>
        <pt x="973" y="1512" on="1"/>
        <pt x="1069" y="1507" on="1"/>
        <pt x="1148" y="1512" on="1"/>
        <pt x="1208" y="1512" on="0"/>
        <pt x="1208" y="1488" on="1"/>
        <pt x="1308" y="1209" on="0"/>
        <pt x="1642" y="161" on="0"/>
        <pt x="1663" y="96" on="1"/>
        <pt x="1677" y="46" on="1"/>
        <pt x="1684" y="19" on="0"/>
      </contour>
      <contour>
        <pt x="707" y="535" on="1"/>
        <pt x="748" y="534" on="1"/>
        <pt x="987" y="535" on="1"/>
        <pt x="972" y="654" on="0"/>
        <pt x="964" y="710" on="1"/>
        <pt x="926" y="881" on="1"/>
        <pt x="866" y="1146" on="0"/>
        <pt x="862" y="1156" on="0"/>
        <pt x="859" y="1165" on="0"/>
        <pt x="857" y="1168" on="0"/>
        <pt x="854" y="1176" on="0"/>
        <pt x="851" y="1179" on="0"/>
        <pt x="849" y="1182" on="1"/>
        <pt x="842" y="1194" on="0"/>
        <pt x="820" y="1203" on="1"/>
        <pt x="793" y="1197" on="0"/>
        <pt x="659" y="601" on="1"/>
        <pt x="648" y="535" on="1"/>
      </contour>
      <contour>
        <pt x="557" y="1662" on="1"/>
        <pt x="541" y="1661" on="1"/>
        <pt x="492" y="1661" on="1"/>
        <pt x="477" y="1690" on="1"/>
        <pt x="645" y="1976" on="1"/>
        <pt x="688" y="2039" on="0"/>
        <pt x="694" y="2046" on="1"/>
        <pt x="764" y="2046" on="1"/>
        <pt x="1182" y="2036" on="1"/>
        <pt x="1182" y="2033" on="1"/>
        <pt x="1142" y="1987" on="0"/>
        <pt x="960" y="1784" on="0"/>
        <pt x="874" y="1686" on="0"/>
        <pt x="811" y="1666" on="0"/>
        <pt x="740" y="1665" on="1"/>
      </contour>
    </TTGlyph>
    <TTGlyph name="Acircumflex" xMin="-38" yMin="-35" xMax="1697" yMax="2064">
      <component glyphName="A" x="0" y="0" flags="0x1004"/>
      <component glyphName="circumflex" x="461" y="286" flags="0x1004"/>
    </TTGlyph>
    <TTGlyph name="Adieresis" xMin="-38" yMin="-35" xMax="1697" yMax="2040">
      <component glyphName="A" x="0" y="0" flags="0x1004"/>
      <component glyphName="dieresis" x="498" y="227" flags="0x1004"/>
    </TTGlyph>
    <TTGlyph name="Agrave" xMin="-38" yMin="-35" xMax="1697" yMax="2046">
      <component glyphName="A" x="0" y="0" flags="0x1004"/>
      <component glyphName="grave" x="586" y="227" flags="0x1004"/>
    </TTGlyph>
    <TTGlyph name="Aring" xMin="-38" yMin="-35" xMax="1697" yMax="2232">
      <contour>
        <pt x="1697" y="-11" on="1"/>
        <pt x="1696" y="-24" on="0"/>
        <pt x="1642" y="-24" on="1"/>
        <pt x="1550" y="-24" on="1"/>
        <pt x="1488" y="-25" on="1"/>
        <pt x="1427" y="-25" on="1"/>
        <pt x="1330" y="-26" on="1"/>
        <pt x="1185" y="-26" on="0"/>
        <pt x="1089" y="-19" on="1"/>
        <pt x="1086" y="-18" on="0"/>
        <pt x="1082" y="-7" on="1"/>
        <pt x="1077" y="14" on="1"/>
        <pt x="1068" y="117" on="0"/>
        <pt x="1030" y="213" on="1"/>
        <pt x="602" y="209" on="1"/>
        <pt x="598" y="192" on="0"/>
        <pt x="554" y="24" on="0"/>
        <pt x="543" y="-19" on="1"/>
        <pt x="533" y="-29" on="0"/>
        <pt x="448" y="-29" on="1"/>
        <pt x="423" y="-28" on="1"/>
        <pt x="365" y="-28" on="1"/>
        <pt x="105" y="-34" on="1"/>
        <pt x="75" y="-34" on="1"/>
        <pt x="47" y="-35" on="1"/>
        <pt x="-23" y="-35" on="1"/>
        <pt x="-30" y="-28" on="0"/>
        <pt x="-38" y="-17" on="1"/>
        <pt x="62" y="329" on="0"/>
        <pt x="233" y="841" on="1"/>
        <pt x="256" y="912" on="1"/>
        <pt x="255" y="912" on="1"/>
        <pt x="282" y="995" on="1"/>
        <pt x="295" y="1035" on="0"/>
        <pt x="418" y="1399" on="0"/>
        <pt x="449" y="1505" on="0"/>
        <pt x="452" y="1507" on="1"/>
        <pt x="618" y="1507" on="1"/>
        <pt x="973" y="1512" on="1"/>
        <pt x="1069" y="1507" on="1"/>
        <pt x="1148" y="1512" on="1"/>
        <pt x="1208" y="1512" on="0"/>
        <pt x="1208" y="1488" on="1"/>
        <pt x="1308" y="1209" on="0"/>
        <pt x="1642" y="161" on="0"/>
        <pt x="1663" y="96" on="1"/>
        <pt x="1677" y="46" on="1"/>
        <pt x="1684" y="19" on="0"/>
      </contour>
      <contour>
        <pt x="707" y="535" on="1"/>
        <pt x="748" y="534" on="1"/>
        <pt x="987" y="535" on="1"/>
        <pt x="972" y="654" on="0"/>
        <pt x="964" y="710" on="1"/>
        <pt x="926" y="881" on="1"/>
        <pt x="866" y="1146" on="0"/>
        <pt x="862" y="1156" on="0"/>
        <pt x="859" y="1165" on="0"/>
        <pt x="857" y="1168" on="0"/>
        <pt x="854" y="1176" on="0"/>
        <pt x="851" y="1179" on="0"/>
        <pt x="849" y="1182" on="1"/>
        <pt x="842" y="1194" on="0"/>
        <pt x="820" y="1203" on="1"/>
        <pt x="793" y="1197" on="0"/>
        <pt x="659" y="601" on="1"/>
        <pt x="648" y="535" on="1"/>
      </contour>
      <contour>
        <pt x="939" y="2232" on="0"/>
        <pt x="1115" y="2069" on="0"/>
        <pt x="1115" y="1830" on="0"/>
        <pt x="944" y="1666" on="0"/>
        <pt x="832" y="1666" on="1"/>
        <pt x="651" y="1666" on="0"/>
        <pt x="567" y="1844" on="1"/>
        <pt x="539" y="1903" on="0"/>
        <pt x="539" y="1958" on="0"/>
        <pt x="545" y="2000" on="0"/>
        <pt x="584" y="2098" on="0"/>
        <pt x="618" y="2140" on="1"/>
        <pt x="691" y="2232" on="0"/>
      </contour>
      <contour>
        <pt x="960" y="2013" on="0"/>
        <pt x="880" y="2085" on="0"/>
        <pt x="776" y="2085" on="0"/>
        <pt x="696" y="2020" on="0"/>
        <pt x="685" y="1963" on="1"/>
        <pt x="685" y="1894" on="0"/>
        <pt x="776" y="1815" on="0"/>
        <pt x="883" y="1815" on="0"/>
        <pt x="960" y="1886" on="0"/>
      </contour>
    </TTGlyph>
    <TTGlyph name="Atilde" xMin="-38" yMin="-35" xMax="1697" yMax="2049">
      <contour>
        <pt x="1697" y="-11" on="1"/>
        <pt x="1696" y="-24" on="0"/>
        <pt x="1642" y="-24" on="1"/>
        <pt x="1550" y="-24" on="1"/>
        <pt x="1488" y="-25" on="1"/>
        <pt x="1427" y="-25" on="1"/>
        <pt x="1330" y="-26" on="1"/>
        <pt x="1185" y="-26" on="0"/>
        <pt x="1089" y="-19" on="1"/>
        <pt x="1086" y="-18" on="0"/>
        <pt x="1082" y="-7" on="1"/>
        <pt x="1077" y="14" on="1"/>
        <pt x="1068" y="117" on="0"/>
        <pt x="1030" y="213" on="1"/>
        <pt x="602" y="209" on="1"/>
        <pt x="598" y="192" on="0"/>
        <pt x="554" y="24" on="0"/>
        <pt x="543" y="-19" on="1"/>
        <pt x="533" y="-29" on="0"/>
        <pt x="448" y="-29" on="1"/>
        <pt x="423" y="-28" on="1"/>
        <pt x="365" y="-28" on="1"/>
        <pt x="105" y="-34" on="1"/>
        <pt x="75" y="-34" on="1"/>
        <pt x="47" y="-35" on="1"/>
        <pt x="-23" y="-35" on="1"/>
        <pt x="-30" y="-28" on="0"/>
        <pt x="-38" y="-17" on="1"/>
        <pt x="62" y="329" on="0"/>
        <pt x="233" y="841" on="1"/>
        <pt x="256" y="912" on="1"/>
        <pt x="255" y="912" on="1"/>
        <pt x="282" y="995" on="1"/>
        <pt x="295" y="1035" on="0"/>
        <pt x="418" y="1399" on="0"/>
        <pt x="449" y="1505" on="0"/>
        <pt x="452" y="1507" on="1"/>
        <pt x="618" y="1507" on="1"/>
        <pt x="973" y="1512" on="1"/>
        <pt x="1069" y="1507" on="1"/>
        <pt x="1148" y="1512" on="1"/>
        <pt x="1208" y="1512" on="0"/>
        <pt x="1208" y="1488" on="1"/>
        <pt x="1308" y="1209" on="0"/>
        <pt x="1642" y="161" on="0"/>
        <pt x="1663" y="96" on="1"/>
        <pt x="1677" y="46" on="1"/>
        <pt x="1684" y="19" on="0"/>
      </contour>
      <contour>
        <pt x="707" y="535" on="1"/>
        <pt x="748" y="534" on="1"/>
        <pt x="987" y="535" on="1"/>
        <pt x="972" y="654" on="0"/>
        <pt x="964" y="710" on="1"/>
        <pt x="926" y="881" on="1"/>
        <pt x="866" y="1146" on="0"/>
        <pt x="862" y="1156" on="0"/>
        <pt x="859" y="1165" on="0"/>
        <pt x="857" y="1168" on="0"/>
        <pt x="854" y="1176" on="0"/>
        <pt x="851" y="1179" on="0"/>
        <pt x="849" y="1182" on="1"/>
        <pt x="842" y="1194" on="0"/>
        <pt x="820" y="1203" on="1"/>
        <pt x="793" y="1197" on="0"/>
        <pt x="659" y="601" on="1"/>
        <pt x="648" y="535" on="1"/>
      </contour>
      <contour>
        <pt x="1003" y="2025" on="1"/>
        <pt x="1026" y="2044" on="1"/>
        <pt x="1279" y="2037" on="1"/>
        <pt x="1282" y="2036" on="0"/>
        <pt x="1292" y="2022" on="1"/>
        <pt x="1270" y="1678" on="0"/>
        <pt x="1008" y="1678" on="1"/>
        <pt x="954" y="1678" on="0"/>
        <pt x="866" y="1699" on="1"/>
        <pt x="808" y="1717" on="1"/>
        <pt x="702" y="1750" on="0"/>
        <pt x="653" y="1750" on="0"/>
        <pt x="632" y="1741" on="0"/>
        <pt x="628" y="1717" on="0"/>
        <pt x="624" y="1690" on="0"/>
        <pt x="392" y="1690" on="1"/>
        <pt x="365" y="1690" on="1"/>
        <pt x="359" y="1696" on="0"/>
        <pt x="359" y="1708" on="1"/>
        <pt x="359" y="1880" on="0"/>
        <pt x="513" y="2049" on="0"/>
        <pt x="655" y="2049" on="1"/>
        <pt x="708" y="2049" on="0"/>
        <pt x="841" y="2012" on="1"/>
        <pt x="841" y="2013" on="1"/>
        <pt x="871" y="2002" on="0"/>
        <pt x="928" y="1987" on="1"/>
        <pt x="958" y="1981" on="1"/>
        <pt x="962" y="1981" on="0"/>
        <pt x="972" y="1971" on="1"/>
        <pt x="997" y="1999" on="1"/>
        <pt x="1002" y="2016" on="0"/>
      </contour>
      <contour>
        <pt x="964" y="2019" on="1"/>
        <pt x="973" y="2029" on="1"/>
        <pt x="980" y="2012" on="1"/>
      </contour>
    </TTGlyph>
    <TTGlyph name="B" xMin="104" yMin="-33" xMax="1537" yMax="1513">
      <contour>
        <pt x="109" y="1116" on="1"/>
        <pt x="108" y="1136" on="1"/>
        <pt x="108" y="1198" on="1"/>
        <pt x="108" y="1327" on="0"/>
        <pt x="113" y="1494" on="1"/>
        <pt x="111" y="1496" on="1"/>
        <pt x="165" y="1499" on="1"/>
        <pt x="426" y="1513" on="0"/>
        <pt x="504" y="1513" on="1"/>
        <pt x="970" y="1513" on="1"/>
        <pt x="1209" y="1513" on="0"/>
        <pt x="1367" y="1414" on="1"/>
        <pt x="1423" y="1366" on="0"/>
        <pt x="1493" y="1204" on="0"/>
        <pt x="1493" y="1102" on="1"/>
        <pt x="1493" y="905" on="0"/>
        <pt x="1229" y="767" on="1"/>
        <pt x="1378" y="726" on="0"/>
        <pt x="1537" y="545" on="0"/>
        <pt x="1537" y="414" on="1"/>
        <pt x="1537" y="182" on="0"/>
        <pt x="1329" y="62" on="1"/>
        <pt x="1176" y="-28" on="0"/>
        <pt x="942" y="-28" on="1"/>
        <pt x="644" y="-24" on="1"/>
        <pt x="451" y="-24" on="0"/>
        <pt x="132" y="-33" on="1"/>
        <pt x="104" y="26" on="0"/>
        <pt x="104" y="842" on="0"/>
      </contour>
      <contour>
        <pt x="731" y="279" on="1"/>
        <pt x="990" y="279" on="0"/>
        <pt x="990" y="460" on="1"/>
        <pt x="990" y="575" on="0"/>
        <pt x="920" y="614" on="1"/>
        <pt x="857" y="648" on="0"/>
        <pt x="727" y="652" on="1"/>
        <pt x="698" y="652" on="1"/>
        <pt x="680" y="596" on="1"/>
        <pt x="673" y="493" on="0"/>
        <pt x="673" y="294" on="0"/>
        <pt x="694" y="279" on="1"/>
      </contour>
      <contour>
        <pt x="946" y="948" on="1"/>
        <pt x="966" y="986" on="0"/>
        <pt x="966" y="1040" on="1"/>
        <pt x="966" y="1145" on="0"/>
        <pt x="816" y="1217" on="0"/>
        <pt x="652" y="1217" on="0"/>
        <pt x="652" y="1157" on="1"/>
        <pt x="652" y="1050" on="0"/>
        <pt x="657" y="938" on="1"/>
        <pt x="659" y="885" on="1"/>
        <pt x="661" y="847" on="0"/>
        <pt x="703" y="840" on="1"/>
        <pt x="752" y="846" on="1"/>
        <pt x="904" y="864" on="0"/>
      </contour>
    </TTGlyph>
    <TTGlyph name="C" xMin="49" yMin="-65" xMax="1538" yMax="1538">
      <contour>
        <pt x="49" y="797" on="1"/>
        <pt x="73" y="1025" on="0"/>
        <pt x="129" y="1140" on="1"/>
        <pt x="236" y="1362" on="0"/>
        <pt x="448" y="1455" on="1"/>
        <pt x="637" y="1538" on="0"/>
        <pt x="859" y="1538" on="1"/>
        <pt x="1231" y="1538" on="0"/>
        <pt x="1402" y="1334" on="1"/>
        <pt x="1505" y="1213" on="0"/>
        <pt x="1521" y="1033" on="1"/>
        <pt x="1530" y="939" on="1"/>
        <pt x="1513" y="923" on="0"/>
        <pt x="1315" y="923" on="1"/>
        <pt x="1156" y="925" on="1"/>
        <pt x="1143" y="925" on="1"/>
        <pt x="1056" y="927" on="1"/>
        <pt x="1032" y="926" on="1"/>
        <pt x="1012" y="926" on="1"/>
        <pt x="984" y="926" on="0"/>
        <pt x="955" y="1090" on="0"/>
        <pt x="896" y="1143" on="0"/>
        <pt x="818" y="1143" on="0"/>
        <pt x="759" y="1115" on="0"/>
        <pt x="721" y="1076" on="0"/>
        <pt x="708" y="1040" on="1"/>
        <pt x="684" y="978" on="0"/>
        <pt x="674" y="839" on="0"/>
        <pt x="674" y="753" on="1"/>
        <pt x="674" y="729" on="1"/>
        <pt x="670" y="628" on="1"/>
        <pt x="670" y="352" on="0"/>
        <pt x="826" y="346" on="1"/>
        <pt x="866" y="346" on="0"/>
        <pt x="882" y="360" on="1"/>
        <pt x="925" y="398" on="0"/>
        <pt x="957" y="513" on="1"/>
        <pt x="964" y="537" on="0"/>
        <pt x="974" y="552" on="1"/>
        <pt x="1012" y="552" on="1"/>
        <pt x="1058" y="551" on="1"/>
        <pt x="1220" y="551" on="1"/>
        <pt x="1269" y="552" on="1"/>
        <pt x="1364" y="551" on="1"/>
        <pt x="1422" y="551" on="1"/>
        <pt x="1481" y="550" on="1"/>
        <pt x="1521" y="550" on="1"/>
        <pt x="1533" y="549" on="0"/>
        <pt x="1538" y="529" on="1"/>
        <pt x="1535" y="496" on="1"/>
        <pt x="1526" y="378" on="0"/>
        <pt x="1480" y="282" on="1"/>
        <pt x="1395" y="106" on="0"/>
        <pt x="1030" y="-65" on="0"/>
        <pt x="812" y="-65" on="1"/>
        <pt x="431" y="-65" on="0"/>
        <pt x="49" y="385" on="0"/>
      </contour>
    </TTGlyph>
    <TTGlyph name="Ccedilla" xMin="49" yMin="-535" xMax="1538" yMax="1538">
      <component glyphName="C" x="0" y="0" flags="0x1004"/>
      <component glyphName="cedilla" x="476" y="0" flags="0x1004"/>
    </TTGlyph>
    <TTGlyph name="D" xMin="115" yMin="-33" xMax="1625" yMax="1515">
      <contour>
        <pt x="514" y="1512" on="1"/>
        <pt x="701" y="1515" on="1"/>
        <pt x="1190" y="1515" on="0"/>
        <pt x="1388" y="1353" on="1"/>
        <pt x="1430" y="1322" on="0"/>
        <pt x="1480" y="1249" on="1"/>
        <pt x="1625" y="1038" on="0"/>
        <pt x="1625" y="783" on="1"/>
        <pt x="1625" y="328" on="0"/>
        <pt x="1312" y="110" on="1"/>
        <pt x="1125" y="-21" on="0"/>
        <pt x="882" y="-23" on="1"/>
        <pt x="878" y="-27" on="1"/>
        <pt x="853" y="-27" on="1"/>
        <pt x="587" y="-24" on="1"/>
        <pt x="406" y="-24" on="0"/>
        <pt x="134" y="-33" on="1"/>
        <pt x="115" y="3" on="0"/>
        <pt x="115" y="52" on="1"/>
        <pt x="116" y="88" on="1"/>
        <pt x="116" y="244" on="1"/>
        <pt x="118" y="466" on="1"/>
        <pt x="118" y="832" on="1"/>
        <pt x="116" y="958" on="0"/>
        <pt x="116" y="1020" on="1"/>
        <pt x="116" y="1184" on="1"/>
        <pt x="117" y="1207" on="1"/>
        <pt x="117" y="1493" on="1"/>
        <pt x="117" y="1501" on="0"/>
        <pt x="335" y="1512" on="0"/>
        <pt x="400" y="1512" on="1"/>
      </contour>
      <contour>
        <pt x="938" y="1166" on="1"/>
        <pt x="881" y="1207" on="0"/>
        <pt x="812" y="1212" on="1"/>
        <pt x="788" y="1213" on="0"/>
        <pt x="705" y="1215" on="0"/>
        <pt x="686" y="1216" on="1"/>
        <pt x="668" y="1189" on="0"/>
        <pt x="662" y="1176" on="1"/>
        <pt x="644" y="1139" on="1"/>
        <pt x="644" y="1083" on="1"/>
        <pt x="644" y="910" on="0"/>
        <pt x="652" y="614" on="1"/>
        <pt x="658" y="325" on="1"/>
        <pt x="664" y="294" on="0"/>
        <pt x="698" y="288" on="1"/>
        <pt x="801" y="290" on="0"/>
        <pt x="857" y="302" on="1"/>
        <pt x="1054" y="372" on="0"/>
        <pt x="1054" y="781" on="1"/>
        <pt x="1054" y="1084" on="0"/>
      </contour>
    </TTGlyph>
    <TTGlyph name="E" xMin="107" yMin="-32" xMax="1294" yMax="1512">
      <contour>
        <pt x="114" y="1238" on="1"/>
        <pt x="109" y="1501" on="1"/>
        <pt x="110" y="1501" on="0"/>
        <pt x="116" y="1498" on="1"/>
        <pt x="876" y="1511" on="0"/>
        <pt x="1261" y="1512" on="1"/>
        <pt x="1265" y="1510" on="0"/>
        <pt x="1267" y="1506" on="1"/>
        <pt x="1267" y="1224" on="1"/>
        <pt x="1267" y="1183" on="0"/>
        <pt x="1265" y="1157" on="1"/>
        <pt x="1260" y="1141" on="0"/>
        <pt x="1206" y="1141" on="1"/>
        <pt x="1199" y="1141" on="1"/>
        <pt x="957" y="1141" on="0"/>
        <pt x="695" y="1149" on="1"/>
        <pt x="695" y="1140" on="0"/>
        <pt x="690" y="1094" on="0"/>
        <pt x="689" y="1084" on="1"/>
        <pt x="684" y="1046" on="1"/>
        <pt x="679" y="1008" on="0"/>
        <pt x="677" y="914" on="1"/>
        <pt x="987" y="921" on="1"/>
        <pt x="1067" y="923" on="0"/>
        <pt x="1103" y="923" on="1"/>
        <pt x="1119" y="923" on="1"/>
        <pt x="1180" y="923" on="0"/>
        <pt x="1218" y="916" on="0"/>
        <pt x="1218" y="899" on="1"/>
        <pt x="1217" y="891" on="1"/>
        <pt x="1217" y="867" on="1"/>
        <pt x="1222" y="610" on="1"/>
        <pt x="1221" y="609" on="1"/>
        <pt x="1221" y="610" on="1"/>
        <pt x="917" y="595" on="0"/>
        <pt x="735" y="595" on="1"/>
        <pt x="688" y="595" on="1"/>
        <pt x="688" y="353" on="1"/>
        <pt x="1231" y="370" on="1"/>
        <pt x="1276" y="370" on="0"/>
        <pt x="1288" y="357" on="1"/>
        <pt x="1287" y="331" on="0"/>
        <pt x="1287" y="283" on="1"/>
        <pt x="1294" y="11" on="1"/>
        <pt x="1294" y="-14" on="0"/>
        <pt x="1272" y="-18" on="1"/>
        <pt x="940" y="-15" on="1"/>
        <pt x="842" y="-15" on="0"/>
        <pt x="550" y="-22" on="1"/>
        <pt x="386" y="-26" on="1"/>
        <pt x="212" y="-32" on="0"/>
        <pt x="128" y="-32" on="1"/>
        <pt x="125" y="-30" on="1"/>
        <pt x="126" y="-30" on="1"/>
        <pt x="116" y="-20" on="0"/>
        <pt x="107" y="-11" on="1"/>
        <pt x="107" y="24" on="1"/>
        <pt x="113" y="1093" on="1"/>
      </contour>
    </TTGlyph>
    <TTGlyph name="Eacute" xMin="107" yMin="-32" xMax="1294" yMax="2257">
      <contour>
        <pt x="114" y="1238" on="1"/>
        <pt x="109" y="1501" on="1"/>
        <pt x="110" y="1501" on="0"/>
        <pt x="116" y="1498" on="1"/>
        <pt x="876" y="1511" on="0"/>
        <pt x="1261" y="1512" on="1"/>
        <pt x="1265" y="1510" on="0"/>
        <pt x="1267" y="1506" on="1"/>
        <pt x="1267" y="1224" on="1"/>
        <pt x="1267" y="1183" on="0"/>
        <pt x="1265" y="1157" on="1"/>
        <pt x="1260" y="1141" on="0"/>
        <pt x="1206" y="1141" on="1"/>
        <pt x="1199" y="1141" on="1"/>
        <pt x="957" y="1141" on="0"/>
        <pt x="695" y="1149" on="1"/>
        <pt x="695" y="1140" on="0"/>
        <pt x="690" y="1094" on="0"/>
        <pt x="689" y="1084" on="1"/>
        <pt x="684" y="1046" on="1"/>
        <pt x="679" y="1008" on="0"/>
        <pt x="677" y="914" on="1"/>
        <pt x="987" y="921" on="1"/>
        <pt x="1067" y="923" on="0"/>
        <pt x="1103" y="923" on="1"/>
        <pt x="1119" y="923" on="1"/>
        <pt x="1180" y="923" on="0"/>
        <pt x="1218" y="916" on="0"/>
        <pt x="1218" y="899" on="1"/>
        <pt x="1217" y="891" on="1"/>
        <pt x="1217" y="867" on="1"/>
        <pt x="1222" y="610" on="1"/>
        <pt x="1221" y="609" on="1"/>
        <pt x="1221" y="610" on="1"/>
        <pt x="917" y="595" on="0"/>
        <pt x="735" y="595" on="1"/>
        <pt x="688" y="595" on="1"/>
        <pt x="688" y="353" on="1"/>
        <pt x="1231" y="370" on="1"/>
        <pt x="1276" y="370" on="0"/>
        <pt x="1288" y="357" on="1"/>
        <pt x="1287" y="331" on="0"/>
        <pt x="1287" y="283" on="1"/>
        <pt x="1294" y="11" on="1"/>
        <pt x="1294" y="-14" on="0"/>
        <pt x="1272" y="-18" on="1"/>
        <pt x="940" y="-15" on="1"/>
        <pt x="842" y="-15" on="0"/>
        <pt x="550" y="-22" on="1"/>
        <pt x="386" y="-26" on="1"/>
        <pt x="212" y="-32" on="0"/>
        <pt x="128" y="-32" on="1"/>
        <pt x="125" y="-30" on="1"/>
        <pt x="126" y="-30" on="1"/>
        <pt x="116" y="-20" on="0"/>
        <pt x="107" y="-11" on="1"/>
        <pt x="107" y="24" on="1"/>
        <pt x="113" y="1093" on="1"/>
      </contour>
      <contour>
        <pt x="397" y="1873" on="1"/>
        <pt x="381" y="1872" on="1"/>
        <pt x="332" y="1872" on="1"/>
        <pt x="317" y="1901" on="1"/>
        <pt x="485" y="2187" on="1"/>
        <pt x="528" y="2250" on="0"/>
        <pt x="534" y="2257" on="1"/>
        <pt x="604" y="2257" on="1"/>
        <pt x="1022" y="2247" on="1"/>
        <pt x="1022" y="2244" on="1"/>
        <pt x="982" y="2198" on="0"/>
        <pt x="800" y="1995" on="0"/>
        <pt x="714" y="1897" on="0"/>
        <pt x="651" y="1877" on="0"/>
        <pt x="580" y="1876" on="1"/>
      </contour>
    </TTGlyph>
    <TTGlyph name="Ecircumflex" xMin="107" yMin="-32" xMax="1294" yMax="2052">
      <component glyphName="E" x="0" y="0" flags="0x1004"/>
      <component glyphName="circumflex" x="322" y="274" flags="0x1004"/>
    </TTGlyph>
    <TTGlyph name="Edieresis" xMin="107" yMin="-32" xMax="1294" yMax="2043">
      <contour>
        <pt x="114" y="1238" on="1"/>
        <pt x="109" y="1501" on="1"/>
        <pt x="110" y="1501" on="0"/>
        <pt x="116" y="1498" on="1"/>
        <pt x="876" y="1511" on="0"/>
        <pt x="1261" y="1512" on="1"/>
        <pt x="1265" y="1510" on="0"/>
        <pt x="1267" y="1506" on="1"/>
        <pt x="1267" y="1224" on="1"/>
        <pt x="1267" y="1183" on="0"/>
        <pt x="1265" y="1157" on="1"/>
        <pt x="1260" y="1141" on="0"/>
        <pt x="1206" y="1141" on="1"/>
        <pt x="1199" y="1141" on="1"/>
        <pt x="957" y="1141" on="0"/>
        <pt x="695" y="1149" on="1"/>
        <pt x="695" y="1140" on="0"/>
        <pt x="690" y="1094" on="0"/>
        <pt x="689" y="1084" on="1"/>
        <pt x="684" y="1046" on="1"/>
        <pt x="679" y="1008" on="0"/>
        <pt x="677" y="914" on="1"/>
        <pt x="987" y="921" on="1"/>
        <pt x="1067" y="923" on="0"/>
        <pt x="1103" y="923" on="1"/>
        <pt x="1119" y="923" on="1"/>
        <pt x="1180" y="923" on="0"/>
        <pt x="1218" y="916" on="0"/>
        <pt x="1218" y="899" on="1"/>
        <pt x="1217" y="891" on="1"/>
        <pt x="1217" y="867" on="1"/>
        <pt x="1222" y="610" on="1"/>
        <pt x="1221" y="609" on="1"/>
        <pt x="1221" y="610" on="1"/>
        <pt x="917" y="595" on="0"/>
        <pt x="735" y="595" on="1"/>
        <pt x="688" y="595" on="1"/>
        <pt x="688" y="353" on="1"/>
        <pt x="1231" y="370" on="1"/>
        <pt x="1276" y="370" on="0"/>
        <pt x="1288" y="357" on="1"/>
        <pt x="1287" y="331" on="0"/>
        <pt x="1287" y="283" on="1"/>
        <pt x="1294" y="11" on="1"/>
        <pt x="1294" y="-14" on="0"/>
        <pt x="1272" y="-18" on="1"/>
        <pt x="940" y="-15" on="1"/>
        <pt x="842" y="-15" on="0"/>
        <pt x="550" y="-22" on="1"/>
        <pt x="386" y="-26" on="1"/>
        <pt x="212" y="-32" on="0"/>
        <pt x="128" y="-32" on="1"/>
        <pt x="125" y="-30" on="1"/>
        <pt x="126" y="-30" on="1"/>
        <pt x="116" y="-20" on="0"/>
        <pt x="107" y="-11" on="1"/>
        <pt x="107" y="24" on="1"/>
        <pt x="113" y="1093" on="1"/>
      </contour>
      <contour>
        <pt x="920" y="2040" on="1"/>
        <pt x="1090" y="2043" on="1"/>
        <pt x="1151" y="2043" on="0"/>
        <pt x="1154" y="2035" on="1"/>
        <pt x="1159" y="1883" on="0"/>
        <pt x="1161" y="1693" on="1"/>
        <pt x="1158" y="1687" on="0"/>
        <pt x="1158" y="1683" on="1"/>
        <pt x="1151" y="1684" on="1"/>
        <pt x="818" y="1670" on="1"/>
        <pt x="792" y="1699" on="1"/>
        <pt x="792" y="1784" on="0"/>
        <pt x="804" y="2031" on="0"/>
        <pt x="816" y="2043" on="1"/>
        <pt x="871" y="2040" on="0"/>
      </contour>
      <contour>
        <pt x="792" y="1698" on="1"/>
        <pt x="792" y="1699" on="1"/>
      </contour>
      <contour>
        <pt x="1157" y="1682" on="1"/>
        <pt x="1171" y="1681" on="1"/>
        <pt x="1171" y="1664" on="0"/>
        <pt x="1157" y="1664" on="1"/>
        <pt x="1151" y="1664" on="0"/>
        <pt x="1147" y="1668" on="1"/>
      </contour>
      <contour>
        <pt x="587" y="1971" on="1"/>
        <pt x="589" y="1873" on="1"/>
        <pt x="589" y="1842" on="1"/>
        <pt x="589" y="1733" on="0"/>
        <pt x="590" y="1686" on="1"/>
        <pt x="580" y="1675" on="0"/>
        <pt x="509" y="1675" on="1"/>
        <pt x="488" y="1676" on="1"/>
        <pt x="437" y="1676" on="1"/>
        <pt x="250" y="1669" on="1"/>
        <pt x="229" y="1700" on="0"/>
        <pt x="226" y="1704" on="1"/>
        <pt x="226" y="2018" on="0"/>
        <pt x="248" y="2043" on="1"/>
        <pt x="284" y="2042" on="0"/>
        <pt x="517" y="2041" on="0"/>
        <pt x="581" y="2039" on="1"/>
        <pt x="588" y="2037" on="0"/>
        <pt x="588" y="2014" on="1"/>
        <pt x="587" y="2003" on="1"/>
      </contour>
    </TTGlyph>
    <TTGlyph name="Egrave" xMin="107" yMin="-32" xMax="1294" yMax="2074">
      <component glyphName="E" x="0" y="0" flags="0x1004"/>
      <component glyphName="grave" x="376" y="255" flags="0x1004"/>
    </TTGlyph>
    <TTGlyph name="Eth" xMin="-51" yMin="-33" xMax="1622" yMax="1515">
      <contour>
        <pt x="513" y="1512" on="1"/>
        <pt x="698" y="1515" on="1"/>
        <pt x="1191" y="1515" on="0"/>
        <pt x="1385" y="1353" on="1"/>
        <pt x="1394" y="1346" on="1"/>
        <pt x="1393" y="1346" on="1"/>
        <pt x="1547" y="1207" on="0"/>
        <pt x="1601" y="960" on="1"/>
        <pt x="1622" y="864" on="0"/>
        <pt x="1622" y="612" on="0"/>
        <pt x="1582" y="486" on="1"/>
        <pt x="1509" y="249" on="0"/>
        <pt x="1123" y="-21" on="0"/>
        <pt x="879" y="-23" on="1"/>
        <pt x="875" y="-27" on="1"/>
        <pt x="850" y="-27" on="1"/>
        <pt x="586" y="-24" on="1"/>
        <pt x="405" y="-24" on="0"/>
        <pt x="133" y="-33" on="1"/>
        <pt x="112" y="0" on="0"/>
        <pt x="112" y="45" on="1"/>
        <pt x="113" y="88" on="1"/>
        <pt x="113" y="244" on="1"/>
        <pt x="115" y="466" on="1"/>
        <pt x="115" y="634" on="1"/>
        <pt x="90" y="633" on="0"/>
        <pt x="-27" y="633" on="1"/>
        <pt x="-32" y="635" on="0"/>
        <pt x="-51" y="648" on="1"/>
        <pt x="-50" y="662" on="1"/>
        <pt x="-50" y="678" on="1"/>
        <pt x="-48" y="760" on="1"/>
        <pt x="-48" y="771" on="1"/>
        <pt x="-50" y="812" on="1"/>
        <pt x="-50" y="857" on="0"/>
        <pt x="-35" y="857" on="1"/>
        <pt x="114" y="857" on="1"/>
        <pt x="113" y="904" on="0"/>
        <pt x="113" y="1020" on="1"/>
        <pt x="113" y="1184" on="1"/>
        <pt x="114" y="1207" on="1"/>
        <pt x="114" y="1493" on="1"/>
        <pt x="114" y="1501" on="0"/>
        <pt x="333" y="1512" on="0"/>
        <pt x="397" y="1512" on="1"/>
      </contour>
      <contour>
        <pt x="652" y="467" on="1"/>
        <pt x="651" y="400" on="1"/>
        <pt x="651" y="294" on="0"/>
        <pt x="695" y="288" on="1"/>
        <pt x="799" y="290" on="0"/>
        <pt x="854" y="302" on="1"/>
        <pt x="1053" y="371" on="0"/>
        <pt x="1053" y="781" on="1"/>
        <pt x="1053" y="950" on="0"/>
        <pt x="1032" y="1010" on="1"/>
        <pt x="993" y="1126" on="0"/>
        <pt x="929" y="1173" on="1"/>
        <pt x="875" y="1207" on="0"/>
        <pt x="783" y="1213" on="0"/>
        <pt x="704" y="1215" on="0"/>
        <pt x="685" y="1216" on="1"/>
        <pt x="667" y="1190" on="0"/>
        <pt x="661" y="1177" on="1"/>
        <pt x="641" y="1140" on="1"/>
        <pt x="641" y="1083" on="1"/>
        <pt x="641" y="1005" on="0"/>
        <pt x="643" y="893" on="1"/>
        <pt x="643" y="858" on="1"/>
        <pt x="693" y="858" on="1"/>
        <pt x="735" y="857" on="1"/>
        <pt x="801" y="857" on="1"/>
        <pt x="817" y="844" on="0"/>
        <pt x="817" y="756" on="1"/>
        <pt x="816" y="728" on="1"/>
        <pt x="816" y="676" on="1"/>
        <pt x="816" y="645" on="0"/>
        <pt x="788" y="645" on="1"/>
        <pt x="770" y="646" on="1"/>
        <pt x="649" y="646" on="1"/>
      </contour>
    </TTGlyph>
    <TTGlyph name="Euro" xMin="4" yMin="-69" xMax="1485" yMax="1521">
      <contour>
        <pt x="1018" y="785" on="1"/>
        <pt x="822" y="780" on="1"/>
        <pt x="761" y="780" on="0"/>
        <pt x="679" y="782" on="1"/>
        <pt x="679" y="679" on="1"/>
        <pt x="775" y="686" on="0"/>
        <pt x="822" y="686" on="1"/>
        <pt x="838" y="685" on="1"/>
        <pt x="890" y="685" on="1"/>
        <pt x="925" y="685" on="0"/>
        <pt x="977" y="687" on="1"/>
        <pt x="989" y="685" on="0"/>
        <pt x="989" y="676" on="1"/>
        <pt x="989" y="675" on="0"/>
        <pt x="988" y="674" on="1"/>
        <pt x="933" y="464" on="1"/>
        <pt x="694" y="464" on="1"/>
        <pt x="754" y="282" on="0"/>
        <pt x="838" y="242" on="1"/>
        <pt x="875" y="242" on="0"/>
        <pt x="888" y="264" on="1"/>
        <pt x="919" y="312" on="0"/>
        <pt x="927" y="419" on="1"/>
        <pt x="957" y="446" on="1"/>
        <pt x="1466" y="438" on="1"/>
        <pt x="1479" y="435" on="0"/>
        <pt x="1485" y="420" on="1"/>
        <pt x="1474" y="328" on="0"/>
        <pt x="1446" y="224" on="0"/>
        <pt x="1409" y="176" on="1"/>
        <pt x="1261" y="-52" on="0"/>
        <pt x="830" y="-69" on="1"/>
        <pt x="671" y="-61" on="0"/>
        <pt x="617" y="-43" on="1"/>
        <pt x="617" y="-44" on="1"/>
        <pt x="556" y="-22" on="1"/>
        <pt x="514" y="-9" on="0"/>
        <pt x="452" y="32" on="1"/>
        <pt x="260" y="130" on="0"/>
        <pt x="158" y="473" on="1"/>
        <pt x="79" y="473" on="1"/>
        <pt x="46" y="472" on="1"/>
        <pt x="6" y="472" on="0"/>
        <pt x="4" y="482" on="1"/>
        <pt x="16" y="528" on="1"/>
        <pt x="51" y="662" on="0"/>
        <pt x="67" y="678" on="1"/>
        <pt x="131" y="678" on="1"/>
        <pt x="132" y="713" on="1"/>
        <pt x="132" y="787" on="1"/>
        <pt x="55" y="787" on="1"/>
        <pt x="14" y="787" on="0"/>
        <pt x="6" y="792" on="1"/>
        <pt x="62" y="986" on="1"/>
        <pt x="63" y="988" on="0"/>
        <pt x="64" y="988" on="1"/>
        <pt x="164" y="991" on="1"/>
        <pt x="224" y="1223" on="0"/>
        <pt x="382" y="1370" on="1"/>
        <pt x="466" y="1448" on="0"/>
        <pt x="567" y="1479" on="1"/>
        <pt x="567" y="1478" on="1"/>
        <pt x="625" y="1497" on="1"/>
        <pt x="724" y="1521" on="0"/>
        <pt x="1025" y="1521" on="0"/>
        <pt x="1272" y="1436" on="0"/>
        <pt x="1370" y="1326" on="1"/>
        <pt x="1433" y="1278" on="0"/>
        <pt x="1452" y="1198" on="1"/>
        <pt x="1470" y="1109" on="1"/>
        <pt x="1465" y="1106" on="0"/>
        <pt x="1465" y="1104" on="1"/>
        <pt x="997" y="1104" on="1"/>
        <pt x="989" y="1110" on="0"/>
        <pt x="940" y="1165" on="0"/>
        <pt x="887" y="1189" on="0"/>
        <pt x="806" y="1189" on="0"/>
        <pt x="753" y="1166" on="0"/>
        <pt x="738" y="1152" on="1"/>
        <pt x="707" y="1123" on="0"/>
        <pt x="684" y="1029" on="1"/>
        <pt x="682" y="994" on="1"/>
        <pt x="879" y="994" on="1"/>
        <pt x="1065" y="995" on="1"/>
        <pt x="1074" y="994" on="0"/>
        <pt x="1075" y="984" on="1"/>
      </contour>
      <contour>
        <pt x="957" y="446" on="1"/>
        <pt x="929" y="447" on="1"/>
        <pt x="933" y="464" on="1"/>
        <pt x="952" y="465" on="0"/>
        <pt x="978" y="465" on="1"/>
      </contour>
      <contour>
        <pt x="1022" y="789" on="1"/>
        <pt x="1043" y="821" on="1"/>
        <pt x="1043" y="783" on="1"/>
        <pt x="1021" y="785" on="1"/>
        <pt x="1021" y="788" on="0"/>
      </contour>
    </TTGlyph>
    <TTGlyph name="F" xMin="113" yMin="-33" xMax="1270" yMax="1514">
      <contour>
        <pt x="1270" y="1463" on="1"/>
        <pt x="1269" y="1370" on="1"/>
        <pt x="1269" y="1233" on="0"/>
        <pt x="1265" y="1126" on="1"/>
        <pt x="1148" y="1116" on="0"/>
        <pt x="945" y="1116" on="1"/>
        <pt x="714" y="1115" on="1"/>
        <pt x="714" y="1086" on="1"/>
        <pt x="712" y="998" on="1"/>
        <pt x="712" y="963" on="0"/>
        <pt x="715" y="930" on="1"/>
        <pt x="965" y="951" on="0"/>
        <pt x="1206" y="951" on="0"/>
        <pt x="1233" y="933" on="1"/>
        <pt x="1233" y="598" on="1"/>
        <pt x="1233" y="565" on="0"/>
        <pt x="1207" y="543" on="0"/>
        <pt x="1180" y="543" on="1"/>
        <pt x="1167" y="543" on="1"/>
        <pt x="1113" y="545" on="1"/>
        <pt x="934" y="535" on="0"/>
        <pt x="716" y="530" on="1"/>
        <pt x="723" y="132" on="1"/>
        <pt x="722" y="98" on="1"/>
        <pt x="722" y="4" on="1"/>
        <pt x="722" y="-26" on="0"/>
        <pt x="704" y="-28" on="1"/>
        <pt x="132" y="-33" on="1"/>
        <pt x="130" y="-27" on="0"/>
        <pt x="117" y="-6" on="1"/>
        <pt x="113" y="60" on="0"/>
        <pt x="113" y="106" on="1"/>
        <pt x="119" y="1497" on="1"/>
        <pt x="119" y="1510" on="0"/>
        <pt x="255" y="1510" on="1"/>
        <pt x="280" y="1509" on="1"/>
        <pt x="348" y="1509" on="1"/>
        <pt x="831" y="1514" on="1"/>
        <pt x="1174" y="1510" on="1"/>
        <pt x="1208" y="1510" on="1"/>
        <pt x="1223" y="1511" on="1"/>
        <pt x="1251" y="1511" on="0"/>
        <pt x="1270" y="1486" on="0"/>
      </contour>
    </TTGlyph>
    <TTGlyph name="G" xMin="52" yMin="-62" xMax="1625" yMax="1539">
      <contour>
        <pt x="1613" y="58" on="1"/>
        <pt x="1613" y="57" on="0"/>
        <pt x="1614" y="54" on="1"/>
        <pt x="1611" y="46" on="1"/>
        <pt x="1612" y="46" on="1"/>
        <pt x="1612" y="44" on="1"/>
        <pt x="1612" y="42" on="0"/>
        <pt x="1611" y="41" on="1"/>
        <pt x="1564" y="5" on="0"/>
        <pt x="1199" y="-55" on="0"/>
        <pt x="1062" y="-55" on="0"/>
        <pt x="1054" y="-54" on="1"/>
        <pt x="1003" y="-57" on="1"/>
        <pt x="923" y="-62" on="0"/>
        <pt x="911" y="-62" on="1"/>
        <pt x="491" y="-62" on="0"/>
        <pt x="52" y="360" on="0"/>
        <pt x="52" y="1137" on="0"/>
        <pt x="525" y="1539" on="0"/>
        <pt x="929" y="1539" on="1"/>
        <pt x="1003" y="1539" on="0"/>
        <pt x="1220" y="1511" on="0"/>
        <pt x="1302" y="1484" on="1"/>
        <pt x="1402" y="1443" on="0"/>
        <pt x="1545" y="1288" on="0"/>
        <pt x="1567" y="1194" on="1"/>
        <pt x="1571" y="1168" on="0"/>
        <pt x="1582" y="1057" on="0"/>
        <pt x="1586" y="1031" on="1"/>
        <pt x="1580" y="1016" on="0"/>
        <pt x="1543" y="1016" on="1"/>
        <pt x="1035" y="1025" on="1"/>
        <pt x="1031" y="1027" on="0"/>
        <pt x="1025" y="1052" on="1"/>
        <pt x="1025" y="1049" on="1"/>
        <pt x="1007" y="1130" on="0"/>
        <pt x="954" y="1148" on="1"/>
        <pt x="930" y="1157" on="0"/>
        <pt x="852" y="1157" on="0"/>
        <pt x="783" y="1131" on="0"/>
        <pt x="737" y="1085" on="0"/>
        <pt x="701" y="1024" on="0"/>
        <pt x="683" y="954" on="0"/>
        <pt x="669" y="880" on="0"/>
        <pt x="666" y="808" on="0"/>
        <pt x="663" y="742" on="0"/>
        <pt x="665" y="699" on="0"/>
        <pt x="665" y="692" on="1"/>
        <pt x="665" y="623" on="1"/>
        <pt x="665" y="558" on="0"/>
        <pt x="677" y="507" on="0"/>
        <pt x="693" y="446" on="0"/>
        <pt x="704" y="430" on="1"/>
        <pt x="743" y="375" on="0"/>
        <pt x="834" y="332" on="0"/>
        <pt x="1027" y="332" on="0"/>
        <pt x="1114" y="361" on="1"/>
        <pt x="1119" y="519" on="1"/>
        <pt x="1047" y="525" on="1"/>
        <pt x="1037" y="520" on="1"/>
        <pt x="933" y="520" on="1"/>
        <pt x="921" y="519" on="1"/>
        <pt x="896" y="545" on="1"/>
        <pt x="894" y="562" on="0"/>
        <pt x="894" y="599" on="1"/>
        <pt x="894" y="823" on="1"/>
        <pt x="894" y="840" on="0"/>
        <pt x="918" y="857" on="1"/>
        <pt x="985" y="857" on="1"/>
        <pt x="1072" y="857" on="0"/>
        <pt x="1180" y="855" on="1"/>
        <pt x="1190" y="855" on="1"/>
        <pt x="1288" y="853" on="0"/>
        <pt x="1339" y="853" on="1"/>
        <pt x="1399" y="853" on="1"/>
        <pt x="1422" y="854" on="1"/>
        <pt x="1600" y="854" on="0"/>
        <pt x="1625" y="831" on="1"/>
        <pt x="1613" y="72" on="1"/>
      </contour>
    </TTGlyph>
    <TTGlyph name="H" xMin="102" yMin="-33" xMax="1565" yMax="1520">
      <contour>
        <pt x="1564" y="342" on="1"/>
        <pt x="1563" y="223" on="1"/>
        <pt x="1563" y="148" on="0"/>
        <pt x="1565" y="-14" on="1"/>
        <pt x="1551" y="-33" on="0"/>
        <pt x="1135" y="-33" on="0"/>
        <pt x="971" y="-27" on="1"/>
        <pt x="969" y="-25" on="0"/>
        <pt x="952" y="-2" on="1"/>
        <pt x="952" y="158" on="1"/>
        <pt x="954" y="465" on="1"/>
        <pt x="954" y="510" on="0"/>
        <pt x="934" y="526" on="0"/>
        <pt x="883" y="526" on="1"/>
        <pt x="869" y="526" on="1"/>
        <pt x="774" y="526" on="0"/>
        <pt x="719" y="517" on="1"/>
        <pt x="719" y="377" on="1"/>
        <pt x="717" y="-10" on="1"/>
        <pt x="702" y="-26" on="0"/>
        <pt x="466" y="-26" on="1"/>
        <pt x="418" y="-26" on="1"/>
        <pt x="214" y="-26" on="0"/>
        <pt x="121" y="-20" on="1"/>
        <pt x="102" y="-14" on="0"/>
        <pt x="102" y="122" on="1"/>
        <pt x="108" y="343" on="1"/>
        <pt x="118" y="1239" on="1"/>
        <pt x="118" y="1287" on="1"/>
        <pt x="119" y="1302" on="0"/>
        <pt x="119" y="1481" on="0"/>
        <pt x="130" y="1505" on="1"/>
        <pt x="135" y="1505" on="1"/>
        <pt x="201" y="1503" on="0"/>
        <pt x="232" y="1503" on="1"/>
        <pt x="344" y="1503" on="1"/>
        <pt x="465" y="1505" on="1"/>
        <pt x="503" y="1505" on="1"/>
        <pt x="673" y="1505" on="0"/>
        <pt x="701" y="1466" on="1"/>
        <pt x="715" y="1446" on="0"/>
        <pt x="715" y="1405" on="1"/>
        <pt x="712" y="1280" on="1"/>
        <pt x="712" y="1233" on="1"/>
        <pt x="706" y="1035" on="1"/>
        <pt x="706" y="1013" on="0"/>
        <pt x="709" y="977" on="1"/>
        <pt x="771" y="977" on="1"/>
        <pt x="796" y="976" on="1"/>
        <pt x="876" y="976" on="1"/>
        <pt x="920" y="976" on="0"/>
        <pt x="966" y="983" on="1"/>
        <pt x="966" y="1220" on="1"/>
        <pt x="967" y="1294" on="1"/>
        <pt x="967" y="1363" on="1"/>
        <pt x="966" y="1379" on="1"/>
        <pt x="966" y="1430" on="1"/>
        <pt x="966" y="1489" on="0"/>
        <pt x="977" y="1515" on="0"/>
        <pt x="1000" y="1515" on="1"/>
        <pt x="1020" y="1514" on="1"/>
        <pt x="1085" y="1514" on="1"/>
        <pt x="1301" y="1520" on="1"/>
        <pt x="1559" y="1520" on="0"/>
        <pt x="1559" y="1479" on="1"/>
        <pt x="1559" y="1408" on="1"/>
        <pt x="1560" y="1384" on="1"/>
        <pt x="1559" y="1332" on="1"/>
        <pt x="1559" y="1177" on="1"/>
        <pt x="1564" y="539" on="1"/>
        <pt x="1564" y="523" on="0"/>
        <pt x="1562" y="497" on="1"/>
        <pt x="1562" y="449" on="1"/>
        <pt x="1562" y="417" on="0"/>
        <pt x="1564" y="365" on="1"/>
      </contour>
    </TTGlyph>
    <TTGlyph name="I" xMin="99" yMin="-35" xMax="737" yMax="1512">
      <contour>
        <pt x="103" y="107" on="1"/>
        <pt x="103" y="310" on="0"/>
        <pt x="114" y="389" on="1"/>
        <pt x="114" y="824" on="0"/>
        <pt x="126" y="1266" on="1"/>
        <pt x="123" y="1329" on="0"/>
        <pt x="123" y="1393" on="1"/>
        <pt x="123" y="1426" on="1"/>
        <pt x="119" y="1457" on="0"/>
        <pt x="119" y="1505" on="0"/>
        <pt x="124" y="1512" on="1"/>
        <pt x="338" y="1499" on="0"/>
        <pt x="660" y="1499" on="0"/>
        <pt x="720" y="1505" on="1"/>
        <pt x="722" y="1502" on="0"/>
        <pt x="723" y="1488" on="1"/>
        <pt x="716" y="1488" on="1"/>
        <pt x="716" y="1126" on="1"/>
        <pt x="723" y="312" on="1"/>
        <pt x="723" y="303" on="0"/>
        <pt x="726" y="297" on="1"/>
        <pt x="726" y="295" on="1"/>
        <pt x="729" y="289" on="0"/>
        <pt x="729" y="282" on="1"/>
        <pt x="737" y="-9" on="1"/>
        <pt x="732" y="-20" on="0"/>
        <pt x="719" y="-26" on="1"/>
        <pt x="685" y="-26" on="1"/>
        <pt x="125" y="-35" on="1"/>
        <pt x="115" y="-30" on="0"/>
        <pt x="99" y="-20" on="1"/>
        <pt x="100" y="-3" on="1"/>
      </contour>
    </TTGlyph>
    <TTGlyph name="Iacute" xMin="98" yMin="-35" xMax="881" yMax="2055">
      <contour>
        <pt x="102" y="107" on="1"/>
        <pt x="102" y="310" on="0"/>
        <pt x="113" y="389" on="1"/>
        <pt x="113" y="824" on="0"/>
        <pt x="125" y="1266" on="1"/>
        <pt x="122" y="1329" on="0"/>
        <pt x="122" y="1393" on="1"/>
        <pt x="122" y="1426" on="1"/>
        <pt x="118" y="1457" on="0"/>
        <pt x="118" y="1505" on="0"/>
        <pt x="123" y="1512" on="1"/>
        <pt x="337" y="1499" on="0"/>
        <pt x="659" y="1499" on="0"/>
        <pt x="719" y="1505" on="1"/>
        <pt x="721" y="1502" on="0"/>
        <pt x="722" y="1488" on="1"/>
        <pt x="715" y="1488" on="1"/>
        <pt x="715" y="1126" on="1"/>
        <pt x="722" y="312" on="1"/>
        <pt x="722" y="303" on="0"/>
        <pt x="725" y="297" on="1"/>
        <pt x="725" y="295" on="1"/>
        <pt x="728" y="289" on="0"/>
        <pt x="728" y="282" on="1"/>
        <pt x="736" y="-9" on="1"/>
        <pt x="731" y="-20" on="0"/>
        <pt x="718" y="-26" on="1"/>
        <pt x="684" y="-26" on="1"/>
        <pt x="124" y="-35" on="1"/>
        <pt x="114" y="-30" on="0"/>
        <pt x="98" y="-20" on="1"/>
        <pt x="99" y="-3" on="1"/>
      </contour>
      <contour>
        <pt x="256" y="1671" on="1"/>
        <pt x="240" y="1670" on="1"/>
        <pt x="191" y="1670" on="1"/>
        <pt x="176" y="1699" on="1"/>
        <pt x="344" y="1985" on="1"/>
        <pt x="387" y="2048" on="0"/>
        <pt x="393" y="2055" on="1"/>
        <pt x="463" y="2055" on="1"/>
        <pt x="881" y="2045" on="1"/>
        <pt x="881" y="2042" on="1"/>
        <pt x="841" y="1996" on="0"/>
        <pt x="659" y="1793" on="0"/>
        <pt x="573" y="1695" on="0"/>
        <pt x="510" y="1675" on="0"/>
        <pt x="439" y="1674" on="1"/>
      </contour>
    </TTGlyph>
    <TTGlyph name="Icircumflex" xMin="-4" yMin="-35" xMax="978" yMax="2055">
      <contour>
        <pt x="100" y="107" on="1"/>
        <pt x="100" y="310" on="0"/>
        <pt x="111" y="389" on="1"/>
        <pt x="111" y="824" on="0"/>
        <pt x="123" y="1266" on="1"/>
        <pt x="120" y="1329" on="0"/>
        <pt x="120" y="1393" on="1"/>
        <pt x="120" y="1426" on="1"/>
        <pt x="116" y="1457" on="0"/>
        <pt x="116" y="1505" on="0"/>
        <pt x="121" y="1512" on="1"/>
        <pt x="335" y="1499" on="0"/>
        <pt x="657" y="1499" on="0"/>
        <pt x="717" y="1505" on="1"/>
        <pt x="719" y="1502" on="0"/>
        <pt x="720" y="1488" on="1"/>
        <pt x="713" y="1488" on="1"/>
        <pt x="713" y="1126" on="1"/>
        <pt x="720" y="312" on="1"/>
        <pt x="720" y="303" on="0"/>
        <pt x="723" y="297" on="1"/>
        <pt x="723" y="295" on="1"/>
        <pt x="726" y="289" on="0"/>
        <pt x="726" y="282" on="1"/>
        <pt x="734" y="-9" on="1"/>
        <pt x="729" y="-20" on="0"/>
        <pt x="716" y="-26" on="1"/>
        <pt x="682" y="-26" on="1"/>
        <pt x="122" y="-35" on="1"/>
        <pt x="112" y="-30" on="0"/>
        <pt x="96" y="-20" on="1"/>
        <pt x="97" y="-3" on="1"/>
      </contour>
      <contour>
        <pt x="878" y="1683" on="1"/>
        <pt x="583" y="1676" on="1"/>
        <pt x="552" y="1694" on="0"/>
        <pt x="526" y="1748" on="1"/>
        <pt x="521" y="1759" on="0"/>
        <pt x="519" y="1762" on="1"/>
        <pt x="489" y="1822" on="1"/>
        <pt x="473" y="1807" on="0"/>
        <pt x="427" y="1737" on="0"/>
        <pt x="391" y="1687" on="0"/>
        <pt x="380" y="1687" on="1"/>
        <pt x="102" y="1687" on="1"/>
        <pt x="53" y="1684" on="1"/>
        <pt x="-4" y="1684" on="0"/>
        <pt x="-4" y="1696" on="1"/>
        <pt x="-4" y="1698" on="0"/>
        <pt x="-3" y="1702" on="1"/>
        <pt x="65" y="1807" on="0"/>
        <pt x="178" y="1955" on="1"/>
        <pt x="200" y="1990" on="1"/>
        <pt x="225" y="2031" on="0"/>
        <pt x="319" y="2048" on="0"/>
        <pt x="541" y="2052" on="1"/>
        <pt x="718" y="2055" on="1"/>
        <pt x="736" y="2046" on="0"/>
        <pt x="770" y="1996" on="0"/>
        <pt x="780" y="1983" on="0"/>
        <pt x="797" y="1957" on="0"/>
        <pt x="801" y="1952" on="1"/>
        <pt x="801" y="1953" on="1"/>
        <pt x="863" y="1861" on="1"/>
        <pt x="875" y="1843" on="0"/>
        <pt x="910" y="1796" on="1"/>
        <pt x="930" y="1768" on="1"/>
        <pt x="935" y="1760" on="0"/>
        <pt x="946" y="1746" on="1"/>
        <pt x="962" y="1724" on="1"/>
        <pt x="978" y="1703" on="0"/>
        <pt x="978" y="1682" on="0"/>
        <pt x="951" y="1682" on="1"/>
        <pt x="940" y="1683" on="1"/>
      </contour>
    </TTGlyph>
    <TTGlyph name="Idieresis" xMin="4" yMin="-35" xMax="949" yMax="2050">
      <contour>
        <pt x="94" y="107" on="1"/>
        <pt x="94" y="310" on="0"/>
        <pt x="105" y="389" on="1"/>
        <pt x="105" y="824" on="0"/>
        <pt x="117" y="1266" on="1"/>
        <pt x="114" y="1329" on="0"/>
        <pt x="114" y="1393" on="1"/>
        <pt x="114" y="1426" on="1"/>
        <pt x="110" y="1457" on="0"/>
        <pt x="110" y="1505" on="0"/>
        <pt x="115" y="1512" on="1"/>
        <pt x="329" y="1499" on="0"/>
        <pt x="651" y="1499" on="0"/>
        <pt x="711" y="1505" on="1"/>
        <pt x="713" y="1502" on="0"/>
        <pt x="714" y="1488" on="1"/>
        <pt x="707" y="1488" on="1"/>
        <pt x="707" y="1126" on="1"/>
        <pt x="714" y="312" on="1"/>
        <pt x="714" y="303" on="0"/>
        <pt x="717" y="297" on="1"/>
        <pt x="717" y="295" on="1"/>
        <pt x="720" y="289" on="0"/>
        <pt x="720" y="282" on="1"/>
        <pt x="728" y="-9" on="1"/>
        <pt x="723" y="-20" on="0"/>
        <pt x="710" y="-26" on="1"/>
        <pt x="676" y="-26" on="1"/>
        <pt x="116" y="-35" on="1"/>
        <pt x="106" y="-30" on="0"/>
        <pt x="90" y="-20" on="1"/>
        <pt x="91" y="-3" on="1"/>
      </contour>
      <contour>
        <pt x="698" y="2047" on="1"/>
        <pt x="868" y="2050" on="1"/>
        <pt x="929" y="2050" on="0"/>
        <pt x="932" y="2042" on="1"/>
        <pt x="937" y="1890" on="0"/>
        <pt x="939" y="1700" on="1"/>
        <pt x="936" y="1694" on="0"/>
        <pt x="936" y="1690" on="1"/>
        <pt x="929" y="1691" on="1"/>
        <pt x="596" y="1677" on="1"/>
        <pt x="570" y="1706" on="1"/>
        <pt x="570" y="1791" on="0"/>
        <pt x="582" y="2038" on="0"/>
        <pt x="594" y="2050" on="1"/>
        <pt x="649" y="2047" on="0"/>
      </contour>
      <contour>
        <pt x="570" y="1705" on="1"/>
        <pt x="570" y="1706" on="1"/>
      </contour>
      <contour>
        <pt x="935" y="1689" on="1"/>
        <pt x="949" y="1688" on="1"/>
        <pt x="949" y="1671" on="0"/>
        <pt x="935" y="1671" on="1"/>
        <pt x="929" y="1671" on="0"/>
        <pt x="925" y="1675" on="1"/>
      </contour>
      <contour>
        <pt x="365" y="1978" on="1"/>
        <pt x="367" y="1880" on="1"/>
        <pt x="367" y="1849" on="1"/>
        <pt x="367" y="1740" on="0"/>
        <pt x="368" y="1693" on="1"/>
        <pt x="358" y="1682" on="0"/>
        <pt x="287" y="1682" on="1"/>
        <pt x="266" y="1683" on="1"/>
        <pt x="215" y="1683" on="1"/>
        <pt x="28" y="1676" on="1"/>
        <pt x="7" y="1707" on="0"/>
        <pt x="4" y="1711" on="1"/>
        <pt x="4" y="2025" on="0"/>
        <pt x="26" y="2050" on="1"/>
        <pt x="62" y="2049" on="0"/>
        <pt x="295" y="2048" on="0"/>
        <pt x="359" y="2046" on="1"/>
        <pt x="366" y="2044" on="0"/>
        <pt x="366" y="2021" on="1"/>
        <pt x="365" y="2010" on="1"/>
      </contour>
    </TTGlyph>
    <TTGlyph name="Igrave" xMin="50" yMin="-35" xMax="760" yMax="2071">
      <contour>
        <pt x="98" y="107" on="1"/>
        <pt x="98" y="310" on="0"/>
        <pt x="109" y="389" on="1"/>
        <pt x="109" y="824" on="0"/>
        <pt x="121" y="1266" on="1"/>
        <pt x="118" y="1329" on="0"/>
        <pt x="118" y="1393" on="1"/>
        <pt x="118" y="1426" on="1"/>
        <pt x="114" y="1457" on="0"/>
        <pt x="114" y="1505" on="0"/>
        <pt x="119" y="1512" on="1"/>
        <pt x="333" y="1499" on="0"/>
        <pt x="655" y="1499" on="0"/>
        <pt x="715" y="1505" on="1"/>
        <pt x="717" y="1502" on="0"/>
        <pt x="718" y="1488" on="1"/>
        <pt x="711" y="1488" on="1"/>
        <pt x="711" y="1126" on="1"/>
        <pt x="718" y="312" on="1"/>
        <pt x="718" y="303" on="0"/>
        <pt x="721" y="297" on="1"/>
        <pt x="721" y="295" on="1"/>
        <pt x="724" y="289" on="0"/>
        <pt x="724" y="282" on="1"/>
        <pt x="732" y="-9" on="1"/>
        <pt x="727" y="-20" on="0"/>
        <pt x="714" y="-26" on="1"/>
        <pt x="680" y="-26" on="1"/>
        <pt x="120" y="-35" on="1"/>
        <pt x="110" y="-30" on="0"/>
        <pt x="94" y="-20" on="1"/>
        <pt x="95" y="-3" on="1"/>
      </contour>
      <contour>
        <pt x="529" y="2053" on="1"/>
        <pt x="535" y="2054" on="1"/>
        <pt x="557" y="2038" on="0"/>
        <pt x="720" y="1763" on="0"/>
        <pt x="760" y="1706" on="0"/>
        <pt x="760" y="1682" on="0"/>
        <pt x="699" y="1682" on="1"/>
        <pt x="381" y="1682" on="1"/>
        <pt x="375" y="1680" on="1"/>
        <pt x="374" y="1680" on="0"/>
        <pt x="372" y="1678" on="1"/>
        <pt x="370" y="1680" on="0"/>
        <pt x="336" y="1722" on="1"/>
        <pt x="336" y="1721" on="1"/>
        <pt x="305" y="1759" on="1"/>
        <pt x="216" y="1866" on="0"/>
        <pt x="50" y="2033" on="0"/>
        <pt x="50" y="2058" on="1"/>
        <pt x="50" y="2064" on="0"/>
        <pt x="59" y="2071" on="1"/>
        <pt x="264" y="2053" on="0"/>
        <pt x="499" y="2053" on="1"/>
      </contour>
    </TTGlyph>
    <TTGlyph name="J" xMin="-11" yMin="-58" xMax="1300" yMax="1510">
      <contour>
        <pt x="130" y="497" on="1"/>
        <pt x="250" y="496" on="1"/>
        <pt x="285" y="496" on="1"/>
        <pt x="298" y="497" on="1"/>
        <pt x="467" y="494" on="1"/>
        <pt x="512" y="491" on="0"/>
        <pt x="517" y="438" on="1"/>
        <pt x="519" y="417" on="0"/>
        <pt x="522" y="396" on="1"/>
        <pt x="529" y="346" on="0"/>
        <pt x="660" y="346" on="0"/>
        <pt x="678" y="408" on="1"/>
        <pt x="691" y="456" on="0"/>
        <pt x="691" y="522" on="1"/>
        <pt x="691" y="548" on="1"/>
        <pt x="688" y="548" on="1"/>
        <pt x="684" y="690" on="1"/>
        <pt x="680" y="829" on="0"/>
        <pt x="680" y="1373" on="0"/>
        <pt x="684" y="1495" on="1"/>
        <pt x="683" y="1496" on="1"/>
        <pt x="683" y="1504" on="0"/>
        <pt x="689" y="1508" on="1"/>
        <pt x="702" y="1510" on="1"/>
        <pt x="751" y="1509" on="1"/>
        <pt x="1117" y="1509" on="1"/>
        <pt x="1190" y="1510" on="1"/>
        <pt x="1288" y="1510" on="1"/>
        <pt x="1296" y="1510" on="0"/>
        <pt x="1300" y="1501" on="1"/>
        <pt x="1298" y="1479" on="0"/>
        <pt x="1298" y="1434" on="1"/>
        <pt x="1298" y="1418" on="1"/>
        <pt x="1297" y="1401" on="1"/>
        <pt x="1295" y="1350" on="1"/>
        <pt x="1288" y="1160" on="0"/>
        <pt x="1288" y="786" on="1"/>
        <pt x="1288" y="676" on="1"/>
        <pt x="1288" y="535" on="0"/>
        <pt x="1286" y="346" on="0"/>
        <pt x="1195" y="157" on="0"/>
        <pt x="1058" y="44" on="0"/>
        <pt x="968" y="7" on="1"/>
        <pt x="809" y="-58" on="0"/>
        <pt x="463" y="-58" on="0"/>
        <pt x="347" y="-23" on="1"/>
        <pt x="244" y="3" on="0"/>
        <pt x="109" y="110" on="0"/>
        <pt x="72" y="158" on="1"/>
        <pt x="-10" y="266" on="0"/>
        <pt x="-10" y="424" on="1"/>
        <pt x="-10" y="450" on="1"/>
        <pt x="-11" y="462" on="1"/>
        <pt x="-11" y="501" on="0"/>
        <pt x="1" y="501" on="1"/>
      </contour>
    </TTGlyph>
    <TTGlyph name="K" xMin="110" yMin="-33" xMax="1692" yMax="1515">
      <contour>
        <pt x="115" y="1360" on="1"/>
        <pt x="112" y="1446" on="1"/>
        <pt x="112" y="1501" on="0"/>
        <pt x="123" y="1514" on="1"/>
        <pt x="150" y="1515" on="0"/>
        <pt x="301" y="1515" on="0"/>
        <pt x="356" y="1514" on="1"/>
        <pt x="497" y="1512" on="1"/>
        <pt x="536" y="1515" on="0"/>
        <pt x="684" y="1515" on="0"/>
        <pt x="704" y="1495" on="1"/>
        <pt x="699" y="1251" on="0"/>
        <pt x="699" y="915" on="1"/>
        <pt x="734" y="909" on="1"/>
        <pt x="749" y="948" on="0"/>
        <pt x="828" y="1104" on="0"/>
        <pt x="834" y="1117" on="1"/>
        <pt x="845" y="1141" on="1"/>
        <pt x="849" y="1150" on="0"/>
        <pt x="914" y="1287" on="0"/>
        <pt x="982" y="1458" on="0"/>
        <pt x="1021" y="1507" on="1"/>
        <pt x="1091" y="1508" on="0"/>
        <pt x="1292" y="1508" on="0"/>
        <pt x="1560" y="1501" on="0"/>
        <pt x="1627" y="1501" on="1"/>
        <pt x="1342" y="986" on="0"/>
        <pt x="1222" y="788" on="1"/>
        <pt x="1245" y="751" on="1"/>
        <pt x="1286" y="700" on="0"/>
        <pt x="1562" y="220" on="0"/>
        <pt x="1624" y="119" on="1"/>
        <pt x="1648" y="80" on="1"/>
        <pt x="1692" y="7" on="0"/>
        <pt x="1692" y="-13" on="0"/>
        <pt x="1686" y="-21" on="1"/>
        <pt x="1680" y="-21" on="1"/>
        <pt x="1624" y="-19" on="0"/>
        <pt x="1555" y="-19" on="0"/>
        <pt x="1499" y="-21" on="1"/>
        <pt x="1050" y="-21" on="1"/>
        <pt x="896" y="267" on="0"/>
        <pt x="730" y="604" on="1"/>
        <pt x="722" y="524" on="0"/>
        <pt x="706" y="226" on="1"/>
        <pt x="706" y="213" on="1"/>
        <pt x="708" y="-14" on="1"/>
        <pt x="696" y="-32" on="0"/>
        <pt x="603" y="-32" on="1"/>
        <pt x="582" y="-31" on="1"/>
        <pt x="528" y="-31" on="1"/>
        <pt x="245" y="-33" on="1"/>
        <pt x="153" y="-33" on="1"/>
        <pt x="125" y="-33" on="0"/>
        <pt x="113" y="-12" on="1"/>
        <pt x="110" y="-9" on="1"/>
        <pt x="110" y="143" on="1"/>
        <pt x="112" y="300" on="1"/>
        <pt x="112" y="865" on="1"/>
      </contour>
    </TTGlyph>
    <TTGlyph name="L" xMin="116" yMin="-34" xMax="1270" yMax="1519">
      <contour>
        <pt x="1270" y="384" on="1"/>
        <pt x="1263" y="356" on="0"/>
        <pt x="1263" y="324" on="1"/>
        <pt x="1263" y="301" on="1"/>
        <pt x="1263" y="248" on="0"/>
        <pt x="1270" y="225" on="1"/>
        <pt x="1270" y="74" on="0"/>
        <pt x="1269" y="-8" on="1"/>
        <pt x="1263" y="-34" on="0"/>
        <pt x="282" y="-34" on="1"/>
        <pt x="237" y="-34" on="0"/>
        <pt x="133" y="-32" on="1"/>
        <pt x="117" y="-2" on="0"/>
        <pt x="117" y="67" on="1"/>
        <pt x="119" y="132" on="1"/>
        <pt x="119" y="359" on="1"/>
        <pt x="120" y="549" on="1"/>
        <pt x="120" y="737" on="1"/>
        <pt x="121" y="1040" on="1"/>
        <pt x="121" y="1124" on="0"/>
        <pt x="119" y="1198" on="1"/>
        <pt x="119" y="1209" on="1"/>
        <pt x="116" y="1353" on="1"/>
        <pt x="116" y="1480" on="0"/>
        <pt x="137" y="1518" on="1"/>
        <pt x="157" y="1517" on="0"/>
        <pt x="192" y="1517" on="1"/>
        <pt x="240" y="1517" on="1"/>
        <pt x="408" y="1519" on="1"/>
        <pt x="695" y="1519" on="0"/>
        <pt x="724" y="1483" on="1"/>
        <pt x="716" y="1134" on="1"/>
        <pt x="713" y="841" on="1"/>
        <pt x="712" y="829" on="1"/>
        <pt x="708" y="413" on="1"/>
        <pt x="748" y="390" on="1"/>
        <pt x="929" y="401" on="0"/>
        <pt x="1268" y="401" on="0"/>
      </contour>
    </TTGlyph>
    <TTGlyph name="Lslash" xMin="-68" yMin="-34" xMax="1297" yMax="1519">
      <contour>
        <pt x="837" y="1130" on="1"/>
        <pt x="918" y="1159" on="0"/>
        <pt x="934" y="1159" on="1"/>
        <pt x="984" y="1055" on="0"/>
        <pt x="1008" y="974" on="0"/>
        <pt x="1021" y="943" on="0"/>
        <pt x="1021" y="928" on="0"/>
        <pt x="1010" y="923" on="1"/>
        <pt x="716" y="817" on="1"/>
        <pt x="707" y="791" on="1"/>
        <pt x="707" y="413" on="1"/>
        <pt x="749" y="390" on="1"/>
        <pt x="930" y="401" on="0"/>
        <pt x="1269" y="401" on="0"/>
        <pt x="1271" y="384" on="1"/>
        <pt x="1264" y="356" on="0"/>
        <pt x="1264" y="324" on="1"/>
        <pt x="1264" y="301" on="1"/>
        <pt x="1264" y="248" on="0"/>
        <pt x="1271" y="225" on="1"/>
        <pt x="1271" y="73" on="0"/>
        <pt x="1270" y="-8" on="1"/>
        <pt x="1264" y="-34" on="0"/>
        <pt x="283" y="-34" on="1"/>
        <pt x="234" y="-34" on="0"/>
        <pt x="134" y="-32" on="1"/>
        <pt x="117" y="0" on="0"/>
        <pt x="117" y="67" on="1"/>
        <pt x="120" y="132" on="1"/>
        <pt x="120" y="591" on="1"/>
        <pt x="99" y="589" on="1"/>
        <pt x="92" y="588" on="0"/>
        <pt x="67" y="577" on="1"/>
        <pt x="29" y="562" on="1"/>
        <pt x="16" y="564" on="0"/>
        <pt x="0" y="573" on="1"/>
        <pt x="-24" y="650" on="1"/>
        <pt x="-39" y="683" on="1"/>
        <pt x="-68" y="770" on="0"/>
        <pt x="-68" y="803" on="0"/>
        <pt x="-60" y="810" on="0"/>
        <pt x="-44" y="817" on="0"/>
        <pt x="-32" y="822" on="0"/>
        <pt x="-10" y="829" on="0"/>
        <pt x="-7" y="830" on="1"/>
        <pt x="19" y="839" on="1"/>
        <pt x="18" y="838" on="1"/>
        <pt x="121" y="872" on="1"/>
        <pt x="121" y="1070" on="1"/>
        <pt x="122" y="1118" on="1"/>
        <pt x="122" y="1134" on="0"/>
        <pt x="120" y="1198" on="1"/>
        <pt x="120" y="1209" on="1"/>
        <pt x="115" y="1353" on="1"/>
        <pt x="115" y="1472" on="0"/>
        <pt x="138" y="1518" on="1"/>
        <pt x="157" y="1517" on="0"/>
        <pt x="193" y="1517" on="1"/>
        <pt x="239" y="1517" on="1"/>
        <pt x="407" y="1519" on="1"/>
        <pt x="694" y="1519" on="0"/>
        <pt x="725" y="1482" on="1"/>
        <pt x="716" y="1134" on="1"/>
        <pt x="716" y="1086" on="1"/>
        <pt x="838" y="1131" on="1"/>
      </contour>
      <contour>
        <pt x="1270" y="380" on="1"/>
        <pt x="1280" y="397" on="0"/>
        <pt x="1290" y="397" on="1"/>
        <pt x="1297" y="380" on="1"/>
        <pt x="1287" y="372" on="1"/>
        <pt x="1286" y="372" on="1"/>
      </contour>
    </TTGlyph>
    <TTGlyph name="M" xMin="130" yMin="-34" xMax="2131" yMax="1514">
      <contour>
        <pt x="631" y="860" on="1"/>
        <pt x="619" y="577" on="0"/>
        <pt x="619" y="278" on="1"/>
        <pt x="619" y="-20" on="1"/>
        <pt x="546" y="-20" on="1"/>
        <pt x="521" y="-19" on="1"/>
        <pt x="166" y="-22" on="1"/>
        <pt x="132" y="-22" on="0"/>
        <pt x="130" y="-23" on="1"/>
        <pt x="130" y="-22" on="0"/>
        <pt x="134" y="-6" on="1"/>
        <pt x="134" y="0" on="1"/>
        <pt x="135" y="4" on="1"/>
        <pt x="130" y="76" on="0"/>
        <pt x="130" y="179" on="1"/>
        <pt x="134" y="1296" on="1"/>
        <pt x="133" y="1348" on="1"/>
        <pt x="133" y="1398" on="1"/>
        <pt x="131" y="1492" on="1"/>
        <pt x="131" y="1502" on="0"/>
        <pt x="142" y="1513" on="1"/>
        <pt x="279" y="1513" on="1"/>
        <pt x="359" y="1514" on="1"/>
        <pt x="641" y="1514" on="0"/>
        <pt x="884" y="1498" on="0"/>
        <pt x="937" y="1498" on="1"/>
        <pt x="966" y="1326" on="0"/>
        <pt x="1023" y="1042" on="1"/>
        <pt x="1094" y="684" on="1"/>
        <pt x="1129" y="684" on="1"/>
        <pt x="1257" y="1338" on="1"/>
        <pt x="1260" y="1353" on="0"/>
        <pt x="1282" y="1498" on="0"/>
        <pt x="1288" y="1506" on="1"/>
        <pt x="1292" y="1506" on="1"/>
        <pt x="1943" y="1512" on="1"/>
        <pt x="1982" y="1511" on="1"/>
        <pt x="2094" y="1511" on="1"/>
        <pt x="2103" y="1507" on="0"/>
        <pt x="2104" y="1474" on="1"/>
        <pt x="2114" y="1096" on="1"/>
        <pt x="2126" y="626" on="0"/>
        <pt x="2131" y="364" on="1"/>
        <pt x="2131" y="162" on="0"/>
        <pt x="2125" y="-15" on="1"/>
        <pt x="2122" y="-27" on="0"/>
        <pt x="2085" y="-29" on="1"/>
        <pt x="2040" y="-31" on="1"/>
        <pt x="1986" y="-33" on="0"/>
        <pt x="1960" y="-33" on="1"/>
        <pt x="1908" y="-33" on="1"/>
        <pt x="1811" y="-34" on="0"/>
        <pt x="1622" y="-34" on="1"/>
        <pt x="1587" y="-3" on="0"/>
        <pt x="1587" y="234" on="1"/>
        <pt x="1589" y="548" on="1"/>
        <pt x="1589" y="629" on="1"/>
        <pt x="1589" y="736" on="0"/>
        <pt x="1588" y="787" on="1"/>
        <pt x="1550" y="794" on="1"/>
        <pt x="1517" y="673" on="0"/>
        <pt x="1423" y="255" on="1"/>
        <pt x="1414" y="215" on="1"/>
        <pt x="1407" y="184" on="0"/>
        <pt x="1374" y="25" on="0"/>
        <pt x="1364" y="-16" on="1"/>
        <pt x="1352" y="-30" on="0"/>
        <pt x="1258" y="-30" on="1"/>
        <pt x="1245" y="-30" on="1"/>
        <pt x="1133" y="-27" on="1"/>
        <pt x="1072" y="-28" on="1"/>
        <pt x="1025" y="-28" on="1"/>
        <pt x="946" y="-29" on="1"/>
        <pt x="918" y="-29" on="1"/>
        <pt x="872" y="-29" on="0"/>
        <pt x="867" y="-8" on="1"/>
        <pt x="868" y="-9" on="1"/>
        <pt x="777" y="388" on="1"/>
        <pt x="773" y="403" on="0"/>
        <pt x="745" y="504" on="0"/>
        <pt x="743" y="538" on="1"/>
        <pt x="668" y="862" on="1"/>
      </contour>
    </TTGlyph>
    <TTGlyph name="N" xMin="90" yMin="-34" xMax="1629" yMax="1511">
      <contour>
        <pt x="1627" y="700" on="1"/>
        <pt x="1626" y="633" on="1"/>
        <pt x="1626" y="263" on="1"/>
        <pt x="1628" y="87" on="1"/>
        <pt x="1628" y="37" on="1"/>
        <pt x="1629" y="-10" on="1"/>
        <pt x="1623" y="-18" on="0"/>
        <pt x="1580" y="-18" on="1"/>
        <pt x="1554" y="-18" on="1"/>
        <pt x="1240" y="-22" on="1"/>
        <pt x="1040" y="-22" on="0"/>
        <pt x="942" y="-21" on="1"/>
        <pt x="927" y="-5" on="0"/>
        <pt x="833" y="270" on="1"/>
        <pt x="642" y="777" on="1"/>
        <pt x="606" y="772" on="1"/>
        <pt x="605" y="670" on="1"/>
        <pt x="605" y="399" on="1"/>
        <pt x="609" y="128" on="1"/>
        <pt x="609" y="16" on="1"/>
        <pt x="609" y="-29" on="0"/>
        <pt x="589" y="-31" on="1"/>
        <pt x="490" y="-28" on="0"/>
        <pt x="400" y="-28" on="1"/>
        <pt x="369" y="-28" on="1"/>
        <pt x="218" y="-32" on="1"/>
        <pt x="198" y="-32" on="1"/>
        <pt x="126" y="-34" on="1"/>
        <pt x="123" y="-32" on="1"/>
        <pt x="90" y="-1" on="0"/>
        <pt x="90" y="13" on="1"/>
        <pt x="90" y="31" on="1"/>
        <pt x="91" y="51" on="1"/>
        <pt x="96" y="441" on="1"/>
        <pt x="96" y="1083" on="0"/>
        <pt x="108" y="1412" on="1"/>
        <pt x="110" y="1495" on="1"/>
        <pt x="110" y="1504" on="0"/>
        <pt x="799" y="1511" on="1"/>
        <pt x="805" y="1507" on="0"/>
        <pt x="817" y="1467" on="1"/>
        <pt x="817" y="1470" on="1"/>
        <pt x="823" y="1450" on="1"/>
        <pt x="897" y="1238" on="0"/>
        <pt x="1109" y="689" on="0"/>
        <pt x="1111" y="683" on="1"/>
        <pt x="1145" y="685" on="1"/>
        <pt x="1149" y="1500" on="1"/>
        <pt x="1149" y="1508" on="0"/>
        <pt x="1295" y="1508" on="1"/>
        <pt x="1546" y="1503" on="1"/>
        <pt x="1620" y="1503" on="1"/>
        <pt x="1627" y="1172" on="0"/>
      </contour>
    </TTGlyph>
    <TTGlyph name="Ntilde" xMin="90" yMin="-34" xMax="1629" yMax="2238">
      <component glyphName="N" x="0" y="0" flags="0x1004"/>
      <component glyphName="tilde" x="526" y="463" flags="0x1004"/>
    </TTGlyph>
    <TTGlyph name="O" xMin="35" yMin="-58" xMax="1608" yMax="1552">
      <contour>
        <pt x="610" y="760" on="1"/>
        <pt x="610" y="759" on="0"/>
        <pt x="609" y="755" on="1"/>
        <pt x="609" y="752" on="1"/>
        <pt x="605" y="710" on="0"/>
        <pt x="605" y="606" on="0"/>
        <pt x="622" y="490" on="0"/>
        <pt x="661" y="374" on="0"/>
        <pt x="702" y="338" on="1"/>
        <pt x="746" y="300" on="0"/>
        <pt x="855" y="300" on="0"/>
        <pt x="930" y="331" on="0"/>
        <pt x="981" y="379" on="0"/>
        <pt x="1000" y="420" on="1"/>
        <pt x="1048" y="529" on="0"/>
        <pt x="1048" y="758" on="1"/>
        <pt x="1048" y="991" on="0"/>
        <pt x="941" y="1178" on="0"/>
        <pt x="833" y="1178" on="1"/>
        <pt x="779" y="1178" on="0"/>
        <pt x="698" y="1126" on="0"/>
        <pt x="657" y="1070" on="0"/>
        <pt x="614" y="888" on="0"/>
        <pt x="614" y="811" on="1"/>
      </contour>
      <contour>
        <pt x="35" y="752" on="1"/>
        <pt x="37" y="774" on="1"/>
        <pt x="49" y="899" on="0"/>
        <pt x="89" y="1092" on="0"/>
        <pt x="134" y="1176" on="1"/>
        <pt x="241" y="1361" on="0"/>
        <pt x="624" y="1552" on="0"/>
        <pt x="1067" y="1552" on="0"/>
        <pt x="1248" y="1463" on="1"/>
        <pt x="1356" y="1410" on="0"/>
        <pt x="1417" y="1329" on="1"/>
        <pt x="1534" y="1183" on="0"/>
        <pt x="1608" y="937" on="0"/>
        <pt x="1608" y="776" on="1"/>
        <pt x="1608" y="418" on="0"/>
        <pt x="1460" y="230" on="1"/>
        <pt x="1414" y="169" on="1"/>
        <pt x="1321" y="61" on="0"/>
        <pt x="981" y="-56" on="0"/>
        <pt x="814" y="-58" on="1"/>
        <pt x="528" y="-58" on="0"/>
        <pt x="345" y="62" on="1"/>
        <pt x="35" y="263" on="0"/>
      </contour>
    </TTGlyph>
    <TTGlyph name="OE" xMin="41" yMin="-25" xMax="1985" yMax="1512">
      <contour>
        <pt x="1043" y="-19" on="1"/>
        <pt x="833" y="-23" on="1"/>
        <pt x="586" y="-23" on="0"/>
        <pt x="433" y="56" on="1"/>
        <pt x="307" y="104" on="0"/>
        <pt x="216" y="210" on="1"/>
        <pt x="41" y="414" on="0"/>
        <pt x="41" y="714" on="1"/>
        <pt x="41" y="895" on="0"/>
        <pt x="76" y="1021" on="1"/>
        <pt x="182" y="1309" on="0"/>
        <pt x="335" y="1386" on="1"/>
        <pt x="437" y="1444" on="1"/>
        <pt x="435" y="1444" on="1"/>
        <pt x="626" y="1511" on="0"/>
        <pt x="873" y="1511" on="1"/>
        <pt x="969" y="1511" on="0"/>
        <pt x="1133" y="1494" on="1"/>
        <pt x="1965" y="1512" on="1"/>
        <pt x="1978" y="1510" on="0"/>
        <pt x="1980" y="1498" on="1"/>
        <pt x="1981" y="1433" on="0"/>
        <pt x="1985" y="1175" on="0"/>
        <pt x="1985" y="1112" on="1"/>
        <pt x="1957" y="1085" on="1"/>
        <pt x="1744" y="1090" on="0"/>
        <pt x="1513" y="1090" on="1"/>
        <pt x="1510" y="947" on="1"/>
        <pt x="1717" y="952" on="0"/>
        <pt x="1911" y="952" on="0"/>
        <pt x="1928" y="933" on="0"/>
        <pt x="1928" y="897" on="1"/>
        <pt x="1926" y="629" on="1"/>
        <pt x="1926" y="547" on="1"/>
        <pt x="1923" y="539" on="0"/>
        <pt x="1917" y="536" on="1"/>
        <pt x="1869" y="536" on="1"/>
        <pt x="1754" y="536" on="0"/>
        <pt x="1506" y="540" on="1"/>
        <pt x="1506" y="376" on="1"/>
        <pt x="1540" y="377" on="0"/>
        <pt x="1626" y="377" on="1"/>
        <pt x="1701" y="376" on="1"/>
        <pt x="1920" y="376" on="1"/>
        <pt x="1955" y="376" on="0"/>
        <pt x="1971" y="378" on="1"/>
        <pt x="1974" y="375" on="0"/>
        <pt x="1977" y="369" on="1"/>
        <pt x="1973" y="-10" on="1"/>
        <pt x="1971" y="-10" on="0"/>
        <pt x="1970" y="-9" on="1"/>
      </contour>
      <contour>
        <pt x="1971" y="-25" on="1"/>
        <pt x="1973" y="-19" on="1"/>
        <pt x="1973" y="-10" on="1"/>
        <pt x="1982" y="-15" on="1"/>
      </contour>
      <contour>
        <pt x="842" y="1187" on="1"/>
        <pt x="816" y="1189" on="1"/>
        <pt x="601" y="1189" on="0"/>
        <pt x="589" y="810" on="1"/>
        <pt x="589" y="798" on="0"/>
        <pt x="589" y="765" on="0"/>
        <pt x="591" y="715" on="0"/>
        <pt x="593" y="612" on="0"/>
        <pt x="595" y="520" on="0"/>
        <pt x="619" y="410" on="0"/>
        <pt x="663" y="331" on="0"/>
        <pt x="754" y="278" on="0"/>
        <pt x="878" y="278" on="0"/>
        <pt x="961" y="312" on="1"/>
        <pt x="981" y="351" on="1"/>
        <pt x="962" y="795" on="0"/>
        <pt x="962" y="1133" on="1"/>
        <pt x="960" y="1163" on="0"/>
        <pt x="850" y="1187" on="1"/>
      </contour>
      <contour>
        <pt x="845" y="383" on="1"/>
        <pt x="874" y="394" on="1"/>
        <pt x="885" y="361" on="1"/>
        <pt x="874" y="350" on="0"/>
        <pt x="853" y="350" on="1"/>
      </contour>
    </TTGlyph>
    <TTGlyph name="Oacute" xMin="35" yMin="-58" xMax="1608" yMax="2065">
      <contour>
        <pt x="610" y="760" on="1"/>
        <pt x="610" y="759" on="0"/>
        <pt x="609" y="755" on="1"/>
        <pt x="609" y="752" on="1"/>
        <pt x="605" y="710" on="0"/>
        <pt x="605" y="606" on="0"/>
        <pt x="622" y="490" on="0"/>
        <pt x="661" y="374" on="0"/>
        <pt x="702" y="338" on="1"/>
        <pt x="746" y="300" on="0"/>
        <pt x="855" y="300" on="0"/>
        <pt x="930" y="331" on="0"/>
        <pt x="981" y="379" on="0"/>
        <pt x="1000" y="420" on="1"/>
        <pt x="1048" y="529" on="0"/>
        <pt x="1048" y="758" on="1"/>
        <pt x="1048" y="991" on="0"/>
        <pt x="941" y="1178" on="0"/>
        <pt x="833" y="1178" on="1"/>
        <pt x="779" y="1178" on="0"/>
        <pt x="698" y="1126" on="0"/>
        <pt x="657" y="1070" on="0"/>
        <pt x="614" y="888" on="0"/>
        <pt x="614" y="811" on="1"/>
      </contour>
      <contour>
        <pt x="35" y="752" on="1"/>
        <pt x="37" y="774" on="1"/>
        <pt x="49" y="899" on="0"/>
        <pt x="89" y="1092" on="0"/>
        <pt x="134" y="1176" on="1"/>
        <pt x="241" y="1361" on="0"/>
        <pt x="624" y="1552" on="0"/>
        <pt x="1067" y="1552" on="0"/>
        <pt x="1248" y="1463" on="1"/>
        <pt x="1356" y="1410" on="0"/>
        <pt x="1417" y="1329" on="1"/>
        <pt x="1534" y="1183" on="0"/>
        <pt x="1608" y="937" on="0"/>
        <pt x="1608" y="776" on="1"/>
        <pt x="1608" y="418" on="0"/>
        <pt x="1460" y="230" on="1"/>
        <pt x="1414" y="169" on="1"/>
        <pt x="1321" y="61" on="0"/>
        <pt x="981" y="-56" on="0"/>
        <pt x="814" y="-58" on="1"/>
        <pt x="528" y="-58" on="0"/>
        <pt x="345" y="62" on="1"/>
        <pt x="35" y="263" on="0"/>
      </contour>
      <contour>
        <pt x="543" y="1681" on="1"/>
        <pt x="527" y="1680" on="1"/>
        <pt x="478" y="1680" on="1"/>
        <pt x="463" y="1709" on="1"/>
        <pt x="631" y="1995" on="1"/>
        <pt x="674" y="2058" on="0"/>
        <pt x="680" y="2065" on="1"/>
        <pt x="750" y="2065" on="1"/>
        <pt x="1168" y="2055" on="1"/>
        <pt x="1168" y="2052" on="1"/>
        <pt x="1128" y="2006" on="0"/>
        <pt x="946" y="1803" on="0"/>
        <pt x="860" y="1705" on="0"/>
        <pt x="797" y="1685" on="0"/>
        <pt x="726" y="1684" on="1"/>
      </contour>
    </TTGlyph>
    <TTGlyph name="Ocircumflex" xMin="35" yMin="-58" xMax="1608" yMax="2061">
      <component glyphName="O" x="0" y="0" flags="0x1004"/>
      <component glyphName="circumflex" x="473" y="283" flags="0x1004"/>
    </TTGlyph>
    <TTGlyph name="Odieresis" xMin="35" yMin="-58" xMax="1608" yMax="2276">
      <component glyphName="O" x="0" y="0" flags="0x1004"/>
      <component glyphName="dieresis" x="498" y="463" flags="0x1004"/>
    </TTGlyph>
    <TTGlyph name="Ograve" xMin="35" yMin="-58" xMax="1608" yMax="2086">
      <component glyphName="O" x="0" y="0" flags="0x1004"/>
      <component glyphName="grave" x="513" y="267" flags="0x1004"/>
    </TTGlyph>
    <TTGlyph name="Oslash" xMin="35" yMin="-184" xMax="1608" yMax="1638">
      <contour>
        <pt x="35" y="752" on="1"/>
        <pt x="37" y="774" on="1"/>
        <pt x="49" y="899" on="0"/>
        <pt x="89" y="1092" on="0"/>
        <pt x="134" y="1176" on="1"/>
        <pt x="241" y="1361" on="0"/>
        <pt x="624" y="1552" on="0"/>
        <pt x="1073" y="1552" on="0"/>
        <pt x="1268" y="1451" on="1"/>
        <pt x="1387" y="1638" on="1"/>
        <pt x="1384" y="1634" on="0"/>
        <pt x="1384" y="1632" on="1"/>
        <pt x="1387" y="1632" on="0"/>
        <pt x="1434" y="1614" on="0"/>
        <pt x="1434" y="1608" on="1"/>
        <pt x="1434" y="1588" on="0"/>
        <pt x="1320" y="1420" on="1"/>
        <pt x="1469" y="1310" on="0"/>
        <pt x="1608" y="968" on="0"/>
        <pt x="1608" y="776" on="1"/>
        <pt x="1608" y="418" on="0"/>
        <pt x="1460" y="230" on="1"/>
        <pt x="1414" y="169" on="1"/>
        <pt x="1321" y="61" on="0"/>
        <pt x="1151" y="2" on="1"/>
        <pt x="978" y="-57" on="0"/>
        <pt x="599" y="-57" on="0"/>
        <pt x="429" y="14" on="1"/>
        <pt x="388" y="-54" on="1"/>
        <pt x="312" y="-179" on="0"/>
        <pt x="286" y="-184" on="1"/>
        <pt x="267" y="-178" on="1"/>
        <pt x="263" y="-178" on="0"/>
        <pt x="247" y="-171" on="1"/>
        <pt x="279" y="-90" on="1"/>
        <pt x="364" y="46" on="1"/>
        <pt x="351" y="58" on="1"/>
        <pt x="35" y="263" on="0"/>
      </contour>
      <contour>
        <pt x="610" y="760" on="1"/>
        <pt x="610" y="759" on="0"/>
        <pt x="609" y="755" on="1"/>
        <pt x="609" y="752" on="1"/>
        <pt x="605" y="710" on="0"/>
        <pt x="605" y="582" on="0"/>
        <pt x="627" y="456" on="1"/>
        <pt x="1010" y="1052" on="1"/>
        <pt x="947" y="1178" on="0"/>
        <pt x="833" y="1178" on="1"/>
        <pt x="779" y="1178" on="0"/>
        <pt x="698" y="1126" on="0"/>
        <pt x="657" y="1070" on="0"/>
        <pt x="614" y="888" on="0"/>
        <pt x="614" y="811" on="1"/>
      </contour>
      <contour>
        <pt x="1037" y="969" on="1"/>
        <pt x="666" y="380" on="1"/>
        <pt x="720" y="304" on="0"/>
        <pt x="802" y="299" on="1"/>
        <pt x="945" y="299" on="0"/>
        <pt x="1048" y="529" on="0"/>
        <pt x="1048" y="788" on="1"/>
        <pt x="1048" y="847" on="0"/>
      </contour>
    </TTGlyph>
    <TTGlyph name="Otilde" xMin="35" yMin="-58" xMax="1608" yMax="2049">
      <contour>
        <pt x="610" y="760" on="1"/>
        <pt x="610" y="759" on="0"/>
        <pt x="609" y="755" on="1"/>
        <pt x="609" y="752" on="1"/>
        <pt x="605" y="710" on="0"/>
        <pt x="605" y="606" on="0"/>
        <pt x="622" y="490" on="0"/>
        <pt x="661" y="374" on="0"/>
        <pt x="702" y="338" on="1"/>
        <pt x="746" y="300" on="0"/>
        <pt x="855" y="300" on="0"/>
        <pt x="930" y="331" on="0"/>
        <pt x="981" y="379" on="0"/>
        <pt x="1000" y="420" on="1"/>
        <pt x="1048" y="529" on="0"/>
        <pt x="1048" y="758" on="1"/>
        <pt x="1048" y="991" on="0"/>
        <pt x="941" y="1178" on="0"/>
        <pt x="833" y="1178" on="1"/>
        <pt x="779" y="1178" on="0"/>
        <pt x="698" y="1126" on="0"/>
        <pt x="657" y="1070" on="0"/>
        <pt x="614" y="888" on="0"/>
        <pt x="614" y="811" on="1"/>
      </contour>
      <contour>
        <pt x="35" y="752" on="1"/>
        <pt x="37" y="774" on="1"/>
        <pt x="49" y="899" on="0"/>
        <pt x="89" y="1092" on="0"/>
        <pt x="134" y="1176" on="1"/>
        <pt x="241" y="1361" on="0"/>
        <pt x="624" y="1552" on="0"/>
        <pt x="1067" y="1552" on="0"/>
        <pt x="1248" y="1463" on="1"/>
        <pt x="1356" y="1410" on="0"/>
        <pt x="1417" y="1329" on="1"/>
        <pt x="1534" y="1183" on="0"/>
        <pt x="1608" y="937" on="0"/>
        <pt x="1608" y="776" on="1"/>
        <pt x="1608" y="418" on="0"/>
        <pt x="1460" y="230" on="1"/>
        <pt x="1414" y="169" on="1"/>
        <pt x="1321" y="61" on="0"/>
        <pt x="981" y="-56" on="0"/>
        <pt x="814" y="-58" on="1"/>
        <pt x="528" y="-58" on="0"/>
        <pt x="345" y="62" on="1"/>
        <pt x="35" y="263" on="0"/>
      </contour>
      <contour>
        <pt x="995" y="2025" on="1"/>
        <pt x="1018" y="2044" on="1"/>
        <pt x="1271" y="2037" on="1"/>
        <pt x="1274" y="2036" on="0"/>
        <pt x="1284" y="2022" on="1"/>
        <pt x="1262" y="1678" on="0"/>
        <pt x="1000" y="1678" on="1"/>
        <pt x="946" y="1678" on="0"/>
        <pt x="858" y="1699" on="1"/>
        <pt x="800" y="1717" on="1"/>
        <pt x="694" y="1750" on="0"/>
        <pt x="645" y="1750" on="0"/>
        <pt x="624" y="1741" on="0"/>
        <pt x="620" y="1717" on="0"/>
        <pt x="616" y="1690" on="0"/>
        <pt x="384" y="1690" on="1"/>
        <pt x="357" y="1690" on="1"/>
        <pt x="351" y="1696" on="0"/>
        <pt x="351" y="1708" on="1"/>
        <pt x="351" y="1880" on="0"/>
        <pt x="505" y="2049" on="0"/>
        <pt x="647" y="2049" on="1"/>
        <pt x="700" y="2049" on="0"/>
        <pt x="833" y="2012" on="1"/>
        <pt x="833" y="2013" on="1"/>
        <pt x="863" y="2002" on="0"/>
        <pt x="920" y="1987" on="1"/>
        <pt x="950" y="1981" on="1"/>
        <pt x="954" y="1981" on="0"/>
        <pt x="964" y="1971" on="1"/>
        <pt x="989" y="1999" on="1"/>
        <pt x="994" y="2016" on="0"/>
      </contour>
      <contour>
        <pt x="956" y="2019" on="1"/>
        <pt x="965" y="2029" on="1"/>
        <pt x="972" y="2012" on="1"/>
      </contour>
    </TTGlyph>
    <TTGlyph name="P" xMin="117" yMin="-34" xMax="1531" yMax="1506">
      <contour>
        <pt x="117" y="661" on="1"/>
        <pt x="119" y="1072" on="1"/>
        <pt x="119" y="1489" on="1"/>
        <pt x="121" y="1490" on="0"/>
        <pt x="138" y="1490" on="1"/>
        <pt x="175" y="1490" on="1"/>
        <pt x="196" y="1490" on="0"/>
        <pt x="207" y="1492" on="1"/>
        <pt x="331" y="1497" on="1"/>
        <pt x="379" y="1499" on="0"/>
        <pt x="405" y="1499" on="1"/>
        <pt x="564" y="1499" on="1"/>
        <pt x="858" y="1506" on="1"/>
        <pt x="918" y="1506" on="0"/>
        <pt x="990" y="1501" on="1"/>
        <pt x="997" y="1501" on="1"/>
        <pt x="1031" y="1503" on="0"/>
        <pt x="1040" y="1503" on="1"/>
        <pt x="1240" y="1503" on="0"/>
        <pt x="1382" y="1376" on="1"/>
        <pt x="1451" y="1315" on="0"/>
        <pt x="1531" y="1123" on="0"/>
        <pt x="1531" y="918" on="0"/>
        <pt x="1489" y="774" on="0"/>
        <pt x="1456" y="724" on="1"/>
        <pt x="1324" y="522" on="0"/>
        <pt x="945" y="488" on="1"/>
        <pt x="729" y="479" on="1"/>
        <pt x="719" y="239" on="0"/>
        <pt x="719" y="106" on="1"/>
        <pt x="720" y="75" on="1"/>
        <pt x="720" y="-6" on="1"/>
        <pt x="716" y="-20" on="0"/>
        <pt x="705" y="-25" on="1"/>
        <pt x="134" y="-34" on="1"/>
        <pt x="117" y="14" on="0"/>
        <pt x="117" y="120" on="1"/>
      </contour>
      <contour>
        <pt x="992" y="1090" on="1"/>
        <pt x="952" y="1195" on="0"/>
        <pt x="780" y="1202" on="1"/>
        <pt x="755" y="1203" on="0"/>
        <pt x="711" y="1203" on="1"/>
        <pt x="699" y="1203" on="0"/>
        <pt x="696" y="908" on="1"/>
        <pt x="694" y="833" on="1"/>
        <pt x="697" y="773" on="1"/>
        <pt x="820" y="775" on="0"/>
        <pt x="1007" y="875" on="0"/>
        <pt x="1007" y="1007" on="1"/>
        <pt x="1007" y="1063" on="0"/>
      </contour>
    </TTGlyph>
    <TTGlyph name="Q" xMin="49" yMin="-70" xMax="1662" yMax="1552">
      <contour>
        <pt x="1529" y="366" on="1"/>
        <pt x="1594" y="368" on="1"/>
        <pt x="1662" y="365" on="0"/>
        <pt x="1662" y="324" on="1"/>
        <pt x="1662" y="324" on="0"/>
        <pt x="1661" y="313" on="1"/>
        <pt x="1661" y="303" on="1"/>
        <pt x="1660" y="296" on="0"/>
        <pt x="1660" y="279" on="1"/>
        <pt x="1660" y="242" on="1"/>
        <pt x="1661" y="229" on="1"/>
        <pt x="1662" y="132" on="1"/>
        <pt x="1661" y="106" on="1"/>
        <pt x="1661" y="57" on="1"/>
        <pt x="1660" y="22" on="1"/>
        <pt x="1661" y="5" on="1"/>
        <pt x="1661" y="-23" on="1"/>
        <pt x="1657" y="-37" on="0"/>
        <pt x="1638" y="-46" on="1"/>
        <pt x="1510" y="-30" on="0"/>
        <pt x="1252" y="-30" on="0"/>
        <pt x="890" y="-70" on="0"/>
        <pt x="802" y="-70" on="1"/>
        <pt x="591" y="-70" on="0"/>
        <pt x="300" y="95" on="0"/>
        <pt x="199" y="251" on="1"/>
        <pt x="186" y="251" on="0"/>
        <pt x="186" y="249" on="1"/>
        <pt x="172" y="263" on="1"/>
        <pt x="49" y="455" on="0"/>
        <pt x="49" y="747" on="1"/>
        <pt x="49" y="917" on="0"/>
        <pt x="95" y="1055" on="1"/>
        <pt x="179" y="1307" on="0"/>
        <pt x="404" y="1436" on="1"/>
        <pt x="604" y="1552" on="0"/>
        <pt x="869" y="1552" on="1"/>
        <pt x="1043" y="1552" on="0"/>
        <pt x="1328" y="1434" on="0"/>
        <pt x="1422" y="1330" on="1"/>
        <pt x="1617" y="1114" on="0"/>
        <pt x="1617" y="787" on="1"/>
        <pt x="1617" y="683" on="0"/>
        <pt x="1541" y="457" on="0"/>
        <pt x="1474" y="366" on="1"/>
      </contour>
      <contour>
        <pt x="816" y="288" on="1"/>
        <pt x="828" y="289" on="1"/>
        <pt x="846" y="289" on="1"/>
        <pt x="866" y="287" on="1"/>
        <pt x="929" y="287" on="0"/>
        <pt x="1005" y="377" on="0"/>
        <pt x="1015" y="420" on="1"/>
        <pt x="1042" y="526" on="0"/>
        <pt x="1046" y="664" on="1"/>
        <pt x="1046" y="682" on="1"/>
        <pt x="1049" y="812" on="1"/>
        <pt x="1049" y="989" on="0"/>
        <pt x="977" y="1155" on="0"/>
        <pt x="916" y="1182" on="1"/>
        <pt x="880" y="1199" on="0"/>
        <pt x="763" y="1199" on="0"/>
        <pt x="667" y="1108" on="0"/>
        <pt x="605" y="896" on="0"/>
        <pt x="605" y="570" on="0"/>
        <pt x="618" y="512" on="1"/>
        <pt x="644" y="392" on="0"/>
        <pt x="735" y="288" on="0"/>
      </contour>
    </TTGlyph>
    <TTGlyph name="R" xMin="103" yMin="-30" xMax="1576" yMax="1507">
      <contour>
        <pt x="559" y="1504" on="1"/>
        <pt x="880" y="1507" on="1"/>
        <pt x="982" y="1507" on="0"/>
        <pt x="1065" y="1503" on="1"/>
        <pt x="1288" y="1497" on="0"/>
        <pt x="1521" y="1299" on="0"/>
        <pt x="1521" y="1119" on="1"/>
        <pt x="1521" y="994" on="0"/>
        <pt x="1375" y="817" on="0"/>
        <pt x="1235" y="750" on="1"/>
        <pt x="1457" y="680" on="0"/>
        <pt x="1504" y="410" on="1"/>
        <pt x="1515" y="351" on="0"/>
        <pt x="1528" y="199" on="0"/>
        <pt x="1532" y="173" on="1"/>
        <pt x="1542" y="122" on="1"/>
        <pt x="1558" y="32" on="0"/>
        <pt x="1570" y="-8" on="1"/>
        <pt x="1566" y="-11" on="1"/>
        <pt x="1396" y="-22" on="0"/>
        <pt x="1115" y="-22" on="0"/>
        <pt x="1007" y="-17" on="1"/>
        <pt x="1001" y="-17" on="1"/>
        <pt x="970" y="-17" on="0"/>
        <pt x="935" y="278" on="1"/>
        <pt x="930" y="321" on="1"/>
        <pt x="926" y="431" on="0"/>
        <pt x="857" y="507" on="0"/>
        <pt x="772" y="507" on="1"/>
        <pt x="759" y="506" on="1"/>
        <pt x="706" y="506" on="1"/>
        <pt x="706" y="202" on="1"/>
        <pt x="707" y="170" on="1"/>
        <pt x="707" y="-13" on="1"/>
        <pt x="704" y="-23" on="0"/>
        <pt x="692" y="-25" on="1"/>
        <pt x="582" y="-29" on="0"/>
        <pt x="181" y="-29" on="0"/>
        <pt x="117" y="-30" on="1"/>
        <pt x="111" y="-28" on="1"/>
        <pt x="109" y="-29" on="1"/>
        <pt x="107" y="-29" on="0"/>
        <pt x="103" y="-26" on="1"/>
        <pt x="105" y="64" on="1"/>
        <pt x="104" y="94" on="1"/>
        <pt x="108" y="509" on="1"/>
        <pt x="108" y="582" on="1"/>
        <pt x="109" y="657" on="1"/>
        <pt x="110" y="916" on="1"/>
        <pt x="111" y="950" on="1"/>
        <pt x="108" y="1177" on="1"/>
        <pt x="108" y="1177" on="0"/>
        <pt x="112" y="1496" on="1"/>
        <pt x="112" y="1504" on="0"/>
        <pt x="169" y="1504" on="1"/>
        <pt x="233" y="1503" on="1"/>
        <pt x="294" y="1503" on="1"/>
        <pt x="421" y="1502" on="1"/>
      </contour>
      <contour>
        <pt x="1576" y="-5" on="1"/>
        <pt x="1571" y="-8" on="1"/>
        <pt x="1571" y="-6" on="1"/>
        <pt x="1571" y="-5" on="0"/>
      </contour>
      <contour>
        <pt x="1571" y="-8" on="1"/>
        <pt x="1571" y="-9" on="1"/>
        <pt x="1570" y="-9" on="0"/>
        <pt x="1570" y="-8" on="1"/>
      </contour>
      <contour>
        <pt x="929" y="1178" on="1"/>
        <pt x="869" y="1204" on="0"/>
        <pt x="769" y="1204" on="1"/>
        <pt x="711" y="1204" on="1"/>
        <pt x="700" y="1188" on="0"/>
        <pt x="700" y="883" on="0"/>
        <pt x="705" y="831" on="1"/>
        <pt x="1018" y="838" on="0"/>
        <pt x="1018" y="1047" on="1"/>
        <pt x="1018" y="1136" on="0"/>
      </contour>
    </TTGlyph>
    <TTGlyph name="S" xMin="53" yMin="-63" xMax="1473" yMax="1558">
      <contour>
        <pt x="62" y="413" on="1"/>
        <pt x="591" y="422" on="1"/>
        <pt x="611" y="422" on="0"/>
        <pt x="638" y="354" on="0"/>
        <pt x="651" y="334" on="1"/>
        <pt x="682" y="286" on="0"/>
        <pt x="825" y="286" on="0"/>
        <pt x="913" y="353" on="0"/>
        <pt x="913" y="459" on="0"/>
        <pt x="859" y="498" on="0"/>
        <pt x="795" y="535" on="0"/>
        <pt x="670" y="555" on="0"/>
        <pt x="664" y="557" on="1"/>
        <pt x="666" y="557" on="1"/>
        <pt x="609" y="572" on="1"/>
        <pt x="554" y="582" on="0"/>
        <pt x="517" y="594" on="1"/>
        <pt x="278" y="658" on="0"/>
        <pt x="65" y="852" on="0"/>
        <pt x="65" y="1016" on="1"/>
        <pt x="65" y="1135" on="0"/>
        <pt x="153" y="1325" on="0"/>
        <pt x="224" y="1385" on="1"/>
        <pt x="429" y="1558" on="0"/>
        <pt x="790" y="1558" on="1"/>
        <pt x="1077" y="1558" on="0"/>
        <pt x="1241" y="1454" on="1"/>
        <pt x="1240" y="1454" on="1"/>
        <pt x="1345" y="1378" on="0"/>
        <pt x="1423" y="1231" on="0"/>
        <pt x="1433" y="1123" on="1"/>
        <pt x="1407" y="1097" on="1"/>
        <pt x="1144" y="1087" on="0"/>
        <pt x="941" y="1087" on="1"/>
        <pt x="880" y="1087" on="0"/>
        <pt x="868" y="1123" on="1"/>
        <pt x="863" y="1138" on="0"/>
        <pt x="857" y="1153" on="1"/>
        <pt x="843" y="1189" on="0"/>
        <pt x="767" y="1189" on="1"/>
        <pt x="763" y="1189" on="1"/>
        <pt x="704" y="1189" on="0"/>
        <pt x="620" y="1134" on="0"/>
        <pt x="619" y="1082" on="0"/>
        <pt x="642" y="1048" on="0"/>
        <pt x="668" y="1028" on="0"/>
        <pt x="722" y="1007" on="0"/>
        <pt x="749" y="1000" on="0"/>
        <pt x="778" y="992" on="1"/>
        <pt x="813" y="983" on="1"/>
        <pt x="834" y="977" on="0"/>
        <pt x="1037" y="929" on="0"/>
        <pt x="1105" y="907" on="1"/>
        <pt x="1105" y="908" on="1"/>
        <pt x="1318" y="836" on="0"/>
        <pt x="1473" y="621" on="0"/>
        <pt x="1473" y="478" on="1"/>
        <pt x="1473" y="97" on="0"/>
        <pt x="1018" y="-16" on="1"/>
        <pt x="886" y="-49" on="0"/>
        <pt x="736" y="-63" on="1"/>
        <pt x="552" y="-63" on="0"/>
        <pt x="192" y="45" on="0"/>
        <pt x="131" y="167" on="1"/>
        <pt x="90" y="226" on="0"/>
        <pt x="62" y="325" on="0"/>
        <pt x="53" y="414" on="1"/>
        <pt x="56" y="413" on="0"/>
      </contour>
    </TTGlyph>
    <TTGlyph name="Scaron" xMin="54" yMin="-58" xMax="1472" yMax="2240">
      <contour>
        <pt x="75" y="413" on="1"/>
        <pt x="591" y="422" on="1"/>
        <pt x="612" y="422" on="0"/>
        <pt x="653" y="320" on="0"/>
        <pt x="723" y="286" on="0"/>
        <pt x="825" y="286" on="0"/>
        <pt x="913" y="351" on="0"/>
        <pt x="913" y="471" on="0"/>
        <pt x="805" y="523" on="0"/>
        <pt x="687" y="551" on="0"/>
        <pt x="666" y="557" on="1"/>
        <pt x="610" y="570" on="1"/>
        <pt x="607" y="570" on="0"/>
        <pt x="603" y="572" on="1"/>
        <pt x="315" y="633" on="0"/>
        <pt x="66" y="843" on="0"/>
        <pt x="66" y="1021" on="1"/>
        <pt x="66" y="1295" on="0"/>
        <pt x="304" y="1442" on="1"/>
        <pt x="491" y="1558" on="0"/>
        <pt x="810" y="1558" on="1"/>
        <pt x="915" y="1558" on="0"/>
        <pt x="1152" y="1508" on="0"/>
        <pt x="1236" y="1457" on="1"/>
        <pt x="1237" y="1455" on="1"/>
        <pt x="1357" y="1372" on="0"/>
        <pt x="1422" y="1217" on="0"/>
        <pt x="1431" y="1121" on="1"/>
        <pt x="1408" y="1097" on="1"/>
        <pt x="1316" y="1092" on="1"/>
        <pt x="1198" y="1085" on="0"/>
        <pt x="970" y="1085" on="0"/>
        <pt x="890" y="1091" on="0"/>
        <pt x="873" y="1112" on="0"/>
        <pt x="862" y="1141" on="0"/>
        <pt x="854" y="1155" on="1"/>
        <pt x="833" y="1189" on="0"/>
        <pt x="712" y="1189" on="0"/>
        <pt x="616" y="1130" on="0"/>
        <pt x="616" y="1099" on="1"/>
        <pt x="616" y="1041" on="0"/>
        <pt x="814" y="982" on="0"/>
        <pt x="882" y="973" on="1"/>
        <pt x="1110" y="919" on="0"/>
        <pt x="1224" y="859" on="1"/>
        <pt x="1472" y="728" on="0"/>
        <pt x="1472" y="478" on="1"/>
        <pt x="1472" y="147" on="0"/>
        <pt x="1185" y="24" on="1"/>
        <pt x="999" y="-58" on="0"/>
        <pt x="444" y="-58" on="0"/>
        <pt x="272" y="34" on="1"/>
        <pt x="175" y="85" on="0"/>
        <pt x="136" y="163" on="1"/>
        <pt x="92" y="225" on="0"/>
        <pt x="64" y="316" on="0"/>
        <pt x="54" y="414" on="1"/>
        <pt x="61" y="413" on="0"/>
      </contour>
      <contour>
        <pt x="329" y="2240" on="1"/>
        <pt x="362" y="2239" on="1"/>
        <pt x="524" y="2239" on="1"/>
        <pt x="596" y="2239" on="0"/>
        <pt x="672" y="2213" on="0"/>
        <pt x="695" y="2168" on="1"/>
        <pt x="703" y="2151" on="0"/>
        <pt x="742" y="2094" on="1"/>
        <pt x="768" y="2093" on="1"/>
        <pt x="802" y="2139" on="0"/>
        <pt x="824" y="2179" on="0"/>
        <pt x="825" y="2180" on="1"/>
        <pt x="855" y="2232" on="1"/>
        <pt x="943" y="2231" on="1"/>
        <pt x="1218" y="2231" on="1"/>
        <pt x="1222" y="2225" on="1"/>
        <pt x="1215" y="2195" on="0"/>
        <pt x="1153" y="2116" on="1"/>
        <pt x="1123" y="2065" on="0"/>
        <pt x="1104" y="2033" on="1"/>
        <pt x="1073" y="1978" on="0"/>
        <pt x="997" y="1877" on="0"/>
        <pt x="907" y="1863" on="0"/>
        <pt x="699" y="1863" on="0"/>
        <pt x="529" y="1858" on="1"/>
        <pt x="489" y="1885" on="0"/>
        <pt x="432" y="1984" on="1"/>
        <pt x="416" y="2009" on="1"/>
        <pt x="418" y="2009" on="1"/>
        <pt x="389" y="2050" on="0"/>
        <pt x="338" y="2133" on="0"/>
        <pt x="336" y="2135" on="1"/>
        <pt x="318" y="2161" on="1"/>
        <pt x="281" y="2216" on="0"/>
        <pt x="281" y="2240" on="0"/>
      </contour>
      <contour>
        <pt x="1235" y="1463" on="1"/>
        <pt x="1240" y="1455" on="1"/>
        <pt x="1238" y="1455" on="0"/>
        <pt x="1236" y="1457" on="1"/>
      </contour>
      <contour>
        <pt x="825" y="2182" on="1"/>
        <pt x="826" y="2185" on="1"/>
        <pt x="826" y="2183" on="0"/>
      </contour>
    </TTGlyph>
    <TTGlyph name="T" xMin="-4" yMin="-29" xMax="1337" yMax="1505">
      <contour>
        <pt x="1337" y="1135" on="1"/>
        <pt x="1337" y="1102" on="0"/>
        <pt x="1330" y="1102" on="1"/>
        <pt x="1330" y="1102" on="0"/>
        <pt x="968" y="1105" on="1"/>
        <pt x="966" y="1008" on="0"/>
        <pt x="966" y="596" on="0"/>
        <pt x="967" y="516" on="1"/>
        <pt x="971" y="-14" on="1"/>
        <pt x="966" y="-28" on="0"/>
        <pt x="951" y="-29" on="1"/>
        <pt x="740" y="-26" on="1"/>
        <pt x="739" y="-27" on="1"/>
        <pt x="673" y="-26" on="1"/>
        <pt x="490" y="-26" on="1"/>
        <pt x="416" y="-26" on="0"/>
        <pt x="379" y="-27" on="1"/>
        <pt x="362" y="-12" on="1"/>
        <pt x="361" y="-11" on="0"/>
        <pt x="349" y="4" on="1"/>
        <pt x="349" y="92" on="0"/>
        <pt x="356" y="395" on="1"/>
        <pt x="367" y="927" on="1"/>
        <pt x="365" y="952" on="1"/>
        <pt x="358" y="1051" on="0"/>
        <pt x="345" y="1088" on="0"/>
        <pt x="307" y="1091" on="0"/>
        <pt x="298" y="1091" on="1"/>
        <pt x="258" y="1089" on="1"/>
        <pt x="10" y="1093" on="1"/>
        <pt x="-3" y="1119" on="0"/>
        <pt x="-3" y="1210" on="1"/>
        <pt x="-1" y="1298" on="1"/>
        <pt x="-1" y="1325" on="1"/>
        <pt x="-2" y="1485" on="0"/>
        <pt x="-4" y="1496" on="1"/>
        <pt x="-2" y="1496" on="0"/>
        <pt x="4" y="1494" on="1"/>
        <pt x="1277" y="1505" on="1"/>
        <pt x="1316" y="1505" on="0"/>
        <pt x="1336" y="1494" on="0"/>
        <pt x="1336" y="1479" on="1"/>
        <pt x="1336" y="1215" on="1"/>
      </contour>
    </TTGlyph>
    <TTGlyph name="Thorn" xMin="117" yMin="-34" xMax="1531" yMax="1622">
      <contour>
        <pt x="722" y="1513" on="1"/>
        <pt x="721" y="1483" on="1"/>
        <pt x="724" y="1377" on="1"/>
        <pt x="897" y="1375" on="0"/>
        <pt x="990" y="1367" on="1"/>
        <pt x="997" y="1367" on="1"/>
        <pt x="1031" y="1369" on="0"/>
        <pt x="1040" y="1369" on="1"/>
        <pt x="1240" y="1369" on="0"/>
        <pt x="1382" y="1242" on="1"/>
        <pt x="1451" y="1181" on="0"/>
        <pt x="1531" y="990" on="0"/>
        <pt x="1531" y="786" on="0"/>
        <pt x="1490" y="641" on="0"/>
        <pt x="1456" y="590" on="1"/>
        <pt x="1323" y="390" on="0"/>
        <pt x="945" y="356" on="1"/>
        <pt x="729" y="347" on="1"/>
        <pt x="726" y="290" on="0"/>
        <pt x="719" y="106" on="1"/>
        <pt x="720" y="75" on="1"/>
        <pt x="720" y="-7" on="1"/>
        <pt x="717" y="-22" on="0"/>
        <pt x="706" y="-25" on="1"/>
        <pt x="134" y="-34" on="1"/>
        <pt x="117" y="14" on="0"/>
        <pt x="117" y="120" on="1"/>
        <pt x="117" y="527" on="1"/>
        <pt x="119" y="938" on="1"/>
        <pt x="118" y="1358" on="1"/>
        <pt x="119" y="1360" on="0"/>
        <pt x="119" y="1361" on="1"/>
        <pt x="119" y="1468" on="1"/>
        <pt x="119" y="1573" on="0"/>
        <pt x="136" y="1622" on="1"/>
        <pt x="708" y="1613" on="1"/>
        <pt x="719" y="1610" on="0"/>
        <pt x="722" y="1594" on="1"/>
      </contour>
      <contour>
        <pt x="737" y="640" on="1"/>
        <pt x="1007" y="650" on="0"/>
        <pt x="1007" y="875" on="1"/>
        <pt x="1007" y="1012" on="0"/>
        <pt x="890" y="1048" on="1"/>
        <pt x="825" y="1069" on="0"/>
        <pt x="739" y="1069" on="1"/>
        <pt x="686" y="1069" on="1"/>
        <pt x="696" y="1006" on="0"/>
        <pt x="696" y="699" on="1"/>
      </contour>
    </TTGlyph>
    <TTGlyph name="U" xMin="104" yMin="-63" xMax="1553" yMax="1515">
      <contour>
        <pt x="1546" y="775" on="1"/>
        <pt x="1543" y="494" on="1"/>
        <pt x="1543" y="365" on="0"/>
        <pt x="1460" y="167" on="0"/>
        <pt x="1392" y="106" on="1"/>
        <pt x="1207" y="-62" on="0"/>
        <pt x="483" y="-62" on="0"/>
        <pt x="282" y="114" on="1"/>
        <pt x="211" y="175" on="0"/>
        <pt x="114" y="370" on="0"/>
        <pt x="104" y="493" on="1"/>
        <pt x="109" y="911" on="0"/>
        <pt x="109" y="1266" on="1"/>
        <pt x="104" y="1266" on="0"/>
        <pt x="104" y="1476" on="0"/>
        <pt x="113" y="1501" on="1"/>
        <pt x="134" y="1501" on="1"/>
        <pt x="281" y="1509" on="0"/>
        <pt x="535" y="1509" on="1"/>
        <pt x="553" y="1505" on="0"/>
        <pt x="648" y="1503" on="0"/>
        <pt x="666" y="1501" on="1"/>
        <pt x="697" y="1497" on="1"/>
        <pt x="704" y="1299" on="0"/>
        <pt x="706" y="952" on="1"/>
        <pt x="700" y="550" on="1"/>
        <pt x="700" y="350" on="0"/>
        <pt x="816" y="350" on="1"/>
        <pt x="865" y="350" on="0"/>
        <pt x="932" y="436" on="0"/>
        <pt x="934" y="490" on="1"/>
        <pt x="938" y="500" on="1"/>
        <pt x="941" y="837" on="1"/>
        <pt x="942" y="867" on="1"/>
        <pt x="942" y="1099" on="0"/>
        <pt x="936" y="1315" on="1"/>
        <pt x="934" y="1388" on="1"/>
        <pt x="932" y="1432" on="0"/>
        <pt x="932" y="1502" on="0"/>
        <pt x="943" y="1515" on="1"/>
        <pt x="1329" y="1515" on="0"/>
        <pt x="1525" y="1512" on="1"/>
        <pt x="1532" y="1505" on="0"/>
        <pt x="1543" y="1499" on="1"/>
        <pt x="1542" y="1499" on="1"/>
        <pt x="1553" y="1492" on="1"/>
        <pt x="1545" y="1303" on="0"/>
        <pt x="1545" y="1006" on="1"/>
        <pt x="1545" y="834" on="1"/>
      </contour>
    </TTGlyph>
    <TTGlyph name="Uacute" xMin="104" yMin="-63" xMax="1553" yMax="2058">
      <contour>
        <pt x="1546" y="775" on="1"/>
        <pt x="1543" y="494" on="1"/>
        <pt x="1543" y="365" on="0"/>
        <pt x="1460" y="167" on="0"/>
        <pt x="1392" y="106" on="1"/>
        <pt x="1207" y="-62" on="0"/>
        <pt x="483" y="-62" on="0"/>
        <pt x="282" y="114" on="1"/>
        <pt x="211" y="175" on="0"/>
        <pt x="114" y="370" on="0"/>
        <pt x="104" y="493" on="1"/>
        <pt x="109" y="911" on="0"/>
        <pt x="109" y="1266" on="1"/>
        <pt x="104" y="1266" on="0"/>
        <pt x="104" y="1476" on="0"/>
        <pt x="113" y="1501" on="1"/>
        <pt x="134" y="1501" on="1"/>
        <pt x="281" y="1509" on="0"/>
        <pt x="535" y="1509" on="1"/>
        <pt x="553" y="1505" on="0"/>
        <pt x="648" y="1503" on="0"/>
        <pt x="666" y="1501" on="1"/>
        <pt x="697" y="1497" on="1"/>
        <pt x="704" y="1299" on="0"/>
        <pt x="706" y="952" on="1"/>
        <pt x="700" y="550" on="1"/>
        <pt x="700" y="350" on="0"/>
        <pt x="816" y="350" on="1"/>
        <pt x="865" y="350" on="0"/>
        <pt x="932" y="436" on="0"/>
        <pt x="934" y="490" on="1"/>
        <pt x="938" y="500" on="1"/>
        <pt x="941" y="837" on="1"/>
        <pt x="942" y="867" on="1"/>
        <pt x="942" y="1099" on="0"/>
        <pt x="936" y="1315" on="1"/>
        <pt x="934" y="1388" on="1"/>
        <pt x="932" y="1432" on="0"/>
        <pt x="932" y="1502" on="0"/>
        <pt x="943" y="1515" on="1"/>
        <pt x="1329" y="1515" on="0"/>
        <pt x="1525" y="1512" on="1"/>
        <pt x="1532" y="1505" on="0"/>
        <pt x="1543" y="1499" on="1"/>
        <pt x="1542" y="1499" on="1"/>
        <pt x="1553" y="1492" on="1"/>
        <pt x="1545" y="1303" on="0"/>
        <pt x="1545" y="1006" on="1"/>
        <pt x="1545" y="834" on="1"/>
      </contour>
      <contour>
        <pt x="558" y="1674" on="1"/>
        <pt x="542" y="1673" on="1"/>
        <pt x="493" y="1673" on="1"/>
        <pt x="478" y="1702" on="1"/>
        <pt x="646" y="1988" on="1"/>
        <pt x="689" y="2051" on="0"/>
        <pt x="695" y="2058" on="1"/>
        <pt x="765" y="2058" on="1"/>
        <pt x="1183" y="2048" on="1"/>
        <pt x="1183" y="2045" on="1"/>
        <pt x="1143" y="1999" on="0"/>
        <pt x="961" y="1796" on="0"/>
        <pt x="875" y="1698" on="0"/>
        <pt x="812" y="1678" on="0"/>
        <pt x="741" y="1677" on="1"/>
      </contour>
    </TTGlyph>
    <TTGlyph name="Ucircumflex" xMin="104" yMin="-62" xMax="1553" yMax="2055">
      <component glyphName="U" x="0" y="0" flags="0x1004"/>
      <component glyphName="circumflex" x="462" y="277" flags="0x1004"/>
    </TTGlyph>
    <TTGlyph name="Udieresis" xMin="104" yMin="-63" xMax="1553" yMax="2276">
      <contour>
        <pt x="1546" y="775" on="1"/>
        <pt x="1543" y="494" on="1"/>
        <pt x="1543" y="365" on="0"/>
        <pt x="1460" y="167" on="0"/>
        <pt x="1392" y="106" on="1"/>
        <pt x="1207" y="-62" on="0"/>
        <pt x="483" y="-62" on="0"/>
        <pt x="282" y="114" on="1"/>
        <pt x="211" y="175" on="0"/>
        <pt x="114" y="370" on="0"/>
        <pt x="104" y="493" on="1"/>
        <pt x="109" y="911" on="0"/>
        <pt x="109" y="1266" on="1"/>
        <pt x="104" y="1266" on="0"/>
        <pt x="104" y="1476" on="0"/>
        <pt x="113" y="1501" on="1"/>
        <pt x="134" y="1501" on="1"/>
        <pt x="281" y="1509" on="0"/>
        <pt x="535" y="1509" on="1"/>
        <pt x="553" y="1505" on="0"/>
        <pt x="648" y="1503" on="0"/>
        <pt x="666" y="1501" on="1"/>
        <pt x="697" y="1497" on="1"/>
        <pt x="704" y="1299" on="0"/>
        <pt x="706" y="952" on="1"/>
        <pt x="700" y="550" on="1"/>
        <pt x="700" y="350" on="0"/>
        <pt x="816" y="350" on="1"/>
        <pt x="865" y="350" on="0"/>
        <pt x="932" y="436" on="0"/>
        <pt x="934" y="490" on="1"/>
        <pt x="938" y="500" on="1"/>
        <pt x="941" y="837" on="1"/>
        <pt x="942" y="867" on="1"/>
        <pt x="942" y="1099" on="0"/>
        <pt x="936" y="1315" on="1"/>
        <pt x="934" y="1388" on="1"/>
        <pt x="932" y="1432" on="0"/>
        <pt x="932" y="1502" on="0"/>
        <pt x="943" y="1515" on="1"/>
        <pt x="1329" y="1515" on="0"/>
        <pt x="1525" y="1512" on="1"/>
        <pt x="1532" y="1505" on="0"/>
        <pt x="1543" y="1499" on="1"/>
        <pt x="1542" y="1499" on="1"/>
        <pt x="1553" y="1492" on="1"/>
        <pt x="1545" y="1303" on="0"/>
        <pt x="1545" y="1006" on="1"/>
        <pt x="1545" y="834" on="1"/>
      </contour>
      <contour>
        <pt x="1073" y="2273" on="1"/>
        <pt x="1243" y="2276" on="1"/>
        <pt x="1304" y="2276" on="0"/>
        <pt x="1307" y="2268" on="1"/>
        <pt x="1312" y="2116" on="0"/>
        <pt x="1314" y="1926" on="1"/>
        <pt x="1311" y="1920" on="0"/>
        <pt x="1311" y="1916" on="1"/>
        <pt x="1304" y="1917" on="1"/>
        <pt x="971" y="1903" on="1"/>
        <pt x="945" y="1932" on="1"/>
        <pt x="945" y="2017" on="0"/>
        <pt x="957" y="2264" on="0"/>
        <pt x="969" y="2276" on="1"/>
        <pt x="1024" y="2273" on="0"/>
      </contour>
      <contour>
        <pt x="945" y="1931" on="1"/>
        <pt x="945" y="1932" on="1"/>
      </contour>
      <contour>
        <pt x="1310" y="1915" on="1"/>
        <pt x="1324" y="1914" on="1"/>
        <pt x="1324" y="1897" on="0"/>
        <pt x="1310" y="1897" on="1"/>
        <pt x="1304" y="1897" on="0"/>
        <pt x="1300" y="1901" on="1"/>
      </contour>
      <contour>
        <pt x="740" y="2204" on="1"/>
        <pt x="742" y="2106" on="1"/>
        <pt x="742" y="2075" on="1"/>
        <pt x="742" y="1966" on="0"/>
        <pt x="743" y="1919" on="1"/>
        <pt x="733" y="1908" on="0"/>
        <pt x="662" y="1908" on="1"/>
        <pt x="641" y="1909" on="1"/>
        <pt x="590" y="1909" on="1"/>
        <pt x="403" y="1902" on="1"/>
        <pt x="379" y="1937" on="1"/>
        <pt x="379" y="2251" on="0"/>
        <pt x="401" y="2276" on="1"/>
        <pt x="437" y="2275" on="0"/>
        <pt x="670" y="2274" on="0"/>
        <pt x="734" y="2272" on="1"/>
        <pt x="741" y="2270" on="0"/>
        <pt x="741" y="2247" on="1"/>
        <pt x="740" y="2236" on="1"/>
      </contour>
    </TTGlyph>
    <TTGlyph name="Ugrave" xMin="104" yMin="-62" xMax="1553" yMax="2071">
      <component glyphName="U" x="0" y="0" flags="0x1004"/>
      <component glyphName="grave" x="538" y="252" flags="0x1004"/>
    </TTGlyph>
    <TTGlyph name="V" xMin="-21" yMin="-31" xMax="1594" yMax="1510">
      <contour>
        <pt x="1068" y="-25" on="1"/>
        <pt x="942" y="-22" on="1"/>
        <pt x="867" y="-22" on="1"/>
        <pt x="835" y="-26" on="0"/>
        <pt x="622" y="-26" on="0"/>
        <pt x="412" y="-31" on="1"/>
        <pt x="373" y="4" on="0"/>
        <pt x="305" y="339" on="0"/>
        <pt x="200" y="692" on="0"/>
        <pt x="187" y="738" on="1"/>
        <pt x="157" y="844" on="1"/>
        <pt x="144" y="890" on="0"/>
        <pt x="112" y="1001" on="1"/>
        <pt x="11" y="1344" on="0"/>
        <pt x="-21" y="1500" on="1"/>
        <pt x="-21" y="1508" on="0"/>
        <pt x="565" y="1508" on="1"/>
        <pt x="583" y="1508" on="0"/>
        <pt x="593" y="1495" on="1"/>
        <pt x="672" y="1026" on="0"/>
        <pt x="771" y="473" on="1"/>
        <pt x="779" y="420" on="1"/>
        <pt x="819" y="420" on="1"/>
        <pt x="828" y="472" on="1"/>
        <pt x="859" y="667" on="0"/>
        <pt x="946" y="1101" on="1"/>
        <pt x="970" y="1214" on="1"/>
        <pt x="982" y="1271" on="0"/>
        <pt x="1025" y="1498" on="1"/>
        <pt x="1071" y="1510" on="0"/>
        <pt x="1534" y="1510" on="1"/>
        <pt x="1579" y="1510" on="1"/>
        <pt x="1591" y="1503" on="0"/>
        <pt x="1594" y="1497" on="1"/>
        <pt x="1393" y="770" on="1"/>
        <pt x="1371" y="691" on="0"/>
        <pt x="1367" y="669" on="1"/>
        <pt x="1320" y="485" on="1"/>
        <pt x="1207" y="4" on="0"/>
        <pt x="1158" y="-27" on="1"/>
        <pt x="1131" y="-27" on="0"/>
        <pt x="1073" y="-25" on="1"/>
      </contour>
    </TTGlyph>
    <TTGlyph name="W" xMin="-41" yMin="-35" xMax="2193" yMax="1517">
      <contour>
        <pt x="815" y="1506" on="1"/>
        <pt x="989" y="1507" on="1"/>
        <pt x="1378" y="1507" on="1"/>
        <pt x="1382" y="1507" on="0"/>
        <pt x="1384" y="1505" on="1"/>
        <pt x="1420" y="1271" on="1"/>
        <pt x="1434" y="1169" on="0"/>
        <pt x="1497" y="758" on="0"/>
        <pt x="1505" y="704" on="1"/>
        <pt x="1513" y="650" on="1"/>
        <pt x="1551" y="650" on="1"/>
        <pt x="1577" y="939" on="0"/>
        <pt x="1649" y="1411" on="1"/>
        <pt x="1653" y="1434" on="1"/>
        <pt x="1654" y="1442" on="0"/>
        <pt x="1654" y="1456" on="1"/>
        <pt x="1655" y="1480" on="0"/>
        <pt x="1672" y="1511" on="0"/>
        <pt x="1716" y="1511" on="1"/>
        <pt x="2037" y="1511" on="0"/>
        <pt x="2185" y="1493" on="1"/>
        <pt x="2189" y="1489" on="0"/>
        <pt x="2193" y="1470" on="1"/>
        <pt x="2169" y="1358" on="0"/>
        <pt x="2059" y="884" on="0"/>
        <pt x="2032" y="760" on="1"/>
        <pt x="2024" y="723" on="1"/>
        <pt x="2022" y="717" on="0"/>
        <pt x="2001" y="657" on="0"/>
        <pt x="2002" y="645" on="1"/>
        <pt x="1932" y="328" on="1"/>
        <pt x="1900" y="171" on="1"/>
        <pt x="1873" y="38" on="0"/>
        <pt x="1863" y="-20" on="1"/>
        <pt x="1858" y="-18" on="1"/>
        <pt x="1788" y="-22" on="0"/>
        <pt x="1645" y="-22" on="1"/>
        <pt x="1489" y="-22" on="1"/>
        <pt x="1435" y="-21" on="1"/>
        <pt x="1322" y="-21" on="0"/>
        <pt x="1229" y="-25" on="1"/>
        <pt x="1220" y="-25" on="0"/>
        <pt x="1180" y="291" on="0"/>
        <pt x="1178" y="302" on="1"/>
        <pt x="1169" y="352" on="1"/>
        <pt x="1137" y="562" on="0"/>
        <pt x="1105" y="795" on="1"/>
        <pt x="1068" y="796" on="1"/>
        <pt x="1011" y="502" on="0"/>
        <pt x="967" y="82" on="1"/>
        <pt x="956" y="-28" on="0"/>
        <pt x="924" y="-33" on="1"/>
        <pt x="781" y="-28" on="0"/>
        <pt x="513" y="-28" on="0"/>
        <pt x="303" y="-35" on="1"/>
        <pt x="274" y="-12" on="0"/>
        <pt x="259" y="86" on="1"/>
        <pt x="253" y="125" on="1"/>
        <pt x="215" y="327" on="0"/>
        <pt x="95" y="869" on="1"/>
        <pt x="74" y="966" on="1"/>
        <pt x="62" y="1024" on="0"/>
        <pt x="-14" y="1367" on="0"/>
        <pt x="-41" y="1500" on="1"/>
        <pt x="-40" y="1508" on="0"/>
        <pt x="-27" y="1514" on="1"/>
        <pt x="-4" y="1511" on="0"/>
        <pt x="22" y="1511" on="1"/>
        <pt x="34" y="1511" on="1"/>
        <pt x="129" y="1514" on="1"/>
        <pt x="267" y="1517" on="1"/>
        <pt x="335" y="1517" on="0"/>
        <pt x="372" y="1514" on="1"/>
        <pt x="435" y="1514" on="1"/>
        <pt x="444" y="1514" on="0"/>
        <pt x="468" y="1512" on="1"/>
        <pt x="482" y="1512" on="1"/>
        <pt x="514" y="1512" on="0"/>
        <pt x="572" y="1012" on="1"/>
        <pt x="598" y="786" on="0"/>
        <pt x="603" y="748" on="1"/>
        <pt x="610" y="691" on="1"/>
        <pt x="649" y="690" on="1"/>
        <pt x="686" y="922" on="0"/>
        <pt x="731" y="1232" on="1"/>
        <pt x="731" y="1268" on="0"/>
        <pt x="763" y="1482" on="0"/>
        <pt x="780" y="1507" on="1"/>
        <pt x="791" y="1506" on="0"/>
      </contour>
    </TTGlyph>
    <TTGlyph name="X" xMin="-27" yMin="-36" xMax="1651" yMax="1511">
      <contour>
        <pt x="1632" y="1488" on="1"/>
        <pt x="1631" y="1480" on="1"/>
        <pt x="1395" y="1102" on="1"/>
        <pt x="1393" y="1098" on="0"/>
        <pt x="1339" y="1013" on="1"/>
        <pt x="1167" y="740" on="1"/>
        <pt x="1189" y="700" on="1"/>
        <pt x="1220" y="657" on="1"/>
        <pt x="1306" y="526" on="1"/>
        <pt x="1330" y="484" on="1"/>
        <pt x="1338" y="470" on="0"/>
        <pt x="1376" y="414" on="0"/>
        <pt x="1378" y="411" on="1"/>
        <pt x="1378" y="412" on="1"/>
        <pt x="1558" y="134" on="1"/>
        <pt x="1558" y="135" on="1"/>
        <pt x="1648" y="-8" on="1"/>
        <pt x="1651" y="-11" on="0"/>
        <pt x="1651" y="-15" on="1"/>
        <pt x="1651" y="-29" on="0"/>
        <pt x="1601" y="-32" on="1"/>
        <pt x="1088" y="-36" on="1"/>
        <pt x="1028" y="-36" on="0"/>
        <pt x="1005" y="-22" on="1"/>
        <pt x="998" y="-4" on="0"/>
        <pt x="964" y="62" on="0"/>
        <pt x="959" y="73" on="1"/>
        <pt x="798" y="410" on="1"/>
        <pt x="739" y="298" on="0"/>
        <pt x="719" y="252" on="1"/>
        <pt x="610" y="15" on="0"/>
        <pt x="563" y="-30" on="1"/>
        <pt x="411" y="-26" on="0"/>
        <pt x="230" y="-26" on="1"/>
        <pt x="230" y="-26" on="0"/>
        <pt x="165" y="-27" on="1"/>
        <pt x="-22" y="-27" on="1"/>
        <pt x="-27" y="-24" on="0"/>
        <pt x="-27" y="-21" on="1"/>
        <pt x="-27" y="8" on="0"/>
        <pt x="69" y="150" on="1"/>
        <pt x="76" y="157" on="0"/>
        <pt x="79" y="165" on="1"/>
        <pt x="455" y="754" on="1"/>
        <pt x="363" y="905" on="1"/>
        <pt x="254" y="1099" on="0"/>
        <pt x="150" y="1272" on="1"/>
        <pt x="11" y="1502" on="1"/>
        <pt x="10" y="1504" on="0"/>
        <pt x="10" y="1506" on="1"/>
        <pt x="169" y="1506" on="1"/>
        <pt x="364" y="1506" on="0"/>
        <pt x="481" y="1498" on="1"/>
        <pt x="573" y="1498" on="0"/>
        <pt x="622" y="1499" on="1"/>
        <pt x="660" y="1462" on="0"/>
        <pt x="779" y="1174" on="1"/>
        <pt x="794" y="1134" on="1"/>
        <pt x="828" y="1067" on="1"/>
        <pt x="859" y="1137" on="1"/>
        <pt x="889" y="1209" on="0"/>
        <pt x="1013" y="1477" on="0"/>
        <pt x="1031" y="1498" on="1"/>
        <pt x="1036" y="1495" on="1"/>
        <pt x="1150" y="1499" on="1"/>
        <pt x="1484" y="1511" on="0"/>
        <pt x="1623" y="1511" on="1"/>
        <pt x="1632" y="1506" on="0"/>
      </contour>
      <contour>
        <pt x="1650" y="-8" on="1"/>
        <pt x="1648" y="-8" on="1"/>
        <pt x="1648" y="-5" on="1"/>
      </contour>
      <contour>
        <pt x="1647" y="-2" on="1"/>
        <pt x="1648" y="-5" on="1"/>
        <pt x="1647" y="-4" on="0"/>
      </contour>
    </TTGlyph>
    <TTGlyph name="Y" xMin="-33" yMin="-37" xMax="1578" yMax="1509">
      <contour>
        <pt x="1530" y="1507" on="1"/>
        <pt x="1563" y="1508" on="1"/>
        <pt x="1573" y="1503" on="0"/>
        <pt x="1578" y="1483" on="1"/>
        <pt x="1548" y="1424" on="1"/>
        <pt x="1548" y="1425" on="1"/>
        <pt x="1483" y="1300" on="1"/>
        <pt x="1336" y="1028" on="0"/>
        <pt x="1293" y="937" on="1"/>
        <pt x="1259" y="872" on="1"/>
        <pt x="1204" y="766" on="0"/>
        <pt x="1072" y="498" on="1"/>
        <pt x="1070" y="464" on="0"/>
        <pt x="1070" y="396" on="1"/>
        <pt x="1070" y="-17" on="1"/>
        <pt x="1065" y="-33" on="0"/>
        <pt x="1050" y="-33" on="1"/>
        <pt x="477" y="-37" on="1"/>
        <pt x="455" y="-9" on="0"/>
        <pt x="455" y="27" on="1"/>
        <pt x="457" y="152" on="1"/>
        <pt x="457" y="181" on="1"/>
        <pt x="458" y="211" on="1"/>
        <pt x="459" y="284" on="1"/>
        <pt x="459" y="493" on="0"/>
        <pt x="352" y="732" on="1"/>
        <pt x="329" y="782" on="0"/>
        <pt x="285" y="873" on="1"/>
        <pt x="136" y="1171" on="1"/>
        <pt x="130" y="1182" on="0"/>
        <pt x="78" y="1282" on="0"/>
        <pt x="47" y="1340" on="1"/>
        <pt x="47" y="1339" on="1"/>
        <pt x="-33" y="1461" on="0"/>
        <pt x="-33" y="1501" on="1"/>
        <pt x="-33" y="1506" on="0"/>
        <pt x="-1" y="1506" on="1"/>
        <pt x="256" y="1506" on="1"/>
        <pt x="469" y="1506" on="0"/>
        <pt x="577" y="1503" on="1"/>
        <pt x="609" y="1497" on="0"/>
        <pt x="744" y="1022" on="1"/>
        <pt x="789" y="863" on="1"/>
        <pt x="891" y="1135" on="0"/>
        <pt x="1004" y="1501" on="1"/>
        <pt x="1005" y="1509" on="0"/>
        <pt x="1152" y="1509" on="1"/>
        <pt x="1280" y="1509" on="1"/>
        <pt x="1326" y="1509" on="0"/>
        <pt x="1357" y="1507" on="1"/>
      </contour>
    </TTGlyph>
    <TTGlyph name="Yacute" xMin="-33" yMin="-37" xMax="1578" yMax="2030">
      <component glyphName="Y" x="0" y="0" flags="0x1004"/>
      <component glyphName="acute" x="420" y="236" flags="0x1004"/>
    </TTGlyph>
    <TTGlyph name="Ydieresis" xMin="-33" yMin="-37" xMax="1578" yMax="2036">
      <component glyphName="Y" x="0" y="0" flags="0x1004"/>
      <component glyphName="dieresis" x="440" y="223" flags="0x1004"/>
    </TTGlyph>
    <TTGlyph name="Z" xMin="19" yMin="-35" xMax="1379" yMax="1506">
      <contour>
        <pt x="1351" y="1379" on="1"/>
        <pt x="1348" y="1179" on="1"/>
        <pt x="1348" y="1166" on="1"/>
        <pt x="1333" y="1066" on="0"/>
        <pt x="1129" y="844" on="1"/>
        <pt x="1052" y="760" on="1"/>
        <pt x="923" y="608" on="0"/>
        <pt x="843" y="510" on="1"/>
        <pt x="729" y="371" on="1"/>
        <pt x="782" y="371" on="1"/>
        <pt x="1362" y="379" on="1"/>
        <pt x="1377" y="379" on="0"/>
        <pt x="1377" y="201" on="1"/>
        <pt x="1377" y="89" on="1"/>
        <pt x="1379" y="24" on="1"/>
        <pt x="1379" y="-8" on="0"/>
        <pt x="1354" y="-25" on="0"/>
        <pt x="1322" y="-25" on="1"/>
        <pt x="1296" y="-25" on="1"/>
        <pt x="97" y="-35" on="1"/>
        <pt x="69" y="-35" on="0"/>
        <pt x="41" y="-23" on="0"/>
        <pt x="26" y="-1" on="1"/>
        <pt x="26" y="272" on="0"/>
        <pt x="19" y="339" on="1"/>
        <pt x="35" y="352" on="1"/>
        <pt x="176" y="523" on="1"/>
        <pt x="486" y="911" on="0"/>
        <pt x="657" y="1116" on="1"/>
        <pt x="362" y="1113" on="1"/>
        <pt x="288" y="1111" on="1"/>
        <pt x="179" y="1108" on="0"/>
        <pt x="69" y="1108" on="1"/>
        <pt x="58" y="1114" on="0"/>
        <pt x="61" y="1162" on="0"/>
        <pt x="59" y="1176" on="1"/>
        <pt x="59" y="1195" on="1"/>
        <pt x="60" y="1203" on="1"/>
        <pt x="60" y="1262" on="1"/>
        <pt x="51" y="1491" on="1"/>
        <pt x="52" y="1497" on="1"/>
        <pt x="54" y="1497" on="0"/>
        <pt x="61" y="1493" on="1"/>
        <pt x="87" y="1493" on="0"/>
        <pt x="428" y="1493" on="0"/>
        <pt x="1070" y="1503" on="1"/>
        <pt x="1287" y="1506" on="1"/>
        <pt x="1321" y="1505" on="0"/>
        <pt x="1353" y="1482" on="0"/>
        <pt x="1353" y="1445" on="1"/>
        <pt x="1351" y="1389" on="1"/>
      </contour>
    </TTGlyph>
    <TTGlyph name="Zcaron" xMin="19" yMin="-35" xMax="1379" yMax="2039">
      <component glyphName="Z" x="0" y="0" flags="0x1004"/>
      <component glyphName="caron" x="342" y="243" flags="0x1004"/>
    </TTGlyph>
    <TTGlyph name="a" xMin="35" yMin="-37" xMax="1514" yMax="1241">
      <contour>
        <pt x="564" y="664" on="1"/>
        <pt x="574" y="663" on="1"/>
        <pt x="598" y="663" on="1"/>
        <pt x="632" y="663" on="0"/>
        <pt x="651" y="668" on="1"/>
        <pt x="705" y="675" on="1"/>
        <pt x="843" y="685" on="0"/>
        <pt x="871" y="749" on="1"/>
        <pt x="885" y="781" on="0"/>
        <pt x="885" y="830" on="1"/>
        <pt x="879" y="840" on="0"/>
        <pt x="879" y="896" on="0"/>
        <pt x="822" y="958" on="0"/>
        <pt x="783" y="958" on="1"/>
        <pt x="778" y="958" on="1"/>
        <pt x="682" y="958" on="0"/>
        <pt x="682" y="795" on="1"/>
        <pt x="677" y="787" on="0"/>
        <pt x="654" y="791" on="0"/>
        <pt x="610" y="791" on="1"/>
        <pt x="94" y="791" on="1"/>
        <pt x="99" y="860" on="0"/>
        <pt x="130" y="940" on="1"/>
        <pt x="189" y="1094" on="0"/>
        <pt x="528" y="1229" on="0"/>
        <pt x="695" y="1235" on="1"/>
        <pt x="755" y="1238" on="1"/>
        <pt x="787" y="1241" on="1"/>
        <pt x="793" y="1241" on="0"/>
        <pt x="799" y="1238" on="1"/>
        <pt x="812" y="1238" on="1"/>
        <pt x="857" y="1240" on="1"/>
        <pt x="871" y="1240" on="0"/>
        <pt x="920" y="1233" on="1"/>
        <pt x="949" y="1229" on="1"/>
        <pt x="956" y="1228" on="0"/>
        <pt x="986" y="1228" on="0"/>
        <pt x="1082" y="1215" on="0"/>
        <pt x="1154" y="1187" on="1"/>
        <pt x="1398" y="1091" on="0"/>
        <pt x="1450" y="819" on="1"/>
        <pt x="1472" y="704" on="0"/>
        <pt x="1472" y="564" on="1"/>
        <pt x="1479" y="541" on="0"/>
        <pt x="1479" y="522" on="1"/>
        <pt x="1474" y="453" on="1"/>
        <pt x="1474" y="337" on="1"/>
        <pt x="1475" y="335" on="0"/>
        <pt x="1475" y="320" on="1"/>
        <pt x="1473" y="252" on="1"/>
        <pt x="1473" y="243" on="1"/>
        <pt x="1476" y="238" on="0"/>
        <pt x="1476" y="229" on="1"/>
        <pt x="1475" y="220" on="1"/>
        <pt x="1475" y="199" on="1"/>
        <pt x="1475" y="104" on="0"/>
        <pt x="1504" y="19" on="1"/>
        <pt x="1514" y="-3" on="1"/>
        <pt x="1062" y="-3" on="1"/>
        <pt x="1026" y="-2" on="1"/>
        <pt x="986" y="-2" on="0"/>
        <pt x="965" y="-3" on="1"/>
        <pt x="933" y="57" on="0"/>
        <pt x="904" y="161" on="1"/>
        <pt x="891" y="134" on="0"/>
        <pt x="828" y="65" on="0"/>
        <pt x="813" y="65" on="1"/>
        <pt x="665" y="-7" on="0"/>
        <pt x="588" y="-17" on="1"/>
        <pt x="474" y="-36" on="0"/>
        <pt x="457" y="-36" on="0"/>
        <pt x="457" y="-36" on="1"/>
        <pt x="218" y="-36" on="0"/>
        <pt x="96" y="130" on="1"/>
        <pt x="35" y="215" on="0"/>
        <pt x="35" y="327" on="1"/>
        <pt x="35" y="570" on="0"/>
        <pt x="261" y="625" on="1"/>
        <pt x="319" y="639" on="0"/>
        <pt x="485" y="654" on="1"/>
        <pt x="518" y="657" on="1"/>
      </contour>
      <contour>
        <pt x="892" y="432" on="1"/>
        <pt x="893" y="464" on="1"/>
        <pt x="893" y="514" on="0"/>
        <pt x="885" y="560" on="1"/>
        <pt x="863" y="548" on="0"/>
        <pt x="779" y="518" on="0"/>
        <pt x="729" y="497" on="0"/>
        <pt x="688" y="444" on="0"/>
        <pt x="688" y="352" on="0"/>
        <pt x="747" y="276" on="0"/>
        <pt x="782" y="276" on="1"/>
        <pt x="857" y="276" on="0"/>
        <pt x="889" y="330" on="1"/>
        <pt x="891" y="340" on="1"/>
        <pt x="892" y="402" on="1"/>
      </contour>
    </TTGlyph>
    <TTGlyph name="aacute" xMin="35" yMin="-37" xMax="1514" yMax="1794">
      <contour>
        <pt x="1476" y="229" on="1"/>
        <pt x="1475" y="220" on="1"/>
        <pt x="1475" y="199" on="1"/>
        <pt x="1475" y="104" on="0"/>
        <pt x="1504" y="19" on="1"/>
        <pt x="1514" y="-3" on="1"/>
        <pt x="1062" y="-3" on="1"/>
        <pt x="1026" y="-2" on="1"/>
        <pt x="986" y="-2" on="0"/>
        <pt x="965" y="-3" on="1"/>
        <pt x="933" y="57" on="0"/>
        <pt x="904" y="161" on="1"/>
        <pt x="891" y="134" on="0"/>
        <pt x="828" y="65" on="0"/>
        <pt x="813" y="65" on="1"/>
        <pt x="666" y="-7" on="0"/>
        <pt x="588" y="-17" on="1"/>
        <pt x="474" y="-36" on="0"/>
        <pt x="457" y="-36" on="0"/>
        <pt x="457" y="-36" on="1"/>
        <pt x="218" y="-36" on="0"/>
        <pt x="96" y="130" on="1"/>
        <pt x="35" y="215" on="0"/>
        <pt x="35" y="327" on="1"/>
        <pt x="35" y="570" on="0"/>
        <pt x="261" y="625" on="1"/>
        <pt x="319" y="639" on="0"/>
        <pt x="485" y="654" on="1"/>
        <pt x="518" y="657" on="1"/>
        <pt x="564" y="664" on="1"/>
        <pt x="574" y="663" on="1"/>
        <pt x="598" y="663" on="1"/>
        <pt x="632" y="663" on="0"/>
        <pt x="651" y="668" on="1"/>
        <pt x="705" y="675" on="1"/>
        <pt x="843" y="685" on="0"/>
        <pt x="871" y="749" on="1"/>
        <pt x="885" y="781" on="0"/>
        <pt x="885" y="830" on="1"/>
        <pt x="879" y="840" on="0"/>
        <pt x="879" y="896" on="0"/>
        <pt x="822" y="958" on="0"/>
        <pt x="783" y="958" on="1"/>
        <pt x="778" y="958" on="1"/>
        <pt x="682" y="958" on="0"/>
        <pt x="682" y="795" on="1"/>
        <pt x="677" y="787" on="0"/>
        <pt x="654" y="791" on="0"/>
        <pt x="610" y="791" on="1"/>
        <pt x="94" y="791" on="1"/>
        <pt x="99" y="862" on="0"/>
        <pt x="130" y="940" on="1"/>
        <pt x="189" y="1094" on="0"/>
        <pt x="528" y="1229" on="0"/>
        <pt x="695" y="1235" on="1"/>
        <pt x="755" y="1238" on="1"/>
        <pt x="787" y="1241" on="1"/>
        <pt x="793" y="1241" on="0"/>
        <pt x="799" y="1238" on="1"/>
        <pt x="812" y="1238" on="1"/>
        <pt x="857" y="1240" on="1"/>
        <pt x="871" y="1240" on="0"/>
        <pt x="920" y="1233" on="1"/>
        <pt x="949" y="1229" on="1"/>
        <pt x="956" y="1228" on="0"/>
        <pt x="986" y="1228" on="0"/>
        <pt x="1082" y="1215" on="0"/>
        <pt x="1225" y="1159" on="0"/>
        <pt x="1324" y="1085" on="0"/>
        <pt x="1360" y="1033" on="1"/>
        <pt x="1428" y="935" on="0"/>
        <pt x="1472" y="704" on="0"/>
        <pt x="1472" y="564" on="1"/>
        <pt x="1479" y="541" on="0"/>
        <pt x="1479" y="522" on="1"/>
        <pt x="1474" y="453" on="1"/>
        <pt x="1474" y="337" on="1"/>
        <pt x="1475" y="335" on="0"/>
        <pt x="1475" y="320" on="1"/>
        <pt x="1473" y="252" on="1"/>
        <pt x="1473" y="243" on="1"/>
        <pt x="1476" y="238" on="0"/>
      </contour>
      <contour>
        <pt x="892" y="432" on="1"/>
        <pt x="893" y="464" on="1"/>
        <pt x="893" y="514" on="0"/>
        <pt x="885" y="560" on="1"/>
        <pt x="863" y="548" on="0"/>
        <pt x="779" y="518" on="0"/>
        <pt x="729" y="497" on="0"/>
        <pt x="688" y="444" on="0"/>
        <pt x="688" y="352" on="0"/>
        <pt x="747" y="276" on="0"/>
        <pt x="782" y="276" on="1"/>
        <pt x="857" y="276" on="0"/>
        <pt x="889" y="330" on="1"/>
        <pt x="891" y="340" on="1"/>
        <pt x="892" y="402" on="1"/>
      </contour>
      <contour>
        <pt x="525" y="1410" on="1"/>
        <pt x="509" y="1409" on="1"/>
        <pt x="460" y="1409" on="1"/>
        <pt x="445" y="1438" on="1"/>
        <pt x="613" y="1724" on="1"/>
        <pt x="656" y="1787" on="0"/>
        <pt x="662" y="1794" on="1"/>
        <pt x="732" y="1794" on="1"/>
        <pt x="1150" y="1784" on="1"/>
        <pt x="1150" y="1781" on="1"/>
        <pt x="1110" y="1735" on="0"/>
        <pt x="928" y="1532" on="0"/>
        <pt x="842" y="1434" on="0"/>
        <pt x="779" y="1414" on="0"/>
        <pt x="708" y="1413" on="1"/>
      </contour>
    </TTGlyph>
    <TTGlyph name="acircumflex" xMin="35" yMin="-37" xMax="1514" yMax="1778">
      <component glyphName="a" x="0" y="0" flags="0x1004"/>
      <component glyphName="circumflex" x="428" y="0" flags="0x1004"/>
    </TTGlyph>
    <TTGlyph name="acute" xMin="45" yMin="1409" xMax="750" yMax="1794">
      <contour>
        <pt x="125" y="1410" on="1"/>
        <pt x="109" y="1409" on="1"/>
        <pt x="60" y="1409" on="1"/>
        <pt x="45" y="1438" on="1"/>
        <pt x="213" y="1724" on="1"/>
        <pt x="256" y="1787" on="0"/>
        <pt x="262" y="1794" on="1"/>
        <pt x="332" y="1794" on="1"/>
        <pt x="750" y="1784" on="1"/>
        <pt x="750" y="1781" on="1"/>
        <pt x="710" y="1735" on="0"/>
        <pt x="528" y="1532" on="0"/>
        <pt x="442" y="1434" on="0"/>
        <pt x="379" y="1414" on="0"/>
        <pt x="308" y="1413" on="1"/>
      </contour>
    </TTGlyph>
    <TTGlyph name="adieresis" xMin="35" yMin="-37" xMax="1514" yMax="1813">
      <component glyphName="a" x="0" y="0" flags="0x1004"/>
      <component glyphName="dieresis" x="435" y="0" flags="0x1004"/>
    </TTGlyph>
    <TTGlyph name="ae" xMin="-64" yMin="5" xMax="2072" yMax="1404">
      <contour>
        <pt x="1438" y="1033" on="1"/>
        <pt x="1399" y="1033" on="0"/>
        <pt x="1246" y="1042" on="1"/>
        <pt x="1246" y="1015" on="0"/>
        <pt x="1257" y="977" on="0"/>
        <pt x="1257" y="972" on="1"/>
        <pt x="1279" y="884" on="1"/>
        <pt x="1297" y="883" on="1"/>
        <pt x="1343" y="883" on="1"/>
        <pt x="1716" y="889" on="1"/>
        <pt x="1739" y="889" on="0"/>
        <pt x="1756" y="872" on="0"/>
        <pt x="1763" y="833" on="0"/>
        <pt x="1768" y="824" on="1"/>
        <pt x="1779" y="785" on="1"/>
        <pt x="1784" y="777" on="0"/>
        <pt x="1789" y="755" on="0"/>
        <pt x="1792" y="749" on="1"/>
        <pt x="1807" y="698" on="1"/>
        <pt x="1816" y="666" on="0"/>
        <pt x="1849" y="571" on="1"/>
        <pt x="1580" y="563" on="1"/>
        <pt x="1470" y="563" on="1"/>
        <pt x="1453" y="563" on="0"/>
        <pt x="1387" y="566" on="1"/>
        <pt x="1396" y="530" on="1"/>
        <pt x="1396" y="523" on="0"/>
        <pt x="1401" y="514" on="1"/>
        <pt x="1432" y="407" on="1"/>
        <pt x="1450" y="406" on="1"/>
        <pt x="1465" y="406" on="1"/>
        <pt x="1900" y="416" on="1"/>
        <pt x="1927" y="416" on="0"/>
        <pt x="1964" y="400" on="1"/>
        <pt x="1986" y="329" on="1"/>
        <pt x="1997" y="301" on="1"/>
        <pt x="1996" y="302" on="1"/>
        <pt x="2050" y="122" on="1"/>
        <pt x="2051" y="116" on="0"/>
        <pt x="2060" y="101" on="0"/>
        <pt x="2060" y="93" on="1"/>
        <pt x="2067" y="69" on="1"/>
        <pt x="2072" y="54" on="0"/>
        <pt x="2072" y="44" on="0"/>
        <pt x="2063" y="44" on="1"/>
        <pt x="2049" y="44" on="1"/>
        <pt x="1980" y="47" on="1"/>
        <pt x="1930" y="47" on="1"/>
        <pt x="1918" y="48" on="1"/>
        <pt x="1826" y="48" on="1"/>
        <pt x="1818" y="49" on="1"/>
        <pt x="1767" y="49" on="1"/>
        <pt x="1687" y="49" on="0"/>
        <pt x="1527" y="51" on="1"/>
        <pt x="1519" y="47" on="0"/>
        <pt x="1491" y="47" on="1"/>
        <pt x="1394" y="47" on="1"/>
        <pt x="1366" y="46" on="0"/>
        <pt x="1259" y="46" on="0"/>
        <pt x="1238" y="47" on="1"/>
        <pt x="1150" y="43" on="1"/>
        <pt x="1150" y="47" on="1"/>
        <pt x="1088" y="47" on="1"/>
        <pt x="1034" y="45" on="1"/>
        <pt x="970" y="45" on="0"/>
        <pt x="968" y="64" on="1"/>
        <pt x="927" y="217" on="1"/>
        <pt x="920" y="248" on="0"/>
        <pt x="907" y="258" on="0"/>
        <pt x="874" y="258" on="1"/>
        <pt x="540" y="258" on="1"/>
        <pt x="526" y="217" on="0"/>
        <pt x="515" y="170" on="1"/>
        <pt x="489" y="59" on="1"/>
        <pt x="479" y="42" on="0"/>
        <pt x="396" y="42" on="1"/>
        <pt x="384" y="43" on="1"/>
        <pt x="313" y="43" on="1"/>
        <pt x="269" y="40" on="0"/>
        <pt x="188" y="40" on="1"/>
        <pt x="-21" y="40" on="1"/>
        <pt x="-29" y="39" on="1"/>
        <pt x="-45" y="55" on="1"/>
        <pt x="-45" y="57" on="0"/>
        <pt x="-47" y="59" on="1"/>
        <pt x="-24" y="129" on="1"/>
        <pt x="-22" y="136" on="0"/>
        <pt x="-9" y="188" on="0"/>
        <pt x="3" y="208" on="1"/>
        <pt x="2" y="208" on="1"/>
        <pt x="27" y="278" on="0"/>
        <pt x="66" y="394" on="1"/>
        <pt x="90" y="473" on="1"/>
        <pt x="89" y="473" on="1"/>
        <pt x="120" y="567" on="0"/>
        <pt x="259" y="980" on="0"/>
        <pt x="290" y="1074" on="1"/>
        <pt x="311" y="1135" on="1"/>
        <pt x="346" y="1225" on="0"/>
        <pt x="396" y="1386" on="1"/>
        <pt x="395" y="1386" on="1"/>
        <pt x="403" y="1401" on="1"/>
        <pt x="439" y="1400" on="0"/>
        <pt x="511" y="1400" on="1"/>
        <pt x="658" y="1400" on="1"/>
        <pt x="667" y="1399" on="0"/>
        <pt x="692" y="1399" on="1"/>
        <pt x="793" y="1399" on="1"/>
        <pt x="827" y="1398" on="1"/>
        <pt x="862" y="1398" on="1"/>
        <pt x="941" y="1397" on="1"/>
        <pt x="957" y="1397" on="1"/>
        <pt x="1006" y="1397" on="0"/>
        <pt x="1049" y="1392" on="1"/>
        <pt x="1158" y="1396" on="0"/>
        <pt x="1350" y="1396" on="1"/>
        <pt x="1403" y="1396" on="1"/>
        <pt x="1428" y="1397" on="1"/>
        <pt x="1624" y="1397" on="1"/>
        <pt x="1640" y="1392" on="0"/>
        <pt x="1667" y="1302" on="0"/>
        <pt x="1679" y="1258" on="0"/>
        <pt x="1682" y="1250" on="1"/>
        <pt x="1747" y="1037" on="1"/>
        <pt x="1739" y="1030" on="0"/>
        <pt x="1723" y="1030" on="0"/>
        <pt x="1720" y="1031" on="1"/>
        <pt x="1706" y="1031" on="1"/>
        <pt x="1693" y="1032" on="1"/>
        <pt x="1480" y="1034" on="1"/>
      </contour>
      <contour>
        <pt x="594" y="658" on="1"/>
        <pt x="585" y="606" on="1"/>
        <pt x="590" y="564" on="1"/>
        <pt x="620" y="564" on="0"/>
        <pt x="650" y="566" on="1"/>
        <pt x="811" y="561" on="1"/>
        <pt x="815" y="562" on="0"/>
        <pt x="816" y="562" on="1"/>
        <pt x="821" y="562" on="1"/>
        <pt x="861" y="562" on="0"/>
        <pt x="882" y="585" on="0"/>
        <pt x="882" y="628" on="0"/>
        <pt x="867" y="684" on="1"/>
        <pt x="867" y="681" on="1"/>
        <pt x="859" y="711" on="1"/>
        <pt x="853" y="729" on="0"/>
        <pt x="853" y="736" on="1"/>
        <pt x="825" y="862" on="1"/>
        <pt x="820" y="884" on="0"/>
        <pt x="815" y="911" on="1"/>
        <pt x="800" y="989" on="1"/>
        <pt x="798" y="992" on="0"/>
        <pt x="793" y="1010" on="1"/>
        <pt x="793" y="1007" on="1"/>
        <pt x="775" y="1087" on="1"/>
        <pt x="767" y="1119" on="0"/>
        <pt x="738" y="1132" on="1"/>
        <pt x="699" y="1118" on="0"/>
        <pt x="666" y="972" on="1"/>
        <pt x="657" y="923" on="1"/>
        <pt x="653" y="913" on="0"/>
        <pt x="651" y="905" on="1"/>
        <pt x="645" y="882" on="1"/>
        <pt x="629" y="805" on="0"/>
      </contour>
      <contour>
        <pt x="-46" y="55" on="1"/>
        <pt x="-43" y="55" on="0"/>
        <pt x="-41" y="33" on="0"/>
        <pt x="-45" y="32" on="1"/>
        <pt x="-56" y="5" on="1"/>
        <pt x="-64" y="13" on="0"/>
        <pt x="-64" y="41" on="0"/>
        <pt x="-59" y="53" on="1"/>
        <pt x="-57" y="53" on="1"/>
        <pt x="-59" y="53" on="1"/>
        <pt x="-56" y="59" on="0"/>
        <pt x="-50" y="65" on="1"/>
        <pt x="-47" y="59" on="1"/>
        <pt x="-48" y="56" on="1"/>
        <pt x="-48" y="53" on="0"/>
        <pt x="-57" y="53" on="1"/>
        <pt x="-46" y="53" on="1"/>
      </contour>
      <contour>
        <pt x="1150" y="43" on="1"/>
        <pt x="1151" y="33" on="1"/>
        <pt x="1141" y="59" on="1"/>
      </contour>
      <contour>
        <pt x="1754" y="1033" on="1"/>
        <pt x="1749" y="1034" on="0"/>
        <pt x="1747" y="1037" on="1"/>
        <pt x="1749" y="1038" on="0"/>
        <pt x="1754" y="1038" on="0"/>
      </contour>
      <contour>
        <pt x="1850" y="570" on="1"/>
        <pt x="1856" y="570" on="1"/>
        <pt x="1852" y="569" on="0"/>
        <pt x="1852" y="567" on="1"/>
        <pt x="1852" y="565" on="1"/>
        <pt x="1850" y="570" on="1"/>
        <pt x="1849" y="570" on="0"/>
        <pt x="1849" y="571" on="1"/>
      </contour>
      <contour>
        <pt x="407" y="1404" on="1"/>
        <pt x="400" y="1401" on="1"/>
      </contour>
    </TTGlyph>
    <TTGlyph name="agrave" xMin="35" yMin="-37" xMax="1514" yMax="1819">
      <component glyphName="a" x="0" y="0" flags="0x1004"/>
      <component glyphName="grave" x="553" y="0" flags="0x1004"/>
    </TTGlyph>
    <TTGlyph name="ampersand" xMin="17" yMin="-72" xMax="1882" yMax="1551">
      <contour>
        <pt x="1522" y="792" on="1"/>
        <pt x="1682" y="788" on="1"/>
        <pt x="1684" y="788" on="1"/>
        <pt x="1750" y="788" on="0"/>
        <pt x="1777" y="790" on="1"/>
        <pt x="1785" y="785" on="0"/>
        <pt x="1791" y="771" on="1"/>
        <pt x="1786" y="736" on="1"/>
        <pt x="1776" y="622" on="0"/>
        <pt x="1673" y="394" on="0"/>
        <pt x="1584" y="305" on="1"/>
        <pt x="1779" y="103" on="1"/>
        <pt x="1807" y="73" on="0"/>
        <pt x="1826" y="48" on="1"/>
        <pt x="1846" y="29" on="1"/>
        <pt x="1880" y="-4" on="0"/>
        <pt x="1882" y="-19" on="1"/>
        <pt x="1882" y="-35" on="0"/>
        <pt x="1822" y="-35" on="1"/>
        <pt x="1775" y="-34" on="1"/>
        <pt x="1516" y="-34" on="1"/>
        <pt x="1402" y="-34" on="0"/>
        <pt x="1302" y="-30" on="1"/>
        <pt x="1269" y="-12" on="0"/>
        <pt x="1243" y="14" on="1"/>
        <pt x="1204" y="47" on="1"/>
        <pt x="1151" y="20" on="1"/>
        <pt x="937" y="-60" on="0"/>
        <pt x="794" y="-69" on="1"/>
        <pt x="705" y="-72" on="1"/>
        <pt x="507" y="-72" on="0"/>
        <pt x="191" y="44" on="0"/>
        <pt x="17" y="246" on="0"/>
        <pt x="17" y="370" on="1"/>
        <pt x="17" y="664" on="0"/>
        <pt x="417" y="811" on="1"/>
        <pt x="310" y="880" on="0"/>
        <pt x="171" y="1074" on="0"/>
        <pt x="171" y="1157" on="1"/>
        <pt x="171" y="1312" on="0"/>
        <pt x="273" y="1407" on="1"/>
        <pt x="335" y="1465" on="0"/>
        <pt x="601" y="1551" on="0"/>
        <pt x="760" y="1551" on="1"/>
        <pt x="1096" y="1551" on="0"/>
        <pt x="1262" y="1435" on="1"/>
        <pt x="1388" y="1346" on="0"/>
        <pt x="1388" y="1190" on="1"/>
        <pt x="1388" y="1076" on="0"/>
        <pt x="1235" y="886" on="0"/>
        <pt x="1083" y="776" on="1"/>
        <pt x="1136" y="723" on="0"/>
        <pt x="1165" y="699" on="1"/>
        <pt x="1165" y="700" on="1"/>
        <pt x="1273" y="597" on="1"/>
        <pt x="1328" y="671" on="0"/>
        <pt x="1335" y="770" on="0"/>
        <pt x="1355" y="780" on="1"/>
        <pt x="1381" y="792" on="0"/>
      </contour>
      <contour>
        <pt x="1012" y="281" on="1"/>
        <pt x="969" y="315" on="0"/>
        <pt x="921" y="371" on="0"/>
        <pt x="915" y="377" on="1"/>
        <pt x="764" y="521" on="1"/>
        <pt x="751" y="521" on="0"/>
        <pt x="738" y="546" on="0"/>
        <pt x="671" y="611" on="0"/>
        <pt x="645" y="612" on="1"/>
        <pt x="591" y="586" on="0"/>
        <pt x="502" y="456" on="0"/>
        <pt x="502" y="333" on="0"/>
        <pt x="542" y="286" on="1"/>
        <pt x="617" y="201" on="0"/>
        <pt x="861" y="201" on="0"/>
      </contour>
      <contour>
        <pt x="762" y="975" on="1"/>
        <pt x="761" y="976" on="1"/>
        <pt x="774" y="968" on="0"/>
        <pt x="802" y="968" on="0"/>
        <pt x="813" y="973" on="1"/>
        <pt x="926" y="1059" on="0"/>
        <pt x="954" y="1121" on="1"/>
        <pt x="967" y="1151" on="0"/>
        <pt x="967" y="1235" on="0"/>
        <pt x="933" y="1269" on="1"/>
        <pt x="876" y="1326" on="0"/>
        <pt x="701" y="1326" on="0"/>
        <pt x="595" y="1241" on="0"/>
        <pt x="595" y="1169" on="1"/>
        <pt x="605" y="1071" on="0"/>
      </contour>
    </TTGlyph>
    <TTGlyph name="approxequal" xMin="34" yMin="176" xMax="1297" yMax="1073">
      <contour>
        <pt x="1115" y="1072" on="1"/>
        <pt x="1151" y="1068" on="1"/>
        <pt x="1176" y="1042" on="0"/>
        <pt x="1268" y="943" on="0"/>
        <pt x="1293" y="918" on="1"/>
        <pt x="1297" y="910" on="1"/>
        <pt x="1297" y="909" on="0"/>
        <pt x="1291" y="895" on="1"/>
        <pt x="1111" y="649" on="0"/>
        <pt x="916" y="649" on="1"/>
        <pt x="816" y="649" on="0"/>
        <pt x="678" y="736" on="1"/>
        <pt x="510" y="816" on="0"/>
        <pt x="448" y="822" on="1"/>
        <pt x="352" y="822" on="0"/>
        <pt x="275" y="733" on="1"/>
        <pt x="256" y="714" on="1"/>
        <pt x="241" y="699" on="0"/>
        <pt x="211" y="664" on="0"/>
        <pt x="208" y="664" on="0"/>
        <pt x="206" y="666" on="1"/>
        <pt x="61" y="813" on="1"/>
        <pt x="221" y="1073" on="0"/>
        <pt x="465" y="1073" on="1"/>
        <pt x="578" y="1073" on="0"/>
        <pt x="688" y="1008" on="1"/>
        <pt x="751" y="971" on="0"/>
        <pt x="856" y="917" on="0"/>
        <pt x="899" y="917" on="1"/>
        <pt x="1001" y="917" on="0"/>
      </contour>
      <contour>
        <pt x="34" y="815" on="1"/>
        <pt x="55" y="815" on="1"/>
        <pt x="56" y="802" on="1"/>
        <pt x="37" y="802" on="0"/>
        <pt x="34" y="810" on="0"/>
      </contour>
      <contour>
        <pt x="1115" y="596" on="1"/>
        <pt x="1152" y="590" on="1"/>
        <pt x="1295" y="443" on="1"/>
        <pt x="1297" y="435" on="0"/>
        <pt x="1297" y="430" on="0"/>
        <pt x="1294" y="427" on="1"/>
        <pt x="1220" y="317" on="0"/>
        <pt x="1034" y="176" on="0"/>
        <pt x="811" y="176" on="0"/>
        <pt x="678" y="259" on="1"/>
        <pt x="512" y="336" on="0"/>
        <pt x="446" y="342" on="1"/>
        <pt x="346" y="342" on="0"/>
        <pt x="272" y="257" on="1"/>
        <pt x="254" y="238" on="1"/>
        <pt x="210" y="190" on="0"/>
        <pt x="208" y="190" on="0"/>
        <pt x="206" y="192" on="1"/>
        <pt x="56" y="342" on="1"/>
        <pt x="132" y="450" on="0"/>
        <pt x="348" y="595" on="0"/>
        <pt x="574" y="595" on="0"/>
        <pt x="818" y="441" on="0"/>
        <pt x="996" y="441" on="0"/>
      </contour>
      <contour>
        <pt x="56" y="341" on="1"/>
        <pt x="55" y="344" on="1"/>
        <pt x="56" y="342" on="1"/>
      </contour>
    </TTGlyph>
    <TTGlyph name="aring" xMin="35" yMin="-37" xMax="1514" yMax="1977">
      <contour>
        <pt x="1476" y="229" on="1"/>
        <pt x="1475" y="220" on="1"/>
        <pt x="1475" y="199" on="1"/>
        <pt x="1475" y="104" on="0"/>
        <pt x="1504" y="19" on="1"/>
        <pt x="1514" y="-3" on="1"/>
        <pt x="1062" y="-3" on="1"/>
        <pt x="1026" y="-2" on="1"/>
        <pt x="986" y="-2" on="0"/>
        <pt x="965" y="-3" on="1"/>
        <pt x="933" y="57" on="0"/>
        <pt x="904" y="161" on="1"/>
        <pt x="891" y="134" on="0"/>
        <pt x="828" y="65" on="0"/>
        <pt x="813" y="65" on="1"/>
        <pt x="666" y="-7" on="0"/>
        <pt x="588" y="-17" on="1"/>
        <pt x="474" y="-36" on="0"/>
        <pt x="457" y="-36" on="0"/>
        <pt x="457" y="-36" on="1"/>
        <pt x="218" y="-36" on="0"/>
        <pt x="96" y="130" on="1"/>
        <pt x="35" y="215" on="0"/>
        <pt x="35" y="327" on="1"/>
        <pt x="35" y="570" on="0"/>
        <pt x="261" y="625" on="1"/>
        <pt x="319" y="639" on="0"/>
        <pt x="485" y="654" on="1"/>
        <pt x="518" y="657" on="1"/>
        <pt x="564" y="664" on="1"/>
        <pt x="574" y="663" on="1"/>
        <pt x="598" y="663" on="1"/>
        <pt x="632" y="663" on="0"/>
        <pt x="651" y="668" on="1"/>
        <pt x="705" y="675" on="1"/>
        <pt x="843" y="685" on="0"/>
        <pt x="871" y="749" on="1"/>
        <pt x="885" y="781" on="0"/>
        <pt x="885" y="830" on="1"/>
        <pt x="879" y="840" on="0"/>
        <pt x="879" y="896" on="0"/>
        <pt x="822" y="958" on="0"/>
        <pt x="783" y="958" on="1"/>
        <pt x="778" y="958" on="1"/>
        <pt x="682" y="958" on="0"/>
        <pt x="682" y="795" on="1"/>
        <pt x="677" y="787" on="0"/>
        <pt x="654" y="791" on="0"/>
        <pt x="610" y="791" on="1"/>
        <pt x="94" y="791" on="1"/>
        <pt x="99" y="862" on="0"/>
        <pt x="130" y="940" on="1"/>
        <pt x="189" y="1094" on="0"/>
        <pt x="528" y="1229" on="0"/>
        <pt x="695" y="1235" on="1"/>
        <pt x="755" y="1238" on="1"/>
        <pt x="787" y="1241" on="1"/>
        <pt x="793" y="1241" on="0"/>
        <pt x="799" y="1238" on="1"/>
        <pt x="812" y="1238" on="1"/>
        <pt x="857" y="1240" on="1"/>
        <pt x="871" y="1240" on="0"/>
        <pt x="920" y="1233" on="1"/>
        <pt x="949" y="1229" on="1"/>
        <pt x="956" y="1228" on="0"/>
        <pt x="986" y="1228" on="0"/>
        <pt x="1082" y="1215" on="0"/>
        <pt x="1225" y="1159" on="0"/>
        <pt x="1324" y="1085" on="0"/>
        <pt x="1360" y="1033" on="1"/>
        <pt x="1428" y="935" on="0"/>
        <pt x="1472" y="704" on="0"/>
        <pt x="1472" y="564" on="1"/>
        <pt x="1479" y="541" on="0"/>
        <pt x="1479" y="522" on="1"/>
        <pt x="1474" y="453" on="1"/>
        <pt x="1474" y="337" on="1"/>
        <pt x="1475" y="335" on="0"/>
        <pt x="1475" y="320" on="1"/>
        <pt x="1473" y="252" on="1"/>
        <pt x="1473" y="243" on="1"/>
        <pt x="1476" y="238" on="0"/>
      </contour>
      <contour>
        <pt x="892" y="432" on="1"/>
        <pt x="893" y="464" on="1"/>
        <pt x="893" y="514" on="0"/>
        <pt x="885" y="560" on="1"/>
        <pt x="863" y="548" on="0"/>
        <pt x="779" y="518" on="0"/>
        <pt x="729" y="497" on="0"/>
        <pt x="688" y="444" on="0"/>
        <pt x="688" y="352" on="0"/>
        <pt x="747" y="276" on="0"/>
        <pt x="782" y="276" on="1"/>
        <pt x="857" y="276" on="0"/>
        <pt x="889" y="330" on="1"/>
        <pt x="891" y="340" on="1"/>
        <pt x="892" y="402" on="1"/>
      </contour>
      <contour>
        <pt x="907" y="1977" on="0"/>
        <pt x="1083" y="1814" on="0"/>
        <pt x="1083" y="1575" on="0"/>
        <pt x="912" y="1411" on="0"/>
        <pt x="800" y="1411" on="1"/>
        <pt x="619" y="1411" on="0"/>
        <pt x="535" y="1588" on="1"/>
        <pt x="512" y="1637" on="0"/>
        <pt x="504" y="1689" on="1"/>
        <pt x="505" y="1690" on="0"/>
        <pt x="513" y="1745" on="0"/>
        <pt x="552" y="1843" on="0"/>
        <pt x="586" y="1885" on="1"/>
        <pt x="659" y="1977" on="0"/>
      </contour>
      <contour>
        <pt x="928" y="1758" on="0"/>
        <pt x="848" y="1830" on="0"/>
        <pt x="744" y="1830" on="0"/>
        <pt x="664" y="1765" on="0"/>
        <pt x="653" y="1708" on="1"/>
        <pt x="653" y="1639" on="0"/>
        <pt x="744" y="1560" on="0"/>
        <pt x="851" y="1560" on="0"/>
        <pt x="928" y="1631" on="0"/>
      </contour>
    </TTGlyph>
    <TTGlyph name="asciicircum" xMin="133" yMin="756" xMax="1158" yMax="1537">
      <contour>
        <pt x="1007" y="756" on="1"/>
        <pt x="904" y="759" on="1"/>
        <pt x="882" y="759" on="1"/>
        <pt x="867" y="759" on="0"/>
        <pt x="821" y="856" on="0"/>
        <pt x="799" y="904" on="0"/>
        <pt x="794" y="913" on="1"/>
        <pt x="754" y="995" on="1"/>
        <pt x="699" y="1117" on="0"/>
        <pt x="647" y="1218" on="1"/>
        <pt x="439" y="781" on="1"/>
        <pt x="432" y="774" on="0"/>
        <pt x="429" y="772" on="1"/>
        <pt x="409" y="772" on="1"/>
        <pt x="197" y="770" on="1"/>
        <pt x="170" y="771" on="1"/>
        <pt x="159" y="771" on="0"/>
        <pt x="155" y="769" on="1"/>
        <pt x="211" y="895" on="0"/>
        <pt x="307" y="1087" on="1"/>
        <pt x="384" y="1248" on="1"/>
        <pt x="407" y="1295" on="0"/>
        <pt x="499" y="1488" on="0"/>
        <pt x="522" y="1535" on="1"/>
        <pt x="524" y="1537" on="1"/>
        <pt x="605" y="1536" on="0"/>
        <pt x="770" y="1536" on="0"/>
        <pt x="776" y="1537" on="1"/>
        <pt x="777" y="1536" on="0"/>
        <pt x="780" y="1518" on="1"/>
        <pt x="842" y="1395" on="0"/>
        <pt x="1096" y="904" on="0"/>
        <pt x="1158" y="782" on="1"/>
        <pt x="1146" y="756" on="0"/>
      </contour>
      <contour>
        <pt x="154" y="768" on="1"/>
        <pt x="151" y="761" on="1"/>
        <pt x="145" y="761" on="1"/>
        <pt x="137" y="769" on="1"/>
      </contour>
      <contour>
        <pt x="137" y="768" on="1"/>
        <pt x="133" y="768" on="1"/>
        <pt x="134" y="771" on="1"/>
      </contour>
      <contour>
        <pt x="154" y="767" on="1"/>
        <pt x="154" y="762" on="0"/>
        <pt x="151" y="761" on="1"/>
      </contour>
      <contour>
        <pt x="155" y="769" on="1"/>
        <pt x="154" y="768" on="1"/>
        <pt x="154" y="769" on="0"/>
      </contour>
    </TTGlyph>
    <TTGlyph name="asciitilde" xMin="138" yMin="295" xMax="1176" yMax="772">
      <contour>
        <pt x="1056" y="745" on="1"/>
        <pt x="1052" y="753" on="0"/>
        <pt x="1050" y="766" on="1"/>
        <pt x="1060" y="770" on="1"/>
        <pt x="1070" y="760" on="1"/>
        <pt x="1080" y="761" on="1"/>
        <pt x="1098" y="761" on="0"/>
        <pt x="1176" y="543" on="0"/>
        <pt x="1176" y="489" on="0"/>
        <pt x="1175" y="485" on="1"/>
        <pt x="1175" y="480" on="1"/>
        <pt x="1112" y="392" on="0"/>
        <pt x="976" y="295" on="0"/>
        <pt x="806" y="295" on="0"/>
        <pt x="690" y="352" on="1"/>
        <pt x="681" y="354" on="0"/>
        <pt x="675" y="358" on="1"/>
        <pt x="651" y="370" on="1"/>
        <pt x="525" y="433" on="0"/>
        <pt x="392" y="433" on="0"/>
        <pt x="316" y="371" on="0"/>
        <pt x="280" y="305" on="1"/>
        <pt x="211" y="315" on="1"/>
        <pt x="195" y="358" on="1"/>
        <pt x="195" y="359" on="0"/>
        <pt x="186" y="379" on="0"/>
        <pt x="184" y="386" on="1"/>
        <pt x="185" y="385" on="1"/>
        <pt x="138" y="510" on="0"/>
        <pt x="138" y="563" on="1"/>
        <pt x="138" y="566" on="0"/>
        <pt x="140" y="568" on="1"/>
        <pt x="257" y="772" on="0"/>
        <pt x="427" y="772" on="1"/>
        <pt x="500" y="772" on="0"/>
        <pt x="596" y="731" on="0"/>
        <pt x="651" y="706" on="1"/>
        <pt x="684" y="688" on="1"/>
        <pt x="698" y="681" on="0"/>
        <pt x="700" y="681" on="1"/>
        <pt x="830" y="616" on="0"/>
        <pt x="875" y="616" on="1"/>
        <pt x="970" y="616" on="0"/>
      </contour>
    </TTGlyph>
    <TTGlyph name="asterisk" xMin="89" yMin="769" xMax="860" yMax="1538">
      <contour>
        <pt x="584" y="1537" on="1"/>
        <pt x="747" y="1462" on="0"/>
        <pt x="747" y="1429" on="0"/>
        <pt x="682" y="1337" on="0"/>
        <pt x="641" y="1246" on="1"/>
        <pt x="707" y="1252" on="1"/>
        <pt x="737" y="1258" on="0"/>
        <pt x="797" y="1258" on="1"/>
        <pt x="810" y="1258" on="1"/>
        <pt x="844" y="1258" on="0"/>
        <pt x="860" y="1247" on="0"/>
        <pt x="860" y="1163" on="0"/>
        <pt x="854" y="1131" on="1"/>
        <pt x="854" y="1073" on="1"/>
        <pt x="854" y="1069" on="0"/>
        <pt x="648" y="1069" on="1"/>
        <pt x="690" y="1004" on="1"/>
        <pt x="689" y="1004" on="1"/>
        <pt x="711" y="963" on="0"/>
        <pt x="718" y="944" on="1"/>
        <pt x="732" y="921" on="1"/>
        <pt x="748" y="899" on="0"/>
        <pt x="756" y="876" on="1"/>
        <pt x="627" y="793" on="1"/>
        <pt x="628" y="795" on="1"/>
        <pt x="589" y="774" on="1"/>
        <pt x="590" y="775" on="1"/>
        <pt x="572" y="788" on="0"/>
        <pt x="484" y="953" on="1"/>
        <pt x="442" y="872" on="1"/>
        <pt x="442" y="873" on="1"/>
        <pt x="390" y="769" on="0"/>
        <pt x="371" y="769" on="0"/>
        <pt x="296" y="806" on="0"/>
        <pt x="276" y="826" on="1"/>
        <pt x="205" y="871" on="1"/>
        <pt x="197" y="873" on="1"/>
        <pt x="204" y="901" on="0"/>
        <pt x="268" y="1003" on="1"/>
        <pt x="290" y="1048" on="1"/>
        <pt x="193" y="1046" on="1"/>
        <pt x="179" y="1046" on="1"/>
        <pt x="124" y="1046" on="0"/>
        <pt x="92" y="1066" on="0"/>
        <pt x="89" y="1148" on="0"/>
        <pt x="89" y="1238" on="0"/>
        <pt x="108" y="1256" on="1"/>
        <pt x="206" y="1256" on="0"/>
        <pt x="308" y="1250" on="1"/>
        <pt x="252" y="1337" on="1"/>
        <pt x="207" y="1407" on="0"/>
        <pt x="200" y="1444" on="1"/>
        <pt x="202" y="1448" on="0"/>
        <pt x="239" y="1462" on="1"/>
        <pt x="333" y="1538" on="0"/>
        <pt x="373" y="1538" on="1"/>
        <pt x="374" y="1538" on="0"/>
        <pt x="390" y="1508" on="0"/>
        <pt x="420" y="1453" on="0"/>
        <pt x="429" y="1436" on="1"/>
        <pt x="490" y="1324" on="1"/>
        <pt x="506" y="1389" on="1"/>
        <pt x="524" y="1430" on="1"/>
        <pt x="534" y="1449" on="1"/>
        <pt x="537" y="1455" on="0"/>
        <pt x="570" y="1523" on="0"/>
      </contour>
      <contour>
        <pt x="759" y="869" on="1"/>
        <pt x="759" y="870" on="0"/>
        <pt x="758" y="878" on="1"/>
        <pt x="781" y="891" on="1"/>
        <pt x="800" y="867" on="0"/>
        <pt x="800" y="844" on="1"/>
        <pt x="759" y="852" on="1"/>
      </contour>
      <contour>
        <pt x="195" y="874" on="1"/>
        <pt x="197" y="873" on="1"/>
        <pt x="196" y="871" on="1"/>
        <pt x="196" y="872" on="0"/>
        <pt x="196" y="872" on="1"/>
      </contour>
      <contour>
        <pt x="193" y="875" on="1"/>
        <pt x="195" y="874" on="1"/>
        <pt x="193" y="874" on="0"/>
      </contour>
    </TTGlyph>
    <TTGlyph name="at" xMin="79" yMin="-12" xMax="1618" yMax="1522">
      <contour>
        <pt x="1286" y="445" on="1"/>
        <pt x="1486" y="529" on="0"/>
        <pt x="1486" y="862" on="1"/>
        <pt x="1486" y="952" on="0"/>
        <pt x="1453" y="1050" on="1"/>
        <pt x="1392" y="1232" on="0"/>
        <pt x="1090" y="1394" on="0"/>
        <pt x="892" y="1394" on="1"/>
        <pt x="626" y="1394" on="0"/>
        <pt x="436" y="1224" on="1"/>
        <pt x="344" y="1141" on="0"/>
        <pt x="235" y="879" on="0"/>
        <pt x="235" y="732" on="1"/>
        <pt x="235" y="449" on="0"/>
        <pt x="628" y="118" on="0"/>
        <pt x="889" y="118" on="1"/>
        <pt x="1026" y="118" on="0"/>
        <pt x="1125" y="146" on="1"/>
        <pt x="1128" y="136" on="0"/>
        <pt x="1133" y="114" on="0"/>
        <pt x="1136" y="106" on="1"/>
        <pt x="1159" y="35" on="1"/>
        <pt x="1021" y="-12" on="0"/>
        <pt x="680" y="-12" on="0"/>
        <pt x="406" y="102" on="0"/>
        <pt x="202" y="297" on="0"/>
        <pt x="79" y="575" on="0"/>
        <pt x="79" y="911" on="0"/>
        <pt x="214" y="1214" on="0"/>
        <pt x="437" y="1412" on="0"/>
        <pt x="721" y="1522" on="0"/>
        <pt x="1017" y="1522" on="0"/>
        <pt x="1284" y="1439" on="0"/>
        <pt x="1493" y="1289" on="0"/>
        <pt x="1618" y="1057" on="0"/>
        <pt x="1618" y="777" on="0"/>
        <pt x="1508" y="508" on="0"/>
        <pt x="1336" y="339" on="0"/>
        <pt x="1245" y="329" on="1"/>
        <pt x="1129" y="337" on="0"/>
        <pt x="1068" y="499" on="1"/>
        <pt x="1035" y="499" on="1"/>
        <pt x="976" y="425" on="0"/>
        <pt x="844" y="349" on="0"/>
        <pt x="623" y="349" on="0"/>
        <pt x="445" y="524" on="0"/>
        <pt x="445" y="647" on="1"/>
        <pt x="445" y="682" on="1"/>
        <pt x="445" y="840" on="0"/>
        <pt x="551" y="965" on="1"/>
        <pt x="663" y="1097" on="0"/>
        <pt x="866" y="1097" on="1"/>
        <pt x="976" y="1097" on="0"/>
        <pt x="1055" y="1021" on="1"/>
        <pt x="1127" y="914" on="1"/>
        <pt x="1137" y="950" on="1"/>
        <pt x="1141" y="965" on="0"/>
        <pt x="1169" y="1064" on="0"/>
        <pt x="1175" y="1088" on="1"/>
        <pt x="1259" y="1085" on="1"/>
        <pt x="1191" y="703" on="1"/>
        <pt x="1176" y="646" on="0"/>
        <pt x="1176" y="518" on="0"/>
        <pt x="1223" y="445" on="0"/>
      </contour>
      <contour>
        <pt x="1058" y="758" on="1"/>
        <pt x="1058" y="829" on="0"/>
        <pt x="966" y="950" on="0"/>
        <pt x="767" y="950" on="0"/>
        <pt x="635" y="807" on="0"/>
        <pt x="620" y="703" on="1"/>
        <pt x="620" y="604" on="0"/>
        <pt x="710" y="489" on="0"/>
        <pt x="777" y="487" on="1"/>
        <pt x="902" y="487" on="0"/>
        <pt x="1058" y="650" on="0"/>
      </contour>
    </TTGlyph>
    <TTGlyph name="atilde" xMin="35" yMin="-37" xMax="1514" yMax="1775">
      <contour>
        <pt x="1476" y="229" on="1"/>
        <pt x="1475" y="220" on="1"/>
        <pt x="1475" y="199" on="1"/>
        <pt x="1475" y="104" on="0"/>
        <pt x="1504" y="19" on="1"/>
        <pt x="1514" y="-3" on="1"/>
        <pt x="1062" y="-3" on="1"/>
        <pt x="1026" y="-2" on="1"/>
        <pt x="986" y="-2" on="0"/>
        <pt x="965" y="-3" on="1"/>
        <pt x="933" y="57" on="0"/>
        <pt x="904" y="161" on="1"/>
        <pt x="891" y="134" on="0"/>
        <pt x="828" y="65" on="0"/>
        <pt x="813" y="65" on="1"/>
        <pt x="666" y="-7" on="0"/>
        <pt x="588" y="-17" on="1"/>
        <pt x="474" y="-36" on="0"/>
        <pt x="457" y="-36" on="0"/>
        <pt x="457" y="-36" on="1"/>
        <pt x="218" y="-36" on="0"/>
        <pt x="96" y="130" on="1"/>
        <pt x="35" y="215" on="0"/>
        <pt x="35" y="327" on="1"/>
        <pt x="35" y="570" on="0"/>
        <pt x="261" y="625" on="1"/>
        <pt x="319" y="639" on="0"/>
        <pt x="485" y="654" on="1"/>
        <pt x="518" y="657" on="1"/>
        <pt x="564" y="664" on="1"/>
        <pt x="574" y="663" on="1"/>
        <pt x="598" y="663" on="1"/>
        <pt x="632" y="663" on="0"/>
        <pt x="651" y="668" on="1"/>
        <pt x="705" y="675" on="1"/>
        <pt x="843" y="685" on="0"/>
        <pt x="871" y="749" on="1"/>
        <pt x="885" y="781" on="0"/>
        <pt x="885" y="830" on="1"/>
        <pt x="879" y="840" on="0"/>
        <pt x="879" y="896" on="0"/>
        <pt x="822" y="958" on="0"/>
        <pt x="783" y="958" on="1"/>
        <pt x="778" y="958" on="1"/>
        <pt x="682" y="958" on="0"/>
        <pt x="682" y="795" on="1"/>
        <pt x="677" y="787" on="0"/>
        <pt x="654" y="791" on="0"/>
        <pt x="610" y="791" on="1"/>
        <pt x="94" y="791" on="1"/>
        <pt x="99" y="862" on="0"/>
        <pt x="130" y="940" on="1"/>
        <pt x="189" y="1094" on="0"/>
        <pt x="528" y="1229" on="0"/>
        <pt x="695" y="1235" on="1"/>
        <pt x="755" y="1238" on="1"/>
        <pt x="787" y="1241" on="1"/>
        <pt x="793" y="1241" on="0"/>
        <pt x="799" y="1238" on="1"/>
        <pt x="812" y="1238" on="1"/>
        <pt x="857" y="1240" on="1"/>
        <pt x="871" y="1240" on="0"/>
        <pt x="920" y="1233" on="1"/>
        <pt x="949" y="1229" on="1"/>
        <pt x="956" y="1228" on="0"/>
        <pt x="986" y="1228" on="0"/>
        <pt x="1082" y="1215" on="0"/>
        <pt x="1225" y="1159" on="0"/>
        <pt x="1324" y="1085" on="0"/>
        <pt x="1360" y="1033" on="1"/>
        <pt x="1428" y="935" on="0"/>
        <pt x="1472" y="704" on="0"/>
        <pt x="1472" y="564" on="1"/>
        <pt x="1479" y="541" on="0"/>
        <pt x="1479" y="522" on="1"/>
        <pt x="1474" y="453" on="1"/>
        <pt x="1474" y="337" on="1"/>
        <pt x="1475" y="335" on="0"/>
        <pt x="1475" y="320" on="1"/>
        <pt x="1473" y="252" on="1"/>
        <pt x="1473" y="243" on="1"/>
        <pt x="1476" y="238" on="0"/>
      </contour>
      <contour>
        <pt x="892" y="432" on="1"/>
        <pt x="893" y="464" on="1"/>
        <pt x="893" y="514" on="0"/>
        <pt x="885" y="560" on="1"/>
        <pt x="863" y="548" on="0"/>
        <pt x="779" y="518" on="0"/>
        <pt x="729" y="497" on="0"/>
        <pt x="688" y="444" on="0"/>
        <pt x="688" y="352" on="0"/>
        <pt x="747" y="276" on="0"/>
        <pt x="782" y="276" on="1"/>
        <pt x="857" y="276" on="0"/>
        <pt x="889" y="330" on="1"/>
        <pt x="891" y="340" on="1"/>
        <pt x="892" y="402" on="1"/>
      </contour>
      <contour>
        <pt x="971" y="1751" on="1"/>
        <pt x="994" y="1770" on="1"/>
        <pt x="1247" y="1763" on="1"/>
        <pt x="1250" y="1762" on="0"/>
        <pt x="1260" y="1748" on="1"/>
        <pt x="1238" y="1404" on="0"/>
        <pt x="976" y="1404" on="1"/>
        <pt x="922" y="1404" on="0"/>
        <pt x="834" y="1425" on="1"/>
        <pt x="776" y="1443" on="1"/>
        <pt x="670" y="1476" on="0"/>
        <pt x="621" y="1476" on="0"/>
        <pt x="600" y="1467" on="0"/>
        <pt x="596" y="1443" on="0"/>
        <pt x="592" y="1416" on="0"/>
        <pt x="360" y="1416" on="1"/>
        <pt x="333" y="1416" on="1"/>
        <pt x="327" y="1422" on="0"/>
        <pt x="327" y="1434" on="1"/>
        <pt x="327" y="1606" on="0"/>
        <pt x="481" y="1775" on="0"/>
        <pt x="623" y="1775" on="1"/>
        <pt x="676" y="1775" on="0"/>
        <pt x="809" y="1738" on="1"/>
        <pt x="809" y="1739" on="1"/>
        <pt x="839" y="1728" on="0"/>
        <pt x="896" y="1713" on="1"/>
        <pt x="926" y="1707" on="1"/>
        <pt x="930" y="1707" on="0"/>
        <pt x="940" y="1697" on="1"/>
        <pt x="965" y="1725" on="1"/>
        <pt x="970" y="1742" on="0"/>
      </contour>
      <contour>
        <pt x="932" y="1745" on="1"/>
        <pt x="941" y="1755" on="1"/>
        <pt x="948" y="1738" on="1"/>
      </contour>
    </TTGlyph>
    <TTGlyph name="b" xMin="38" yMin="-36" xMax="1478" yMax="1557">
      <contour>
        <pt x="1476" y="677" on="1"/>
        <pt x="1478" y="659" on="1"/>
        <pt x="1478" y="653" on="1"/>
        <pt x="1477" y="602" on="1"/>
        <pt x="1472" y="128" on="0"/>
        <pt x="1172" y="2" on="1"/>
        <pt x="1080" y="-36" on="0"/>
        <pt x="960" y="-36" on="1"/>
        <pt x="796" y="-36" on="0"/>
        <pt x="640" y="111" on="1"/>
        <pt x="594" y="79" on="1"/>
        <pt x="551" y="-5" on="1"/>
        <pt x="39" y="-5" on="1"/>
        <pt x="38" y="775" on="1"/>
        <pt x="38" y="1555" on="1"/>
        <pt x="243" y="1557" on="0"/>
        <pt x="637" y="1557" on="1"/>
        <pt x="639" y="1463" on="0"/>
        <pt x="639" y="1198" on="0"/>
        <pt x="637" y="1080" on="1"/>
        <pt x="725" y="1155" on="0"/>
        <pt x="923" y="1239" on="0"/>
        <pt x="1012" y="1239" on="1"/>
        <pt x="1183" y="1239" on="0"/>
        <pt x="1299" y="1123" on="1"/>
        <pt x="1322" y="1104" on="0"/>
        <pt x="1346" y="1066" on="0"/>
        <pt x="1352" y="1061" on="1"/>
        <pt x="1352" y="1062" on="1"/>
        <pt x="1362" y="1054" on="1"/>
        <pt x="1423" y="973" on="0"/>
        <pt x="1459" y="842" on="1"/>
        <pt x="1477" y="765" on="0"/>
        <pt x="1477" y="687" on="0"/>
      </contour>
      <contour>
        <pt x="858" y="559" on="1"/>
        <pt x="858" y="655" on="0"/>
        <pt x="839" y="734" on="1"/>
        <pt x="803" y="882" on="0"/>
        <pt x="729" y="882" on="1"/>
        <pt x="669" y="882" on="0"/>
        <pt x="603" y="694" on="0"/>
        <pt x="603" y="524" on="1"/>
        <pt x="603" y="408" on="0"/>
        <pt x="662" y="322" on="1"/>
        <pt x="694" y="277" on="0"/>
        <pt x="765" y="277" on="0"/>
        <pt x="817" y="330" on="0"/>
        <pt x="858" y="453" on="0"/>
        <pt x="858" y="530" on="0"/>
        <pt x="857" y="533" on="1"/>
        <pt x="857" y="535" on="1"/>
        <pt x="858" y="539" on="0"/>
        <pt x="858" y="546" on="1"/>
      </contour>
    </TTGlyph>
    <TTGlyph name="backslash" xMin="-26" yMin="-74" xMax="859" yMax="1569">
      <contour>
        <pt x="268" y="1564" on="1"/>
        <pt x="267" y="1559" on="0"/>
        <pt x="267" y="1534" on="0"/>
        <pt x="540" y="813" on="1"/>
        <pt x="598" y="656" on="1"/>
        <pt x="641" y="539" on="0"/>
        <pt x="814" y="73" on="0"/>
        <pt x="857" y="-44" on="1"/>
        <pt x="857" y="-51" on="0"/>
        <pt x="859" y="-56" on="1"/>
        <pt x="859" y="-72" on="0"/>
        <pt x="838" y="-72" on="1"/>
        <pt x="798" y="-72" on="1"/>
        <pt x="776" y="-73" on="1"/>
        <pt x="659" y="-73" on="1"/>
        <pt x="628" y="-72" on="1"/>
        <pt x="600" y="-72" on="1"/>
        <pt x="535" y="-72" on="0"/>
        <pt x="521" y="-74" on="1"/>
        <pt x="422" y="222" on="1"/>
        <pt x="137" y="1088" on="0"/>
        <pt x="-26" y="1565" on="1"/>
        <pt x="-20" y="1569" on="1"/>
        <pt x="85" y="1563" on="0"/>
        <pt x="218" y="1563" on="0"/>
        <pt x="266" y="1565" on="1"/>
      </contour>
    </TTGlyph>
    <TTGlyph name="bar" xMin="88" yMin="-84" xMax="407" yMax="1571">
      <contour>
        <pt x="388" y="1557" on="1"/>
        <pt x="385" y="1500" on="1"/>
        <pt x="389" y="1159" on="1"/>
        <pt x="395" y="611" on="0"/>
        <pt x="402" y="280" on="1"/>
        <pt x="407" y="-60" on="1"/>
        <pt x="396" y="-84" on="0"/>
        <pt x="293" y="-84" on="1"/>
        <pt x="219" y="-84" on="1"/>
        <pt x="140" y="-84" on="0"/>
        <pt x="111" y="-79" on="1"/>
        <pt x="100" y="-67" on="1"/>
        <pt x="98" y="-66" on="0"/>
        <pt x="88" y="-56" on="1"/>
        <pt x="88" y="284" on="0"/>
        <pt x="99" y="817" on="1"/>
        <pt x="102" y="965" on="1"/>
        <pt x="104" y="1046" on="0"/>
        <pt x="109" y="1519" on="1"/>
        <pt x="109" y="1526" on="1"/>
        <pt x="108" y="1534" on="1"/>
        <pt x="108" y="1547" on="1"/>
        <pt x="108" y="1565" on="0"/>
        <pt x="112" y="1570" on="1"/>
        <pt x="159" y="1571" on="0"/>
        <pt x="343" y="1571" on="0"/>
        <pt x="387" y="1570" on="1"/>
        <pt x="388" y="1569" on="0"/>
      </contour>
    </TTGlyph>
    <TTGlyph name="braceleft" xMin="54" yMin="-325" xMax="930" yMax="1534">
      <contour>
        <pt x="818" y="1534" on="1"/>
        <pt x="897" y="1531" on="1"/>
        <pt x="905" y="1531" on="1"/>
        <pt x="930" y="1508" on="1"/>
        <pt x="929" y="1345" on="1"/>
        <pt x="929" y="1262" on="1"/>
        <pt x="929" y="1262" on="0"/>
        <pt x="930" y="1219" on="1"/>
        <pt x="930" y="1163" on="0"/>
        <pt x="911" y="1163" on="1"/>
        <pt x="892" y="1164" on="1"/>
        <pt x="844" y="1164" on="1"/>
        <pt x="786" y="1164" on="0"/>
        <pt x="731" y="1114" on="0"/>
        <pt x="726" y="1045" on="1"/>
        <pt x="723" y="965" on="1"/>
        <pt x="721" y="911" on="0"/>
        <pt x="721" y="801" on="1"/>
        <pt x="721" y="730" on="0"/>
        <pt x="604" y="626" on="0"/>
        <pt x="520" y="597" on="1"/>
        <pt x="605" y="565" on="1"/>
        <pt x="675" y="532" on="0"/>
        <pt x="720" y="418" on="0"/>
        <pt x="720" y="295" on="1"/>
        <pt x="720" y="259" on="1"/>
        <pt x="718" y="203" on="1"/>
        <pt x="718" y="185" on="1"/>
        <pt x="718" y="96" on="0"/>
        <pt x="759" y="40" on="0"/>
        <pt x="822" y="23" on="0"/>
        <pt x="875" y="23" on="1"/>
        <pt x="889" y="23" on="1"/>
        <pt x="914" y="23" on="0"/>
        <pt x="918" y="18" on="1"/>
        <pt x="918" y="-4" on="1"/>
        <pt x="917" y="-16" on="1"/>
        <pt x="917" y="-96" on="1"/>
        <pt x="918" y="-129" on="1"/>
        <pt x="918" y="-311" on="0"/>
        <pt x="905" y="-325" on="1"/>
        <pt x="721" y="-317" on="1"/>
        <pt x="537" y="-317" on="0"/>
        <pt x="361" y="-260" on="0"/>
        <pt x="269" y="-145" on="0"/>
        <pt x="261" y="13" on="0"/>
        <pt x="260" y="133" on="0"/>
        <pt x="260" y="204" on="0"/>
        <pt x="258" y="280" on="0"/>
        <pt x="255" y="320" on="0"/>
        <pt x="250" y="342" on="1"/>
        <pt x="241" y="374" on="0"/>
        <pt x="197" y="407" on="0"/>
        <pt x="144" y="416" on="1"/>
        <pt x="109" y="420" on="1"/>
        <pt x="60" y="426" on="0"/>
        <pt x="60" y="427" on="1"/>
        <pt x="54" y="574" on="0"/>
        <pt x="54" y="764" on="0"/>
        <pt x="66" y="776" on="1"/>
        <pt x="247" y="778" on="0"/>
        <pt x="257" y="886" on="1"/>
        <pt x="255" y="1155" on="1"/>
        <pt x="254" y="1163" on="1"/>
        <pt x="254" y="1188" on="1"/>
        <pt x="254" y="1472" on="0"/>
        <pt x="516" y="1518" on="1"/>
        <pt x="587" y="1530" on="0"/>
        <pt x="690" y="1532" on="1"/>
      </contour>
    </TTGlyph>
    <TTGlyph name="braceright" xMin="100" yMin="-334" xMax="974" yMax="1515">
      <contour>
        <pt x="258" y="1512" on="1"/>
        <pt x="260" y="1512" on="0"/>
        <pt x="265" y="1513" on="1"/>
        <pt x="363" y="1513" on="1"/>
        <pt x="539" y="1513" on="0"/>
        <pt x="614" y="1476" on="1"/>
        <pt x="766" y="1402" on="0"/>
        <pt x="776" y="1128" on="1"/>
        <pt x="776" y="1082" on="1"/>
        <pt x="770" y="894" on="1"/>
        <pt x="770" y="784" on="0"/>
        <pt x="912" y="774" on="1"/>
        <pt x="933" y="772" on="0"/>
        <pt x="963" y="772" on="1"/>
        <pt x="967" y="773" on="1"/>
        <pt x="974" y="771" on="0"/>
        <pt x="974" y="760" on="1"/>
        <pt x="974" y="641" on="1"/>
        <pt x="973" y="599" on="1"/>
        <pt x="973" y="471" on="1"/>
        <pt x="974" y="427" on="1"/>
        <pt x="965" y="416" on="0"/>
        <pt x="867" y="412" on="0"/>
        <pt x="840" y="406" on="1"/>
        <pt x="776" y="390" on="0"/>
        <pt x="776" y="314" on="1"/>
        <pt x="776" y="291" on="0"/>
        <pt x="778" y="260" on="1"/>
        <pt x="781" y="192" on="1"/>
        <pt x="785" y="110" on="0"/>
        <pt x="785" y="-15" on="0"/>
        <pt x="760" y="-141" on="0"/>
        <pt x="736" y="-184" on="1"/>
        <pt x="689" y="-271" on="0"/>
        <pt x="537" y="-332" on="0"/>
        <pt x="444" y="-332" on="1"/>
        <pt x="398" y="-332" on="1"/>
        <pt x="382" y="-331" on="1"/>
        <pt x="256" y="-332" on="1"/>
        <pt x="227" y="-334" on="1"/>
        <pt x="161" y="-334" on="1"/>
        <pt x="136" y="-333" on="1"/>
        <pt x="128" y="-333" on="0"/>
        <pt x="124" y="-334" on="1"/>
        <pt x="121" y="-330" on="0"/>
        <pt x="116" y="-321" on="0"/>
        <pt x="111" y="-315" on="0"/>
        <pt x="108" y="-311" on="1"/>
        <pt x="108" y="-312" on="1"/>
        <pt x="100" y="-302" on="1"/>
        <pt x="103" y="-147" on="1"/>
        <pt x="102" y="-103" on="1"/>
        <pt x="102" y="24" on="0"/>
        <pt x="119" y="31" on="1"/>
        <pt x="174" y="31" on="1"/>
        <pt x="240" y="31" on="0"/>
        <pt x="307" y="81" on="0"/>
        <pt x="307" y="158" on="1"/>
        <pt x="304" y="304" on="1"/>
        <pt x="308" y="439" on="0"/>
        <pt x="393" y="556" on="0"/>
        <pt x="525" y="601" on="1"/>
        <pt x="401" y="639" on="0"/>
        <pt x="312" y="752" on="0"/>
        <pt x="312" y="865" on="1"/>
        <pt x="315" y="1039" on="1"/>
        <pt x="315" y="1115" on="0"/>
        <pt x="245" y="1170" on="0"/>
        <pt x="146" y="1170" on="1"/>
        <pt x="114" y="1170" on="0"/>
        <pt x="114" y="1174" on="1"/>
        <pt x="116" y="1315" on="1"/>
        <pt x="116" y="1375" on="1"/>
        <pt x="114" y="1439" on="1"/>
        <pt x="114" y="1496" on="0"/>
        <pt x="122" y="1515" on="1"/>
        <pt x="152" y="1513" on="0"/>
        <pt x="205" y="1513" on="1"/>
        <pt x="232" y="1513" on="1"/>
        <pt x="239" y="1512" on="1"/>
      </contour>
    </TTGlyph>
    <TTGlyph name="bracketleft" xMin="172" yMin="-339" xMax="992" yMax="1537">
      <contour>
        <pt x="380" y="1529" on="1"/>
        <pt x="876" y="1537" on="1"/>
        <pt x="944" y="1537" on="0"/>
        <pt x="988" y="1476" on="0"/>
        <pt x="988" y="1431" on="1"/>
        <pt x="988" y="1215" on="0"/>
        <pt x="985" y="1194" on="1"/>
        <pt x="927" y="1192" on="0"/>
        <pt x="797" y="1192" on="0"/>
        <pt x="647" y="1204" on="1"/>
        <pt x="641" y="786" on="0"/>
        <pt x="641" y="194" on="0"/>
        <pt x="646" y="27" on="1"/>
        <pt x="936" y="31" on="1"/>
        <pt x="973" y="31" on="1"/>
        <pt x="992" y="12" on="0"/>
        <pt x="992" y="-112" on="1"/>
        <pt x="990" y="-212" on="1"/>
        <pt x="990" y="-237" on="1"/>
        <pt x="992" y="-266" on="1"/>
        <pt x="992" y="-327" on="0"/>
        <pt x="969" y="-330" on="1"/>
        <pt x="210" y="-339" on="1"/>
        <pt x="197" y="-325" on="1"/>
        <pt x="172" y="-299" on="0"/>
        <pt x="172" y="-246" on="1"/>
        <pt x="174" y="-189" on="1"/>
        <pt x="174" y="-112" on="1"/>
        <pt x="175" y="-85" on="1"/>
        <pt x="175" y="49" on="1"/>
        <pt x="175" y="1032" on="0"/>
        <pt x="198" y="1523" on="1"/>
        <pt x="198" y="1531" on="0"/>
        <pt x="228" y="1531" on="1"/>
        <pt x="342" y="1529" on="1"/>
      </contour>
      <contour>
        <pt x="985" y="1193" on="1"/>
        <pt x="987" y="1194" on="1"/>
        <pt x="986" y="1193" on="0"/>
      </contour>
    </TTGlyph>
    <TTGlyph name="bracketright" xMin="64" yMin="-330" xMax="890" yMax="1547">
      <contour>
        <pt x="866" y="452" on="1"/>
        <pt x="856" y="-214" on="1"/>
        <pt x="856" y="-293" on="1"/>
        <pt x="856" y="-314" on="0"/>
        <pt x="845" y="-326" on="1"/>
        <pt x="777" y="-330" on="0"/>
        <pt x="698" y="-330" on="1"/>
        <pt x="665" y="-330" on="1"/>
        <pt x="362" y="-327" on="1"/>
        <pt x="109" y="-324" on="0"/>
        <pt x="87" y="-324" on="1"/>
        <pt x="79" y="-322" on="0"/>
        <pt x="77" y="-302" on="1"/>
        <pt x="77" y="-299" on="1"/>
        <pt x="72" y="-159" on="0"/>
        <pt x="72" y="1" on="0"/>
        <pt x="83" y="22" on="0"/>
        <pt x="99" y="22" on="1"/>
        <pt x="131" y="22" on="1"/>
        <pt x="329" y="22" on="0"/>
        <pt x="416" y="25" on="1"/>
        <pt x="416" y="140" on="1"/>
        <pt x="416" y="489" on="0"/>
        <pt x="402" y="1173" on="1"/>
        <pt x="252" y="1173" on="1"/>
        <pt x="86" y="1170" on="1"/>
        <pt x="68" y="1188" on="0"/>
        <pt x="64" y="1195" on="1"/>
        <pt x="64" y="1394" on="1"/>
        <pt x="65" y="1447" on="1"/>
        <pt x="65" y="1479" on="1"/>
        <pt x="64" y="1492" on="1"/>
        <pt x="64" y="1533" on="0"/>
        <pt x="76" y="1547" on="1"/>
        <pt x="158" y="1547" on="1"/>
        <pt x="348" y="1545" on="1"/>
        <pt x="490" y="1546" on="1"/>
        <pt x="560" y="1546" on="1"/>
        <pt x="633" y="1547" on="1"/>
        <pt x="880" y="1537" on="1"/>
        <pt x="880" y="1466" on="1"/>
        <pt x="879" y="1417" on="1"/>
        <pt x="879" y="1242" on="1"/>
        <pt x="879" y="1089" on="0"/>
        <pt x="870" y="628" on="1"/>
      </contour>
      <contour>
        <pt x="880" y="1537" on="1"/>
        <pt x="880" y="1547" on="1"/>
        <pt x="890" y="1537" on="1"/>
      </contour>
    </TTGlyph>
    <TTGlyph name="breve" xMin="-112" yMin="1368" xMax="802" yMax="1804">
      <contour>
        <pt x="753" y="1783" on="1"/>
        <pt x="761" y="1784" on="1"/>
        <pt x="800" y="1784" on="0"/>
        <pt x="802" y="1754" on="1"/>
        <pt x="775" y="1638" on="0"/>
        <pt x="746" y="1581" on="1"/>
        <pt x="687" y="1482" on="0"/>
        <pt x="464" y="1368" on="0"/>
        <pt x="231" y="1368" on="0"/>
        <pt x="22" y="1458" on="0"/>
        <pt x="-33" y="1543" on="1"/>
        <pt x="-83" y="1627" on="0"/>
        <pt x="-112" y="1756" on="1"/>
        <pt x="-77" y="1804" on="1"/>
        <pt x="-67" y="1800" on="0"/>
        <pt x="-56" y="1800" on="1"/>
        <pt x="-44" y="1800" on="1"/>
        <pt x="-31" y="1802" on="1"/>
        <pt x="60" y="1798" on="1"/>
        <pt x="96" y="1795" on="0"/>
        <pt x="127" y="1795" on="1"/>
        <pt x="132" y="1795" on="1"/>
        <pt x="148" y="1794" on="0"/>
        <pt x="243" y="1791" on="0"/>
        <pt x="255" y="1782" on="1"/>
        <pt x="268" y="1773" on="0"/>
        <pt x="281" y="1730" on="0"/>
        <pt x="281" y="1728" on="1"/>
        <pt x="298" y="1666" on="0"/>
        <pt x="356" y="1666" on="1"/>
        <pt x="381" y="1666" on="0"/>
        <pt x="418" y="1693" on="0"/>
        <pt x="432" y="1734" on="1"/>
        <pt x="431" y="1734" on="1"/>
        <pt x="446" y="1776" on="0"/>
        <pt x="465" y="1789" on="1"/>
        <pt x="492" y="1787" on="0"/>
        <pt x="620" y="1785" on="1"/>
      </contour>
      <contour>
        <pt x="-77" y="1801" on="1"/>
        <pt x="-77" y="1800" on="1"/>
        <pt x="-75" y="1798" on="1"/>
        <pt x="-75" y="1801" on="1"/>
      </contour>
    </TTGlyph>
    <TTGlyph name="brokenbar" xMin="100" yMin="-375" xMax="396" yMax="1571">
      <contour>
        <pt x="389" y="1557" on="1"/>
        <pt x="386" y="1500" on="1"/>
        <pt x="390" y="1159" on="1"/>
        <pt x="396" y="795" on="1"/>
        <pt x="386" y="769" on="0"/>
        <pt x="290" y="769" on="1"/>
        <pt x="216" y="769" on="1"/>
        <pt x="216" y="769" on="0"/>
        <pt x="189" y="767" on="1"/>
        <pt x="183" y="767" on="0"/>
        <pt x="177" y="767" on="1"/>
        <pt x="120" y="767" on="0"/>
        <pt x="113" y="783" on="1"/>
        <pt x="100" y="797" on="1"/>
        <pt x="110" y="1519" on="1"/>
        <pt x="110" y="1526" on="1"/>
        <pt x="109" y="1534" on="1"/>
        <pt x="109" y="1547" on="1"/>
        <pt x="109" y="1565" on="0"/>
        <pt x="113" y="1570" on="1"/>
        <pt x="160" y="1571" on="0"/>
        <pt x="345" y="1571" on="0"/>
        <pt x="388" y="1570" on="1"/>
        <pt x="389" y="1569" on="0"/>
      </contour>
      <contour>
        <pt x="389" y="477" on="1"/>
        <pt x="388" y="442" on="1"/>
        <pt x="388" y="425" on="0"/>
        <pt x="390" y="420" on="1"/>
        <pt x="390" y="6" on="1"/>
        <pt x="392" y="-10" on="1"/>
        <pt x="396" y="-348" on="1"/>
        <pt x="386" y="-373" on="0"/>
        <pt x="290" y="-373" on="1"/>
        <pt x="216" y="-373" on="1"/>
        <pt x="189" y="-375" on="1"/>
        <pt x="183" y="-375" on="0"/>
        <pt x="177" y="-375" on="1"/>
        <pt x="120" y="-375" on="0"/>
        <pt x="113" y="-359" on="1"/>
        <pt x="100" y="-345" on="1"/>
        <pt x="110" y="440" on="1"/>
        <pt x="109" y="449" on="1"/>
        <pt x="109" y="467" on="1"/>
        <pt x="109" y="494" on="0"/>
        <pt x="281" y="494" on="0"/>
        <pt x="389" y="491" on="1"/>
        <pt x="388" y="490" on="0"/>
        <pt x="388" y="489" on="1"/>
      </contour>
    </TTGlyph>
    <TTGlyph name="bullet" xMin="149" yMin="347" xMax="986" yMax="1141">
      <contour>
        <pt x="578" y="1141" on="1"/>
        <pt x="740" y="1141" on="0"/>
        <pt x="986" y="910" on="0"/>
        <pt x="986" y="575" on="0"/>
        <pt x="748" y="347" on="0"/>
        <pt x="586" y="347" on="1"/>
        <pt x="376" y="347" on="0"/>
        <pt x="256" y="514" on="1"/>
        <pt x="188" y="609" on="0"/>
        <pt x="173" y="731" on="1"/>
        <pt x="176" y="734" on="1"/>
        <pt x="190" y="892" on="0"/>
        <pt x="287" y="1011" on="1"/>
        <pt x="335" y="1070" on="0"/>
        <pt x="486" y="1141" on="0"/>
      </contour>
      <contour>
        <pt x="149" y="731" on="1"/>
        <pt x="156" y="748" on="1"/>
        <pt x="173" y="744" on="1"/>
        <pt x="173" y="731" on="1"/>
        <pt x="164" y="721" on="1"/>
      </contour>
    </TTGlyph>
    <TTGlyph name="c" xMin="0" yMin="-36" xMax="1492" yMax="1240">
      <contour>
        <pt x="786" y="-31" on="1"/>
        <pt x="706" y="-36" on="1"/>
        <pt x="645" y="-36" on="0"/>
        <pt x="586" y="-22" on="1"/>
        <pt x="546" y="-22" on="0"/>
        <pt x="478" y="-1" on="1"/>
        <pt x="250" y="53" on="0"/>
        <pt x="138" y="186" on="1"/>
        <pt x="120" y="207" on="1"/>
        <pt x="33" y="319" on="0"/>
        <pt x="7" y="508" on="1"/>
        <pt x="4" y="529" on="1"/>
        <pt x="0" y="561" on="0"/>
        <pt x="0" y="650" on="0"/>
        <pt x="17" y="726" on="1"/>
        <pt x="80" y="1007" on="0"/>
        <pt x="282" y="1114" on="1"/>
        <pt x="417" y="1186" on="1"/>
        <pt x="567" y="1240" on="0"/>
        <pt x="791" y="1240" on="1"/>
        <pt x="876" y="1240" on="0"/>
        <pt x="948" y="1218" on="1"/>
        <pt x="968" y="1212" on="1"/>
        <pt x="967" y="1212" on="0"/>
        <pt x="967" y="1213" on="1"/>
        <pt x="969" y="1213" on="1"/>
        <pt x="1308" y="1123" on="0"/>
        <pt x="1420" y="915" on="1"/>
        <pt x="1422" y="908" on="1"/>
        <pt x="1472" y="807" on="0"/>
        <pt x="1489" y="682" on="1"/>
        <pt x="1466" y="690" on="1"/>
        <pt x="840" y="690" on="1"/>
        <pt x="835" y="727" on="1"/>
        <pt x="819" y="842" on="0"/>
        <pt x="781" y="880" on="1"/>
        <pt x="761" y="892" on="1"/>
        <pt x="673" y="886" on="0"/>
        <pt x="662" y="652" on="1"/>
        <pt x="661" y="620" on="0"/>
        <pt x="659" y="614" on="1"/>
        <pt x="660" y="582" on="1"/>
        <pt x="663" y="524" on="1"/>
        <pt x="663" y="517" on="0"/>
        <pt x="664" y="509" on="1"/>
        <pt x="674" y="499" on="1"/>
        <pt x="663" y="499" on="1"/>
        <pt x="668" y="424" on="0"/>
        <pt x="721" y="344" on="0"/>
        <pt x="748" y="344" on="1"/>
        <pt x="799" y="344" on="0"/>
        <pt x="837" y="468" on="0"/>
        <pt x="837" y="519" on="1"/>
        <pt x="914" y="523" on="0"/>
        <pt x="1069" y="523" on="1"/>
        <pt x="1107" y="523" on="1"/>
        <pt x="1203" y="522" on="1"/>
        <pt x="1299" y="522" on="1"/>
        <pt x="1492" y="521" on="1"/>
        <pt x="1461" y="200" on="0"/>
        <pt x="1189" y="67" on="1"/>
        <pt x="1169" y="60" on="0"/>
        <pt x="1134" y="44" on="1"/>
        <pt x="1096" y="26" on="1"/>
        <pt x="937" y="-35" on="0"/>
        <pt x="805" y="-35" on="1"/>
        <pt x="791" y="-35" on="0"/>
      </contour>
    </TTGlyph>
    <TTGlyph name="caron" xMin="-128" yMin="1393" xMax="851" yMax="1796">
      <contour>
        <pt x="427" y="1699" on="1"/>
        <pt x="473" y="1772" on="1"/>
        <pt x="528" y="1772" on="1"/>
        <pt x="590" y="1771" on="1"/>
        <pt x="848" y="1771" on="1"/>
        <pt x="851" y="1771" on="0"/>
        <pt x="851" y="1768" on="1"/>
        <pt x="851" y="1750" on="0"/>
        <pt x="793" y="1673" on="1"/>
        <pt x="659" y="1475" on="1"/>
        <pt x="643" y="1446" on="0"/>
        <pt x="632" y="1434" on="1"/>
        <pt x="602" y="1399" on="0"/>
        <pt x="511" y="1399" on="1"/>
        <pt x="338" y="1397" on="1"/>
        <pt x="264" y="1394" on="1"/>
        <pt x="251" y="1395" on="1"/>
        <pt x="133" y="1393" on="1"/>
        <pt x="113" y="1410" on="1"/>
        <pt x="86" y="1450" on="0"/>
        <pt x="-31" y="1620" on="0"/>
        <pt x="-58" y="1660" on="1"/>
        <pt x="-79" y="1689" on="1"/>
        <pt x="-128" y="1755" on="0"/>
        <pt x="-128" y="1775" on="0"/>
        <pt x="-117" y="1782" on="1"/>
        <pt x="194" y="1773" on="1"/>
        <pt x="206" y="1773" on="1"/>
        <pt x="244" y="1772" on="0"/>
        <pt x="286" y="1747" on="0"/>
        <pt x="310" y="1706" on="1"/>
        <pt x="364" y="1607" on="1"/>
        <pt x="387" y="1637" on="0"/>
        <pt x="427" y="1700" on="1"/>
      </contour>
      <contour>
        <pt x="453" y="1789" on="1"/>
        <pt x="472" y="1796" on="1"/>
        <pt x="481" y="1782" on="1"/>
        <pt x="472" y="1772" on="1"/>
        <pt x="457" y="1772" on="1"/>
      </contour>
    </TTGlyph>
    <TTGlyph name="ccedilla" xMin="0" yMin="-535" xMax="1492" yMax="1240">
      <component glyphName="c" x="0" y="0" flags="0x1004"/>
      <component glyphName="cedilla" x="457" y="0" flags="0x1004"/>
    </TTGlyph>
    <TTGlyph name="cedilla" xMin="4" yMin="-535" xMax="614" yMax="-1">
      <contour>
        <pt x="247" y="-1" on="1"/>
        <pt x="255" y="-2" on="1"/>
        <pt x="272" y="-2" on="1"/>
        <pt x="410" y="-4" on="1"/>
        <pt x="421" y="-6" on="0"/>
        <pt x="421" y="-25" on="0"/>
        <pt x="408" y="-47" on="0"/>
        <pt x="376" y="-95" on="0"/>
        <pt x="362" y="-121" on="1"/>
        <pt x="482" y="-121" on="0"/>
        <pt x="614" y="-221" on="0"/>
        <pt x="614" y="-302" on="1"/>
        <pt x="614" y="-411" on="0"/>
        <pt x="426" y="-535" on="0"/>
        <pt x="196" y="-535" on="0"/>
        <pt x="4" y="-497" on="0"/>
        <pt x="4" y="-469" on="1"/>
        <pt x="4" y="-448" on="0"/>
        <pt x="33" y="-398" on="1"/>
        <pt x="46" y="-369" on="1"/>
        <pt x="46" y="-365" on="0"/>
        <pt x="58" y="-337" on="0"/>
        <pt x="69" y="-331" on="1"/>
        <pt x="77" y="-334" on="0"/>
        <pt x="97" y="-342" on="1"/>
        <pt x="186" y="-378" on="0"/>
        <pt x="243" y="-378" on="1"/>
        <pt x="353" y="-378" on="0"/>
        <pt x="353" y="-315" on="1"/>
        <pt x="353" y="-271" on="0"/>
        <pt x="275" y="-271" on="1"/>
        <pt x="267" y="-274" on="0"/>
        <pt x="243" y="-279" on="1"/>
        <pt x="221" y="-286" on="1"/>
        <pt x="210" y="-286" on="0"/>
        <pt x="186" y="-270" on="1"/>
        <pt x="164" y="-256" on="1"/>
        <pt x="165" y="-256" on="1"/>
        <pt x="121" y="-231" on="0"/>
        <pt x="121" y="-197" on="1"/>
        <pt x="173" y="-106" on="0"/>
        <pt x="227" y="-7" on="1"/>
        <pt x="231" y="-3" on="0"/>
        <pt x="242" y="-1" on="1"/>
      </contour>
      <contour>
        <pt x="221" y="-286" on="1"/>
        <pt x="221" y="-306" on="1"/>
        <pt x="216" y="-307" on="1"/>
        <pt x="214" y="-288" on="1"/>
      </contour>
    </TTGlyph>
    <TTGlyph name="cent" xMin="143" yMin="-286" xMax="1380" yMax="1330">
      <contour>
        <pt x="934" y="1315" on="1"/>
        <pt x="929" y="1095" on="1"/>
        <pt x="938" y="1085" on="1"/>
        <pt x="1116" y="1075" on="0"/>
        <pt x="1340" y="872" on="0"/>
        <pt x="1360" y="673" on="1"/>
        <pt x="1348" y="667" on="0"/>
        <pt x="1249" y="667" on="1"/>
        <pt x="1216" y="668" on="1"/>
        <pt x="1158" y="668" on="1"/>
        <pt x="942" y="665" on="1"/>
        <pt x="910" y="665" on="0"/>
        <pt x="896" y="672" on="1"/>
        <pt x="896" y="675" on="1"/>
        <pt x="896" y="788" on="0"/>
        <pt x="854" y="818" on="1"/>
        <pt x="832" y="833" on="0"/>
        <pt x="798" y="833" on="1"/>
        <pt x="655" y="829" on="0"/>
        <pt x="655" y="522" on="1"/>
        <pt x="655" y="446" on="0"/>
        <pt x="661" y="404" on="1"/>
        <pt x="661" y="397" on="1"/>
        <pt x="661" y="222" on="0"/>
        <pt x="775" y="222" on="1"/>
        <pt x="862" y="222" on="0"/>
        <pt x="893" y="292" on="1"/>
        <pt x="907" y="324" on="0"/>
        <pt x="917" y="365" on="1"/>
        <pt x="923" y="389" on="1"/>
        <pt x="1078" y="386" on="0"/>
        <pt x="1368" y="386" on="1"/>
        <pt x="1376" y="386" on="0"/>
        <pt x="1380" y="371" on="1"/>
        <pt x="1368" y="214" on="0"/>
        <pt x="1314" y="151" on="1"/>
        <pt x="1265" y="77" on="0"/>
        <pt x="1089" y="-12" on="0"/>
        <pt x="953" y="-53" on="1"/>
        <pt x="958" y="-141" on="0"/>
        <pt x="958" y="-194" on="1"/>
        <pt x="958" y="-256" on="0"/>
        <pt x="952" y="-284" on="0"/>
        <pt x="936" y="-286" on="1"/>
        <pt x="865" y="-286" on="1"/>
        <pt x="740" y="-286" on="0"/>
        <pt x="648" y="-281" on="1"/>
        <pt x="623" y="-252" on="1"/>
        <pt x="626" y="-60" on="1"/>
        <pt x="412" y="-6" on="0"/>
        <pt x="341" y="55" on="1"/>
        <pt x="185" y="186" on="0"/>
        <pt x="171" y="341" on="1"/>
        <pt x="143" y="448" on="0"/>
        <pt x="143" y="536" on="1"/>
        <pt x="143" y="945" on="0"/>
        <pt x="630" y="1088" on="1"/>
        <pt x="630" y="1143" on="1"/>
        <pt x="628" y="1317" on="1"/>
        <pt x="628" y="1330" on="0"/>
        <pt x="920" y="1330" on="0"/>
        <pt x="934" y="1322" on="1"/>
      </contour>
    </TTGlyph>
</ttFont>
